<svg
            width="63"
            height="62"
            viewBox="0 0 63 62"
            fill="none"
            xmlns="http://www.w3.org/2000/svg"
          >
            <path
              fill-rule="evenodd"
              clip-rule="evenodd"
              d="M38.0629 57.7468C36.5681 60.4257 32.0935 58.394 33.8303 55.264C35.2931 52.6277 39.6759 54.8569 38.0629 57.7468ZM20.0304 56.9414C19.5844 52.4988 26.2108 51.9197 26.5993 56.1913C27.0106 60.7109 20.4245 60.862 20.0304 56.9414ZM53.5332 51.0333C52.2285 55.4749 45.2095 53.6102 46.7237 48.7869C47.9997 44.7222 54.9339 46.2661 53.5332 51.0333ZM8.79776 49.959C8.11621 46.688 13.0688 45.8808 13.6006 48.9037C14.2015 52.3189 9.3597 52.656 8.79776 49.959ZM26.9906 49.1532C26.4713 46.4641 30.1777 45.9758 30.7239 48.1299C31.4314 50.9225 27.4149 51.3476 26.9906 49.1532ZM47.6255 44.622C46.5179 46.2448 42.9283 44.9702 44.3341 42.3951C45.5581 40.1525 49.1787 42.3469 47.6255 44.622ZM57.1102 39.7538C55.9057 42.9357 51.2085 41.2954 52.554 37.9942C53.5759 35.4873 58.2406 36.767 57.1102 39.7538ZM1.46525 38.948C0.242622 34.5355 6.81893 32.9688 7.81576 37.1244C8.90903 41.6825 2.5205 42.7549 1.46525 38.948ZM61.4193 29.5485C59.9046 33.5998 53.6663 31.2737 55.353 27.0782C56.852 23.3501 62.9943 25.3354 61.4193 29.5485ZM49.8533 28.4743C48.3951 31.5241 44.0049 29.2889 45.4362 26.297C46.6194 23.823 51.3268 25.3924 49.8533 28.4743ZM11.2476 27.9374C10.1483 24.5157 15.0685 23.5731 15.8975 26.3907C16.9008 29.7994 12.1026 30.5973 11.2476 27.9374ZM3.87758 21.967C5.0084 21.5396 6.44756 22.1075 6.90749 23.2801C7.44717 24.6562 6.61539 26.1241 5.60975 26.5144C2.67119 27.6555 0.498091 23.2435 3.87758 21.967ZM13.8185 23.1034C21.7399 5.76274 44.3341 10.369 48.5222 23.695C41.8337 23.3863 42.0293 32.8469 49.8927 30.7554C49.9043 35.0297 48.7577 37.086 47.3468 40.2981C45.6991 40.0867 44.6304 40.0153 43.5825 41.0853C42.2231 42.4735 42.8467 43.4875 42.9854 45.2781C40.7135 46.9875 36.1578 49.5983 32.1496 49.3526C32.259 47.1549 31.1518 45.5122 29.0747 45.4111C26.2112 45.272 26.4588 47.032 25.3326 48.556C18.5945 46.235 12.1661 40.0106 12.2792 30.7883C17.6816 31.5111 18.3136 26.6637 16.3584 24.5597C15.388 23.5156 14.757 23.7159 13.8181 23.1034H13.8185ZM53.7039 16.293C56.8659 14.6039 58.6871 19.3377 55.8848 20.66C52.9565 22.0417 51.1061 17.6807 53.7039 16.293ZM9.89056 9.18118C14.2103 7.11658 16.2624 13.5654 12.6942 15.2873C10.8689 16.1683 8.78524 15.1617 8.12269 13.7295C7.17362 11.6784 8.01234 10.0788 9.89056 9.18118ZM47.8541 7.52736C51.1418 5.81466 52.9574 10.656 50.0712 11.8494C46.9986 13.1198 45.2859 8.86543 47.8541 7.52736ZM35.1818 1.4657C39.4097 0.399789 40.6908 7.04935 36.588 7.83754C32.3193 8.6568 30.9506 2.53254 35.1818 1.4657ZM22.892 1.50048C26.9461 0.489272 28.4581 6.54584 24.6998 7.7323C20.2947 9.12322 18.4638 2.60487 22.892 1.50048ZM24.0961 9.29941L24.7192 11.2796C24.0089 11.8355 21.4315 12.8217 20.3258 13.5246L16.471 16.4284L15.1756 15.3138C15.8437 12.6529 16.9175 10.9764 14.469 8.71336C9.93089 4.51925 3.66802 11.084 7.57977 15.3439C8.30676 16.1353 9.10376 16.8164 10.5749 16.9653C12.5324 17.1632 12.8931 16.4474 14.2998 16.1799L15.5391 17.6853C12.0229 22.2888 13.2515 22.5911 11.1438 24.2319C10.0922 25.0503 10.0635 25.2116 8.60766 24.5013C7.86862 22.4279 7.8904 20.7996 5.15074 20.4616C2.98878 20.195 1.11844 21.7018 0.860656 23.6654C0.563925 25.9247 2.12038 27.7987 4.12146 28.0171C8.02394 28.4437 6.665 25.3771 9.48858 26.2335L10.0088 28.4914C10.3806 29.4906 10.6528 29.1294 10.8387 30.3622C11.0348 31.6632 11.2402 34.1237 11.3418 35.4192L8.96838 36.0159C4.41355 30.0344 -1.05001 35.0311 0.174474 39.3954C1.43419 43.8862 9.24285 44.2548 9.311 37.4128C10.1952 37.1027 10.937 36.792 11.7725 36.9274C13.5663 39.9151 12.0813 38.8789 15.8799 44.0513C15.3597 44.7175 14.4635 45.4431 13.8389 46.2165C11.8221 45.904 10.3412 44.7208 8.44307 46.751C5.24069 50.176 9.94667 55.3563 13.5501 52.4149C15.4608 50.8552 15.0045 49.6873 14.5975 47.274L16.7413 45.209C17.8073 45.6314 19.1453 47.0566 20.4769 47.8378C21.7496 48.5848 23.5235 49.2051 24.7804 49.9595L24.2333 51.8539C16.9041 52.0013 17.4711 59.402 21.6309 60.919C25.5598 62.3522 31.4068 57.75 25.6182 52.3764L26.0406 50.7736C27.164 51.3722 28.0691 52.4803 30.0845 51.7904C31.7624 51.2159 31.1578 50.4342 34.1956 50.7755L34.5601 52.9036C32.8928 53.9881 31.372 55.4226 32.355 57.967C34.1173 62.5297 41.5254 59.9769 39.4005 54.9714C37.9117 51.4649 35.9157 54.8027 35.6848 50.4973C37.0456 49.6191 38.2177 50.2168 43.3048 46.6968C43.7295 46.4029 44.0244 45.7473 46 47.0061C43.2464 54.9812 50.2423 56.0072 53.0084 54.0108C56.801 51.2734 55.493 44.6614 48.9242 45.0977C50.2131 41.1604 47.5054 42.7248 49.0429 39.8465C49.576 38.8483 49.3373 38.8153 50.0401 38.4695C51.4042 38.3508 50.7537 39.4886 51.3805 40.8067C51.7412 41.5647 52.5114 42.2662 53.3863 42.5778C55.8375 43.4509 57.8975 42.034 58.4372 40.1061C59.4757 36.3979 55.3841 34.0384 52.7724 35.7697C51.6573 36.5092 51.7774 37.4986 50.577 37.1773C50.5511 37.1198 50.5302 36.9599 50.5279 36.9951C50.5256 37.0303 50.4908 36.85 50.4894 36.8115L50.4764 36.4248C50.4917 36.2389 50.6155 35.7817 50.6656 35.5759C50.8404 34.8582 50.9637 34.2707 51.0718 33.5502C51.3054 31.9956 51.183 30.5783 51.3504 29.051L53.7674 29.0552C55.1513 35.07 63.1881 33.7858 62.9966 28.2035C62.9127 25.7545 61.0549 23.8383 58.5962 23.7307C57.2604 23.6723 55.9826 24.2788 55.2849 24.8574C54.0812 25.8551 54.2514 26.8075 53.5314 27.6875C50.7671 27.6875 51.68 27.6592 51.2201 26.2261C51.0495 25.6947 49.9219 23.6389 49.2144 21.5141L51.6258 20.5747C52.7589 21.6652 54.1893 23.0098 56.5807 21.879C58.0839 21.1682 59.3009 19.0748 58.4001 16.8994C57.0013 13.5199 50.8311 13.5185 51.1 19.3294L48.5078 20.3341C46.4873 17.3195 46.337 17.6487 44.7912 15.6295C45.3861 14.7226 46.3936 13.7341 47.0237 12.9154C52.287 14.9698 54.4795 9.33649 51.623 6.75169C50.1514 5.42057 47.6746 5.54205 46.3862 6.82819C44.5715 8.63964 45.3662 10.0023 45.9689 12.1624C44.9132 13.0684 44.845 13.6423 43.5951 14.6489C42.4309 13.9813 41.4595 13.2023 39.9833 12.4763C38.6104 11.8012 36.5046 11.3334 35.5031 10.7511C35.5949 8.50936 36.2394 9.63369 38.08 8.73747C41.7201 6.96589 41.1373 0.916284 36.7911 0.123919C32.1899 -0.71481 29.6482 4.51229 32.2553 7.57372C33.9429 9.55533 34.3347 7.71236 34.1381 10.452C32.7857 10.6514 31.2942 10.3806 29.8884 10.4497C28.4817 10.5188 27.3546 10.8619 26.1389 10.9157L25.5014 8.81119C30.6233 6.38217 27.9341 -1.08433 22.5308 0.133195C17.8481 1.18845 17.2194 8.96002 24.0966 9.29941H24.0961Z"
              fill="#00419E"
              fill-opacity="0.5"
            />
          </svg>