<svg width="42" height="42" viewBox="0 0 42 42" fill="none" xmlns="http://www.w3.org/2000/svg">
<path d="M20.8333 31.4167C23.0435 31.4167 25.1631 30.5387 26.7259 28.9759C28.2887 27.4131 29.1667 25.2935 29.1667 23.0833H12.5C12.5 25.2935 13.378 27.4131 14.9408 28.9759C16.5036 30.5387 18.6232 31.4167 20.8333 31.4167ZM16.6667 16.8333C16.6667 17.3859 16.4472 17.9158 16.0565 18.3065C15.6658 18.6972 15.1359 18.9167 14.5833 18.9167C14.0308 18.9167 13.5009 18.6972 13.1102 18.3065C12.7195 17.9158 12.5 17.3859 12.5 16.8333C12.5 16.2808 12.7195 15.7509 13.1102 15.3602C13.5009 14.9695 14.0308 14.75 14.5833 14.75C15.1359 14.75 15.6658 14.9695 16.0565 15.3602C16.4472 15.7509 16.6667 16.2808 16.6667 16.8333ZM27.0833 18.9167C27.6359 18.9167 28.1658 18.6972 28.5565 18.3065C28.9472 17.9158 29.1667 17.3859 29.1667 16.8333C29.1667 16.2808 28.9472 15.7509 28.5565 15.3602C28.1658 14.9695 27.6359 14.75 27.0833 14.75C26.5308 14.75 26.0009 14.9695 25.6102 15.3602C25.2195 15.7509 25 16.2808 25 16.8333C25 17.3859 25.2195 17.9158 25.6102 18.3065C26.0009 18.6972 26.5308 18.9167 27.0833 18.9167Z" fill="white"/>
<path fill-rule="evenodd" clip-rule="evenodd" d="M41.6667 21.0013C41.6667 32.5076 32.3396 41.8346 20.8333 41.8346C9.32708 41.8346 0 32.5076 0 21.0013C0 9.49505 9.32708 0.167969 20.8333 0.167969C32.3396 0.167969 41.6667 9.49505 41.6667 21.0013ZM37.5 21.0013C37.5 25.4216 35.7441 29.6608 32.6185 32.7864C29.4928 35.912 25.2536 37.668 20.8333 37.668C16.4131 37.668 12.1738 35.912 9.04822 32.7864C5.92261 29.6608 4.16667 25.4216 4.16667 21.0013C4.16667 16.581 5.92261 12.3418 9.04822 9.21619C12.1738 6.09058 16.4131 4.33464 20.8333 4.33464C25.2536 4.33464 29.4928 6.09058 32.6185 9.21619C35.7441 12.3418 37.5 16.581 37.5 21.0013Z" fill="white"/>
</svg>
