<svg width="34" height="34" viewBox="0 0 34 34" fill="none" xmlns="http://www.w3.org/2000/svg">
<path d="M32.8333 24.79V29.54C32.8351 29.981 32.7447 30.4174 32.5681 30.8215C32.3914 31.2255 32.1323 31.5882 31.8074 31.8863C31.4825 32.1844 31.0988 32.4113 30.6811 32.5526C30.2634 32.6939 29.8208 32.7463 29.3816 32.7067C24.5094 32.1773 19.8293 30.5124 15.7174 27.8458C11.8918 25.4149 8.64838 22.1714 6.21743 18.3458C3.54157 14.2152 1.87632 9.5124 1.3566 4.61832C1.31703 4.18048 1.36907 3.73919 1.50939 3.32256C1.64972 2.90593 1.87526 2.52308 2.17165 2.19839C2.46804 1.8737 2.82879 1.61428 3.23094 1.43665C3.63308 1.25902 4.06781 1.16707 4.50743 1.16666H9.25743C10.0258 1.15909 10.7708 1.4312 11.3534 1.93225C11.936 2.4333 12.3166 3.12911 12.4241 3.88999C12.6246 5.4101 12.9964 6.90264 13.5324 8.33916C13.7455 8.90587 13.7916 9.52177 13.6653 10.1139C13.539 10.706 13.2456 11.2495 12.8199 11.68L10.8091 13.6908C13.0631 17.6548 16.3452 20.9369 20.3091 23.1908L22.3199 21.18C22.7504 20.7543 23.2939 20.4609 23.886 20.3346C24.4781 20.2084 25.0941 20.2545 25.6608 20.4675C27.0973 21.0035 28.5898 21.3753 30.1099 21.5758C30.8791 21.6843 31.5815 22.0717 32.0836 22.6644C32.5857 23.257 32.8525 24.0135 32.8333 24.79Z" stroke="#FEFEFE" stroke-linecap="round" stroke-linejoin="round"/>
</svg>
