<svg width="133" height="112" viewBox="0 0 133 112" fill="none" xmlns="http://www.w3.org/2000/svg">
<path fill-rule="evenodd" clip-rule="evenodd" d="M76.159 89.8631C75.4637 80.7184 82.298 73.3211 90.2443 72.5122C111.923 70.304 114.631 102.189 93.8517 104.408C84.5661 105.4 76.7996 98.2905 76.159 89.8631ZM34.2185 66.3855C32.0535 73.7211 24.4738 80.3651 14.6507 77.6211C7.03129 75.4923 0.575054 67.9029 3.35334 57.5854C5.25752 50.5132 13.3307 44.1239 22.7934 46.593C30.1793 48.52 37.1581 56.4258 34.2185 66.3864V66.3855ZM60.4664 36.3275C60.2364 37.5664 60.8215 36.5046 59.6796 37.8431L55.1125 42.0321C54.6552 33.1342 55.5319 23.6423 55.0129 14.8334C54.7759 10.8127 52.6779 8.31991 49.3453 7.22463C44.9818 5.7901 42.3287 8.1366 39.6817 10.1923C34.1868 14.4607 30.975 18.5263 26.8987 24.4688C24.3522 28.1812 19.349 38.1453 18.0555 43.2622C10.0801 45.1012 2.99559 47.7067 0.614699 57.8867C-2.24289 70.1005 5.50688 74.8525 10.6141 79.1447C10.9718 92.6642 6.418 103.76 17.7567 109.768C22.5062 112.284 29.1545 111.613 35.1279 111.62C42.5393 111.629 46.1802 111.54 50.4803 107.251C54.4569 103.285 55.0482 99.0712 55.035 92.4149L55.0332 63.3208C55.0129 58.3581 54.3133 58.3432 57.1348 55.7394C59.2178 53.8176 65.5948 46.9049 67.2831 46.0986C70.8782 49.5748 74.4689 52.9822 78.0675 56.6434C80.3083 58.923 79.6386 74.0489 78.5777 75.6324C75.6928 79.9386 72.3999 83.3672 73.756 91.5355C75.0787 99.5082 78.6156 100.062 81.9614 104.805C85.2939 109.529 88.2581 111.59 96.3604 111.621C102.525 111.646 110.956 112.418 116.083 110.092C127.819 104.766 124.26 89.4701 123.318 76.2536C119.931 56.1253 117.696 37.8175 104.873 20.6429C100.737 15.103 90.7359 3.218 83.0285 8.10049C78.4103 11.0259 79.3382 16.5191 79.3382 23C79.3382 29.2447 79.4501 35.5802 79.3082 41.8039C78.5337 41.365 74.0592 37.3488 73.675 36.0861C72.7859 33.1597 74.6619 2.89549 72.8987 0.0934078L71.2791 0C70.6394 1.97291 70.4402 35.6834 71.2165 37.4959C71.3981 37.9189 79.9902 46.3797 80.8388 47.2168C83.5677 49.9088 88.7674 56.2082 91.0875 55.9235C91.8215 53.0096 88.6767 51.8412 85.1494 48.0293C80.7612 43.286 81.9288 44.6755 81.9305 36.7813C81.9323 32.0177 81.9305 27.2542 81.9305 22.4898C81.9305 17.5059 80.9789 12.2719 84.6013 10.1923C90.1526 7.00607 98.3024 16.527 101.498 20.4393C105.446 25.2716 109.356 32.4751 111.967 39.0256C117.837 53.755 120.605 70.3983 121.643 87.6602C121.872 91.4721 122.429 97.4498 121.169 100.867C117.539 110.717 107.602 109.043 100.462 109.046C94.0755 109.049 92.834 109.414 87.6563 107.176C88.1259 106.947 87.7902 106.977 88.7154 106.903C91.7264 106.661 98.1324 108.328 104.434 102.499C108.501 98.7363 105.937 101.882 109.959 100.451C110.067 97.8878 109.69 99.5857 108.488 97.5168C110.402 94.3737 110.668 91.5787 110.83 87.3984C112.322 88.1571 114.588 91.302 116.139 90.3089C116.462 90.019 118.045 89.6366 114.936 87.1429C106.883 80.684 110.684 81.789 107.017 77.1744C100.658 69.1726 96.0511 71.3755 91.2752 68.7479L81.9411 72.5263L81.9314 60.9902C84.7247 62.3692 84.6075 65.0127 87.3761 64.0293C88.1859 61.5532 80.8696 55.8663 78.0755 53.0342C76.2541 51.1882 74.7879 49.7396 72.9674 47.9182C71.2562 46.2061 69.5987 43.8446 67.2875 42.6718C64.9119 43.5424 54.5468 54.6212 51.1834 57.9299C49.9146 59.1777 47.0755 61.0184 46.9098 62.8494C46.7054 65.1184 46.7283 63.1754 47.1107 64.0751L48.5779 64.0319C49.1964 63.7976 49.3242 63.5641 49.7331 63.1711C51.0301 61.9242 50.6274 61.6951 52.4629 61.0078C52.3924 70.7816 52.4646 80.5924 52.4682 90.3715C52.4708 97.4763 52.6823 107.564 41.4942 108.891C37.4682 109.368 31.6781 109.048 27.4662 109.051C8.69403 109.069 12.4733 93.3322 13.2549 80.1474C20.7976 80.5396 23.1847 81.6436 29.3845 77.4705C32.9408 75.0764 36.113 70.8812 37.1052 65.3096C37.9916 60.3276 38.1441 62.3102 36.9087 57.9211C34.697 50.0638 30.367 45.3135 20.8637 43.5345C24.3496 27.0736 52.5598 -7.94538 52.4699 19.4251L52.4902 42.4356C52.462 46.3198 50.8953 46.5004 46.0868 51.301C44.3774 53.0078 42.7878 53.5937 43.5606 55.913C45.7819 56.2161 50.6274 50.2101 53.4727 47.4688C54.6596 46.3251 62.8244 38.4273 63.1822 37.8122C64.1955 36.0693 64.1338 2.4223 63.2729 0.0660868L61.6754 0.026439C59.995 2.98448 61.6357 28.8271 61.0841 34.2479L60.4726 36.3248L60.4664 36.3275Z" fill="#00419E"/>
<path fill-rule="evenodd" clip-rule="evenodd" d="M76.159 89.8631C75.4637 80.7184 82.298 73.3211 90.2443 72.5122C111.923 70.304 114.631 102.189 93.8517 104.408C84.5661 105.4 76.7996 98.2905 76.159 89.8631ZM34.2185 66.3855C32.0535 73.7211 24.4738 80.3651 14.6507 77.6211C7.03129 75.4923 0.575054 67.9029 3.35334 57.5854C5.25752 50.5132 13.3307 44.1239 22.7934 46.593C30.1793 48.52 37.1581 56.4258 34.2185 66.3864V66.3855ZM60.4664 36.3275C60.2364 37.5664 60.8215 36.5046 59.6796 37.8431L55.1125 42.0321C54.6552 33.1342 55.5319 23.6423 55.0129 14.8334C54.7759 10.8127 52.6779 8.31991 49.3453 7.22463C44.9818 5.7901 42.3287 8.1366 39.6817 10.1923C34.1868 14.4607 30.975 18.5263 26.8987 24.4688C24.3522 28.1812 19.349 38.1453 18.0555 43.2622C10.0801 45.1012 2.99559 47.7067 0.614699 57.8867C-2.24289 70.1005 5.50688 74.8525 10.6141 79.1447C10.9718 92.6642 6.418 103.76 17.7567 109.768C22.5062 112.284 29.1545 111.613 35.1279 111.62C42.5393 111.629 46.1802 111.54 50.4803 107.251C54.4569 103.285 55.0482 99.0712 55.035 92.4149L55.0332 63.3208C55.0129 58.3581 54.3133 58.3432 57.1348 55.7394C59.2178 53.8176 65.5948 46.9049 67.2831 46.0986C70.8782 49.5748 74.4689 52.9822 78.0675 56.6434C80.3083 58.923 79.6386 74.0489 78.5777 75.6324C75.6928 79.9386 72.3999 83.3672 73.756 91.5355C75.0787 99.5082 78.6156 100.062 81.9614 104.805C85.2939 109.529 88.2581 111.59 96.3604 111.621C102.525 111.646 110.956 112.418 116.083 110.092C127.819 104.766 124.26 89.4701 123.318 76.2536C119.931 56.1253 117.696 37.8175 104.873 20.6429C100.737 15.103 90.7359 3.218 83.0285 8.10049C78.4103 11.0259 79.3382 16.5191 79.3382 23C79.3382 29.2447 79.4501 35.5802 79.3082 41.8039C78.5337 41.365 74.0592 37.3488 73.675 36.0861C72.7859 33.1597 74.6619 2.89549 72.8987 0.0934078L71.2791 0C70.6394 1.97291 70.4402 35.6834 71.2165 37.4959C71.3981 37.9189 79.9902 46.3797 80.8388 47.2168C83.5677 49.9088 88.7674 56.2082 91.0875 55.9235C91.8215 53.0096 88.6767 51.8412 85.1494 48.0293C80.7612 43.286 81.9288 44.6755 81.9305 36.7813C81.9323 32.0177 81.9305 27.2542 81.9305 22.4898C81.9305 17.5059 80.9789 12.2719 84.6013 10.1923C90.1526 7.00607 98.3024 16.527 101.498 20.4393C105.446 25.2716 109.356 32.4751 111.967 39.0256C117.837 53.755 120.605 70.3983 121.643 87.6602C121.872 91.4721 122.429 97.4498 121.169 100.867C117.539 110.717 107.602 109.043 100.462 109.046C94.0755 109.049 92.834 109.414 87.6563 107.176C88.1259 106.947 87.7902 106.977 88.7154 106.903C91.7264 106.661 98.1324 108.328 104.434 102.499C108.501 98.7363 105.937 101.882 109.959 100.451C110.067 97.8878 109.69 99.5857 108.488 97.5168C110.402 94.3737 110.668 91.5787 110.83 87.3984C112.322 88.1571 114.588 91.302 116.139 90.3089C116.462 90.019 118.045 89.6366 114.936 87.1429C106.883 80.684 110.684 81.789 107.017 77.1744C100.658 69.1726 96.0511 71.3755 91.2752 68.7479L81.9411 72.5263L81.9314 60.9902C84.7247 62.3692 84.6075 65.0127 87.3761 64.0293C88.1859 61.5532 80.8696 55.8663 78.0755 53.0342C76.2541 51.1882 74.7879 49.7396 72.9674 47.9182C71.2562 46.2061 69.5987 43.8446 67.2875 42.6718C64.9119 43.5424 54.5468 54.6212 51.1834 57.9299C49.9146 59.1777 47.0755 61.0184 46.9098 62.8494C46.7054 65.1184 46.7283 63.1754 47.1107 64.0751L48.5779 64.0319C49.1964 63.7976 49.3242 63.5641 49.7331 63.1711C51.0301 61.9242 50.6274 61.6951 52.4629 61.0078C52.3924 70.7816 52.4646 80.5924 52.4682 90.3715C52.4708 97.4763 52.6823 107.564 41.4942 108.891C37.4682 109.368 31.6781 109.048 27.4662 109.051C8.69403 109.069 12.4733 93.3322 13.2549 80.1474C20.7976 80.5396 23.1847 81.6436 29.3845 77.4705C32.9408 75.0764 36.113 70.8812 37.1052 65.3096C37.9916 60.3276 38.1441 62.3102 36.9087 57.9211C34.697 50.0638 30.367 45.3135 20.8637 43.5345C24.3496 27.0736 52.5598 -7.94538 52.4699 19.4251L52.4902 42.4356C52.462 46.3198 50.8953 46.5004 46.0868 51.301C44.3774 53.0078 42.7878 53.5937 43.5606 55.913C45.7819 56.2161 50.6274 50.2101 53.4727 47.4688C54.6596 46.3251 62.8244 38.4273 63.1822 37.8122C64.1955 36.0693 64.1338 2.4223 63.2729 0.0660868L61.6754 0.026439C59.995 2.98448 61.6357 28.8271 61.0841 34.2479L60.4726 36.3248L60.4664 36.3275Z" fill="#00419E"/>
<path fill-rule="evenodd" clip-rule="evenodd" d="M76.159 89.8631C75.4637 80.7184 82.298 73.3211 90.2443 72.5122C111.923 70.304 114.631 102.189 93.8517 104.408C84.5661 105.4 76.7996 98.2905 76.159 89.8631ZM34.2185 66.3855C32.0535 73.7211 24.4738 80.3651 14.6507 77.6211C7.03129 75.4923 0.575054 67.9029 3.35334 57.5854C5.25752 50.5132 13.3307 44.1239 22.7934 46.593C30.1793 48.52 37.1581 56.4258 34.2185 66.3864V66.3855ZM60.4664 36.3275C60.2364 37.5664 60.8215 36.5046 59.6796 37.8431L55.1125 42.0321C54.6552 33.1342 55.5319 23.6423 55.0129 14.8334C54.7759 10.8127 52.6779 8.31991 49.3453 7.22463C44.9818 5.7901 42.3287 8.1366 39.6817 10.1923C34.1868 14.4607 30.975 18.5263 26.8987 24.4688C24.3522 28.1812 19.349 38.1453 18.0555 43.2622C10.0801 45.1012 2.99559 47.7067 0.614699 57.8867C-2.24289 70.1005 5.50688 74.8525 10.6141 79.1447C10.9718 92.6642 6.418 103.76 17.7567 109.768C22.5062 112.284 29.1545 111.613 35.1279 111.62C42.5393 111.629 46.1802 111.54 50.4803 107.251C54.4569 103.285 55.0482 99.0712 55.035 92.4149L55.0332 63.3208C55.0129 58.3581 54.3133 58.3432 57.1348 55.7394C59.2178 53.8176 65.5948 46.9049 67.2831 46.0986C70.8782 49.5748 74.4689 52.9822 78.0675 56.6434C80.3083 58.923 79.6386 74.0489 78.5777 75.6324C75.6928 79.9386 72.3999 83.3672 73.756 91.5355C75.0787 99.5082 78.6156 100.062 81.9614 104.805C85.2939 109.529 88.2581 111.59 96.3604 111.621C102.525 111.646 110.956 112.418 116.083 110.092C127.819 104.766 124.26 89.4701 123.318 76.2536C119.931 56.1253 117.696 37.8175 104.873 20.6429C100.737 15.103 90.7359 3.218 83.0285 8.10049C78.4103 11.0259 79.3382 16.5191 79.3382 23C79.3382 29.2447 79.4501 35.5802 79.3082 41.8039C78.5337 41.365 74.0592 37.3488 73.675 36.0861C72.7859 33.1597 74.6619 2.89549 72.8987 0.0934078L71.2791 0C70.6394 1.97291 70.4402 35.6834 71.2165 37.4959C71.3981 37.9189 79.9902 46.3797 80.8388 47.2168C83.5677 49.9088 88.7674 56.2082 91.0875 55.9235C91.8215 53.0096 88.6767 51.8412 85.1494 48.0293C80.7612 43.286 81.9288 44.6755 81.9305 36.7813C81.9323 32.0177 81.9305 27.2542 81.9305 22.4898C81.9305 17.5059 80.9789 12.2719 84.6013 10.1923C90.1526 7.00607 98.3024 16.527 101.498 20.4393C105.446 25.2716 109.356 32.4751 111.967 39.0256C117.837 53.755 120.605 70.3983 121.643 87.6602C121.872 91.4721 122.429 97.4498 121.169 100.867C117.539 110.717 107.602 109.043 100.462 109.046C94.0755 109.049 92.834 109.414 87.6563 107.176C88.1259 106.947 87.7902 106.977 88.7154 106.903C91.7264 106.661 98.1324 108.328 104.434 102.499C108.501 98.7363 105.937 101.882 109.959 100.451C110.067 97.8878 109.69 99.5857 108.488 97.5168C110.402 94.3737 110.668 91.5787 110.83 87.3984C112.322 88.1571 114.588 91.302 116.139 90.3089C116.462 90.019 118.045 89.6366 114.936 87.1429C106.883 80.684 110.684 81.789 107.017 77.1744C100.658 69.1726 96.0511 71.3755 91.2752 68.7479L81.9411 72.5263L81.9314 60.9902C84.7247 62.3692 84.6075 65.0127 87.3761 64.0293C88.1859 61.5532 80.8696 55.8663 78.0755 53.0342C76.2541 51.1882 74.7879 49.7396 72.9674 47.9182C71.2562 46.2061 69.5987 43.8446 67.2875 42.6718C64.9119 43.5424 54.5468 54.6212 51.1834 57.9299C49.9146 59.1777 47.0755 61.0184 46.9098 62.8494C46.7054 65.1184 46.7283 63.1754 47.1107 64.0751L48.5779 64.0319C49.1964 63.7976 49.3242 63.5641 49.7331 63.1711C51.0301 61.9242 50.6274 61.6951 52.4629 61.0078C52.3924 70.7816 52.4646 80.5924 52.4682 90.3715C52.4708 97.4763 52.6823 107.564 41.4942 108.891C37.4682 109.368 31.6781 109.048 27.4662 109.051C8.69403 109.069 12.4733 93.3322 13.2549 80.1474C20.7976 80.5396 23.1847 81.6436 29.3845 77.4705C32.9408 75.0764 36.113 70.8812 37.1052 65.3096C37.9916 60.3276 38.1441 62.3102 36.9087 57.9211C34.697 50.0638 30.367 45.3135 20.8637 43.5345C24.3496 27.0736 52.5598 -7.94538 52.4699 19.4251L52.4902 42.4356C52.462 46.3198 50.8953 46.5004 46.0868 51.301C44.3774 53.0078 42.7878 53.5937 43.5606 55.913C45.7819 56.2161 50.6274 50.2101 53.4727 47.4688C54.6596 46.3251 62.8244 38.4273 63.1822 37.8122C64.1955 36.0693 64.1338 2.4223 63.2729 0.0660868L61.6754 0.026439C59.995 2.98448 61.6357 28.8271 61.0841 34.2479L60.4726 36.3248L60.4664 36.3275Z" fill="#00419E"/>
<path fill-rule="evenodd" clip-rule="evenodd" d="M76.159 89.8631C75.4637 80.7184 82.298 73.3211 90.2443 72.5122C111.923 70.304 114.631 102.189 93.8517 104.408C84.5661 105.4 76.7996 98.2905 76.159 89.8631ZM34.2185 66.3855C32.0535 73.7211 24.4738 80.3651 14.6507 77.6211C7.03129 75.4923 0.575054 67.9029 3.35334 57.5854C5.25752 50.5132 13.3307 44.1239 22.7934 46.593C30.1793 48.52 37.1581 56.4258 34.2185 66.3864V66.3855ZM60.4664 36.3275C60.2364 37.5664 60.8215 36.5046 59.6796 37.8431L55.1125 42.0321C54.6552 33.1342 55.5319 23.6423 55.0129 14.8334C54.7759 10.8127 52.6779 8.31991 49.3453 7.22463C44.9818 5.7901 42.3287 8.1366 39.6817 10.1923C34.1868 14.4607 30.975 18.5263 26.8987 24.4688C24.3522 28.1812 19.349 38.1453 18.0555 43.2622C10.0801 45.1012 2.99559 47.7067 0.614699 57.8867C-2.24289 70.1005 5.50688 74.8525 10.6141 79.1447C10.9718 92.6642 6.418 103.76 17.7567 109.768C22.5062 112.284 29.1545 111.613 35.1279 111.62C42.5393 111.629 46.1802 111.54 50.4803 107.251C54.4569 103.285 55.0482 99.0712 55.035 92.4149L55.0332 63.3208C55.0129 58.3581 54.3133 58.3432 57.1348 55.7394C59.2178 53.8176 65.5948 46.9049 67.2831 46.0986C70.8782 49.5748 74.4689 52.9822 78.0675 56.6434C80.3083 58.923 79.6386 74.0489 78.5777 75.6324C75.6928 79.9386 72.3999 83.3672 73.756 91.5355C75.0787 99.5082 78.6156 100.062 81.9614 104.805C85.2939 109.529 88.2581 111.59 96.3604 111.621C102.525 111.646 110.956 112.418 116.083 110.092C127.819 104.766 124.26 89.4701 123.318 76.2536C119.931 56.1253 117.696 37.8175 104.873 20.6429C100.737 15.103 90.7359 3.218 83.0285 8.10049C78.4103 11.0259 79.3382 16.5191 79.3382 23C79.3382 29.2447 79.4501 35.5802 79.3082 41.8039C78.5337 41.365 74.0592 37.3488 73.675 36.0861C72.7859 33.1597 74.6619 2.89549 72.8987 0.0934078L71.2791 0C70.6394 1.97291 70.4402 35.6834 71.2165 37.4959C71.3981 37.9189 79.9902 46.3797 80.8388 47.2168C83.5677 49.9088 88.7674 56.2082 91.0875 55.9235C91.8215 53.0096 88.6767 51.8412 85.1494 48.0293C80.7612 43.286 81.9288 44.6755 81.9305 36.7813C81.9323 32.0177 81.9305 27.2542 81.9305 22.4898C81.9305 17.5059 80.9789 12.2719 84.6013 10.1923C90.1526 7.00607 98.3024 16.527 101.498 20.4393C105.446 25.2716 109.356 32.4751 111.967 39.0256C117.837 53.755 120.605 70.3983 121.643 87.6602C121.872 91.4721 122.429 97.4498 121.169 100.867C117.539 110.717 107.602 109.043 100.462 109.046C94.0755 109.049 92.834 109.414 87.6563 107.176C88.1259 106.947 87.7902 106.977 88.7154 106.903C91.7264 106.661 98.1324 108.328 104.434 102.499C108.501 98.7363 105.937 101.882 109.959 100.451C110.067 97.8878 109.69 99.5857 108.488 97.5168C110.402 94.3737 110.668 91.5787 110.83 87.3984C112.322 88.1571 114.588 91.302 116.139 90.3089C116.462 90.019 118.045 89.6366 114.936 87.1429C106.883 80.684 110.684 81.789 107.017 77.1744C100.658 69.1726 96.0511 71.3755 91.2752 68.7479L81.9411 72.5263L81.9314 60.9902C84.7247 62.3692 84.6075 65.0127 87.3761 64.0293C88.1859 61.5532 80.8696 55.8663 78.0755 53.0342C76.2541 51.1882 74.7879 49.7396 72.9674 47.9182C71.2562 46.2061 69.5987 43.8446 67.2875 42.6718C64.9119 43.5424 54.5468 54.6212 51.1834 57.9299C49.9146 59.1777 47.0755 61.0184 46.9098 62.8494C46.7054 65.1184 46.7283 63.1754 47.1107 64.0751L48.5779 64.0319C49.1964 63.7976 49.3242 63.5641 49.7331 63.1711C51.0301 61.9242 50.6274 61.6951 52.4629 61.0078C52.3924 70.7816 52.4646 80.5924 52.4682 90.3715C52.4708 97.4763 52.6823 107.564 41.4942 108.891C37.4682 109.368 31.6781 109.048 27.4662 109.051C8.69403 109.069 12.4733 93.3322 13.2549 80.1474C20.7976 80.5396 23.1847 81.6436 29.3845 77.4705C32.9408 75.0764 36.113 70.8812 37.1052 65.3096C37.9916 60.3276 38.1441 62.3102 36.9087 57.9211C34.697 50.0638 30.367 45.3135 20.8637 43.5345C24.3496 27.0736 52.5598 -7.94538 52.4699 19.4251L52.4902 42.4356C52.462 46.3198 50.8953 46.5004 46.0868 51.301C44.3774 53.0078 42.7878 53.5937 43.5606 55.913C45.7819 56.2161 50.6274 50.2101 53.4727 47.4688C54.6596 46.3251 62.8244 38.4273 63.1822 37.8122C64.1955 36.0693 64.1338 2.4223 63.2729 0.0660868L61.6754 0.026439C59.995 2.98448 61.6357 28.8271 61.0841 34.2479L60.4726 36.3248L60.4664 36.3275Z" fill="#00419E"/>
<path fill-rule="evenodd" clip-rule="evenodd" d="M76.159 89.8631C75.4637 80.7184 82.298 73.3211 90.2443 72.5122C111.923 70.304 114.631 102.189 93.8517 104.408C84.5661 105.4 76.7996 98.2905 76.159 89.8631ZM34.2185 66.3855C32.0535 73.7211 24.4738 80.3651 14.6507 77.6211C7.03129 75.4923 0.575054 67.9029 3.35334 57.5854C5.25752 50.5132 13.3307 44.1239 22.7934 46.593C30.1793 48.52 37.1581 56.4258 34.2185 66.3864V66.3855ZM60.4664 36.3275C60.2364 37.5664 60.8215 36.5046 59.6796 37.8431L55.1125 42.0321C54.6552 33.1342 55.5319 23.6423 55.0129 14.8334C54.7759 10.8127 52.6779 8.31991 49.3453 7.22463C44.9818 5.7901 42.3287 8.1366 39.6817 10.1923C34.1868 14.4607 30.975 18.5263 26.8987 24.4688C24.3522 28.1812 19.349 38.1453 18.0555 43.2622C10.0801 45.1012 2.99559 47.7067 0.614699 57.8867C-2.24289 70.1005 5.50688 74.8525 10.6141 79.1447C10.9718 92.6642 6.418 103.76 17.7567 109.768C22.5062 112.284 29.1545 111.613 35.1279 111.62C42.5393 111.629 46.1802 111.54 50.4803 107.251C54.4569 103.285 55.0482 99.0712 55.035 92.4149L55.0332 63.3208C55.0129 58.3581 54.3133 58.3432 57.1348 55.7394C59.2178 53.8176 65.5948 46.9049 67.2831 46.0986C70.8782 49.5748 74.4689 52.9822 78.0675 56.6434C80.3083 58.923 79.6386 74.0489 78.5777 75.6324C75.6928 79.9386 72.3999 83.3672 73.756 91.5355C75.0787 99.5082 78.6156 100.062 81.9614 104.805C85.2939 109.529 88.2581 111.59 96.3604 111.621C102.525 111.646 110.956 112.418 116.083 110.092C127.819 104.766 124.26 89.4701 123.318 76.2536C119.931 56.1253 117.696 37.8175 104.873 20.6429C100.737 15.103 90.7359 3.218 83.0285 8.10049C78.4103 11.0259 79.3382 16.5191 79.3382 23C79.3382 29.2447 79.4501 35.5802 79.3082 41.8039C78.5337 41.365 74.0592 37.3488 73.675 36.0861C72.7859 33.1597 74.6619 2.89549 72.8987 0.0934078L71.2791 0C70.6394 1.97291 70.4402 35.6834 71.2165 37.4959C71.3981 37.9189 79.9902 46.3797 80.8388 47.2168C83.5677 49.9088 88.7674 56.2082 91.0875 55.9235C91.8215 53.0096 88.6767 51.8412 85.1494 48.0293C80.7612 43.286 81.9288 44.6755 81.9305 36.7813C81.9323 32.0177 81.9305 27.2542 81.9305 22.4898C81.9305 17.5059 80.9789 12.2719 84.6013 10.1923C90.1526 7.00607 98.3024 16.527 101.498 20.4393C105.446 25.2716 109.356 32.4751 111.967 39.0256C117.837 53.755 120.605 70.3983 121.643 87.6602C121.872 91.4721 122.429 97.4498 121.169 100.867C117.539 110.717 107.602 109.043 100.462 109.046C94.0755 109.049 92.834 109.414 87.6563 107.176C88.1259 106.947 87.7902 106.977 88.7154 106.903C91.7264 106.661 98.1324 108.328 104.434 102.499C108.501 98.7363 105.937 101.882 109.959 100.451C110.067 97.8878 109.69 99.5857 108.488 97.5168C110.402 94.3737 110.668 91.5787 110.83 87.3984C112.322 88.1571 114.588 91.302 116.139 90.3089C116.462 90.019 118.045 89.6366 114.936 87.1429C106.883 80.684 110.684 81.789 107.017 77.1744C100.658 69.1726 96.0511 71.3755 91.2752 68.7479L81.9411 72.5263L81.9314 60.9902C84.7247 62.3692 84.6075 65.0127 87.3761 64.0293C88.1859 61.5532 80.8696 55.8663 78.0755 53.0342C76.2541 51.1882 74.7879 49.7396 72.9674 47.9182C71.2562 46.2061 69.5987 43.8446 67.2875 42.6718C64.9119 43.5424 54.5468 54.6212 51.1834 57.9299C49.9146 59.1777 47.0755 61.0184 46.9098 62.8494C46.7054 65.1184 46.7283 63.1754 47.1107 64.0751L48.5779 64.0319C49.1964 63.7976 49.3242 63.5641 49.7331 63.1711C51.0301 61.9242 50.6274 61.6951 52.4629 61.0078C52.3924 70.7816 52.4646 80.5924 52.4682 90.3715C52.4708 97.4763 52.6823 107.564 41.4942 108.891C37.4682 109.368 31.6781 109.048 27.4662 109.051C8.69403 109.069 12.4733 93.3322 13.2549 80.1474C20.7976 80.5396 23.1847 81.6436 29.3845 77.4705C32.9408 75.0764 36.113 70.8812 37.1052 65.3096C37.9916 60.3276 38.1441 62.3102 36.9087 57.9211C34.697 50.0638 30.367 45.3135 20.8637 43.5345C24.3496 27.0736 52.5598 -7.94538 52.4699 19.4251L52.4902 42.4356C52.462 46.3198 50.8953 46.5004 46.0868 51.301C44.3774 53.0078 42.7878 53.5937 43.5606 55.913C45.7819 56.2161 50.6274 50.2101 53.4727 47.4688C54.6596 46.3251 62.8244 38.4273 63.1822 37.8122C64.1955 36.0693 64.1338 2.4223 63.2729 0.0660868L61.6754 0.026439C59.995 2.98448 61.6357 28.8271 61.0841 34.2479L60.4726 36.3248L60.4664 36.3275Z" fill="#00419E"/>
<path fill-rule="evenodd" clip-rule="evenodd" d="M76.159 89.8631C75.4637 80.7184 82.298 73.3211 90.2443 72.5122C111.923 70.304 114.631 102.189 93.8517 104.408C84.5661 105.4 76.7996 98.2905 76.159 89.8631ZM34.2185 66.3855C32.0535 73.7211 24.4738 80.3651 14.6507 77.6211C7.03129 75.4923 0.575054 67.9029 3.35334 57.5854C5.25752 50.5132 13.3307 44.1239 22.7934 46.593C30.1793 48.52 37.1581 56.4258 34.2185 66.3864V66.3855ZM60.4664 36.3275C60.2364 37.5664 60.8215 36.5046 59.6796 37.8431L55.1125 42.0321C54.6552 33.1342 55.5319 23.6423 55.0129 14.8334C54.7759 10.8127 52.6779 8.31991 49.3453 7.22463C44.9818 5.7901 42.3287 8.1366 39.6817 10.1923C34.1868 14.4607 30.975 18.5263 26.8987 24.4688C24.3522 28.1812 19.349 38.1453 18.0555 43.2622C10.0801 45.1012 2.99559 47.7067 0.614699 57.8867C-2.24289 70.1005 5.50688 74.8525 10.6141 79.1447C10.9718 92.6642 6.418 103.76 17.7567 109.768C22.5062 112.284 29.1545 111.613 35.1279 111.62C42.5393 111.629 46.1802 111.54 50.4803 107.251C54.4569 103.285 55.0482 99.0712 55.035 92.4149L55.0332 63.3208C55.0129 58.3581 54.3133 58.3432 57.1348 55.7394C59.2178 53.8176 65.5948 46.9049 67.2831 46.0986C70.8782 49.5748 74.4689 52.9822 78.0675 56.6434C80.3083 58.923 79.6386 74.0489 78.5777 75.6324C75.6928 79.9386 72.3999 83.3672 73.756 91.5355C75.0787 99.5082 78.6156 100.062 81.9614 104.805C85.2939 109.529 88.2581 111.59 96.3604 111.621C102.525 111.646 110.956 112.418 116.083 110.092C127.819 104.766 124.26 89.4701 123.318 76.2536C119.931 56.1253 117.696 37.8175 104.873 20.6429C100.737 15.103 90.7359 3.218 83.0285 8.10049C78.4103 11.0259 79.3382 16.5191 79.3382 23C79.3382 29.2447 79.4501 35.5802 79.3082 41.8039C78.5337 41.365 74.0592 37.3488 73.675 36.0861C72.7859 33.1597 74.6619 2.89549 72.8987 0.0934078L71.2791 0C70.6394 1.97291 70.4402 35.6834 71.2165 37.4959C71.3981 37.9189 79.9902 46.3797 80.8388 47.2168C83.5677 49.9088 88.7674 56.2082 91.0875 55.9235C91.8215 53.0096 88.6767 51.8412 85.1494 48.0293C80.7612 43.286 81.9288 44.6755 81.9305 36.7813C81.9323 32.0177 81.9305 27.2542 81.9305 22.4898C81.9305 17.5059 80.9789 12.2719 84.6013 10.1923C90.1526 7.00607 98.3024 16.527 101.498 20.4393C105.446 25.2716 109.356 32.4751 111.967 39.0256C117.837 53.755 120.605 70.3983 121.643 87.6602C121.872 91.4721 122.429 97.4498 121.169 100.867C117.539 110.717 107.602 109.043 100.462 109.046C94.0755 109.049 92.834 109.414 87.6563 107.176C88.1259 106.947 87.7902 106.977 88.7154 106.903C91.7264 106.661 98.1324 108.328 104.434 102.499C108.501 98.7363 105.937 101.882 109.959 100.451C110.067 97.8878 109.69 99.5857 108.488 97.5168C110.402 94.3737 110.668 91.5787 110.83 87.3984C112.322 88.1571 114.588 91.302 116.139 90.3089C116.462 90.019 118.045 89.6366 114.936 87.1429C106.883 80.684 110.684 81.789 107.017 77.1744C100.658 69.1726 96.0511 71.3755 91.2752 68.7479L81.9411 72.5263L81.9314 60.9902C84.7247 62.3692 84.6075 65.0127 87.3761 64.0293C88.1859 61.5532 80.8696 55.8663 78.0755 53.0342C76.2541 51.1882 74.7879 49.7396 72.9674 47.9182C71.2562 46.2061 69.5987 43.8446 67.2875 42.6718C64.9119 43.5424 54.5468 54.6212 51.1834 57.9299C49.9146 59.1777 47.0755 61.0184 46.9098 62.8494C46.7054 65.1184 46.7283 63.1754 47.1107 64.0751L48.5779 64.0319C49.1964 63.7976 49.3242 63.5641 49.7331 63.1711C51.0301 61.9242 50.6274 61.6951 52.4629 61.0078C52.3924 70.7816 52.4646 80.5924 52.4682 90.3715C52.4708 97.4763 52.6823 107.564 41.4942 108.891C37.4682 109.368 31.6781 109.048 27.4662 109.051C8.69403 109.069 12.4733 93.3322 13.2549 80.1474C20.7976 80.5396 23.1847 81.6436 29.3845 77.4705C32.9408 75.0764 36.113 70.8812 37.1052 65.3096C37.9916 60.3276 38.1441 62.3102 36.9087 57.9211C34.697 50.0638 30.367 45.3135 20.8637 43.5345C24.3496 27.0736 52.5598 -7.94538 52.4699 19.4251L52.4902 42.4356C52.462 46.3198 50.8953 46.5004 46.0868 51.301C44.3774 53.0078 42.7878 53.5937 43.5606 55.913C45.7819 56.2161 50.6274 50.2101 53.4727 47.4688C54.6596 46.3251 62.8244 38.4273 63.1822 37.8122C64.1955 36.0693 64.1338 2.4223 63.2729 0.0660868L61.6754 0.026439C59.995 2.98448 61.6357 28.8271 61.0841 34.2479L60.4726 36.3248L60.4664 36.3275Z" fill="#00419E"/>
<path fill-rule="evenodd" clip-rule="evenodd" d="M46.5225 88.518C47.8116 85.6348 42.255 82.3199 41.9043 79.5751C41.4664 76.1465 45.7277 71.9734 43.8041 68.9043C41.3994 69.0347 41.8611 69.7334 41.0795 72.3381C40.6751 73.6846 40.1825 75.3253 39.7807 76.6629C38.1109 82.2177 34.6198 78.7266 34.5942 83.2504C36.2543 83.684 35.9248 83.4187 37.6263 82.905C37.5126 84.6082 37.4712 84.9775 38.1894 85.9714C40.7068 85.5167 39.5437 85.1837 40.7412 83.246C42.9027 85.0524 43.9345 89.1832 46.5207 88.518H46.5225Z" fill="#00419E"/>
<path fill-rule="evenodd" clip-rule="evenodd" d="M46.5225 88.518C47.8116 85.6348 42.255 82.3199 41.9043 79.5751C41.4664 76.1465 45.7277 71.9734 43.8041 68.9043C41.3994 69.0347 41.8611 69.7334 41.0795 72.3381C40.6751 73.6846 40.1825 75.3253 39.7807 76.6629C38.1109 82.2177 34.6198 78.7266 34.5942 83.2504C36.2543 83.684 35.9248 83.4187 37.6263 82.905C37.5126 84.6082 37.4712 84.9775 38.1894 85.9714C40.7068 85.5167 39.5437 85.1837 40.7412 83.246C42.9027 85.0524 43.9345 89.1832 46.5207 88.518H46.5225Z" fill="#00419E"/>
<path fill-rule="evenodd" clip-rule="evenodd" d="M46.5225 88.518C47.8116 85.6348 42.255 82.3199 41.9043 79.5751C41.4664 76.1465 45.7277 71.9734 43.8041 68.9043C41.3994 69.0347 41.8611 69.7334 41.0795 72.3381C40.6751 73.6846 40.1825 75.3253 39.7807 76.6629C38.1109 82.2177 34.6198 78.7266 34.5942 83.2504C36.2543 83.684 35.9248 83.4187 37.6263 82.905C37.5126 84.6082 37.4712 84.9775 38.1894 85.9714C40.7068 85.5167 39.5437 85.1837 40.7412 83.246C42.9027 85.0524 43.9345 89.1832 46.5207 88.518H46.5225Z" fill="#00419E"/>
<path fill-rule="evenodd" clip-rule="evenodd" d="M46.5225 88.518C47.8116 85.6348 42.255 82.3199 41.9043 79.5751C41.4664 76.1465 45.7277 71.9734 43.8041 68.9043C41.3994 69.0347 41.8611 69.7334 41.0795 72.3381C40.6751 73.6846 40.1825 75.3253 39.7807 76.6629C38.1109 82.2177 34.6198 78.7266 34.5942 83.2504C36.2543 83.684 35.9248 83.4187 37.6263 82.905C37.5126 84.6082 37.4712 84.9775 38.1894 85.9714C40.7068 85.5167 39.5437 85.1837 40.7412 83.246C42.9027 85.0524 43.9345 89.1832 46.5207 88.518H46.5225Z" fill="#00419E"/>
<path fill-rule="evenodd" clip-rule="evenodd" d="M46.5225 88.518C47.8116 85.6348 42.255 82.3199 41.9043 79.5751C41.4664 76.1465 45.7277 71.9734 43.8041 68.9043C41.3994 69.0347 41.8611 69.7334 41.0795 72.3381C40.6751 73.6846 40.1825 75.3253 39.7807 76.6629C38.1109 82.2177 34.6198 78.7266 34.5942 83.2504C36.2543 83.684 35.9248 83.4187 37.6263 82.905C37.5126 84.6082 37.4712 84.9775 38.1894 85.9714C40.7068 85.5167 39.5437 85.1837 40.7412 83.246C42.9027 85.0524 43.9345 89.1832 46.5207 88.518H46.5225Z" fill="#00419E"/>
<path fill-rule="evenodd" clip-rule="evenodd" d="M46.5225 88.518C47.8116 85.6348 42.255 82.3199 41.9043 79.5751C41.4664 76.1465 45.7277 71.9734 43.8041 68.9043C41.3994 69.0347 41.8611 69.7334 41.0795 72.3381C40.6751 73.6846 40.1825 75.3253 39.7807 76.6629C38.1109 82.2177 34.6198 78.7266 34.5942 83.2504C36.2543 83.684 35.9248 83.4187 37.6263 82.905C37.5126 84.6082 37.4712 84.9775 38.1894 85.9714C40.7068 85.5167 39.5437 85.1837 40.7412 83.246C42.9027 85.0524 43.9345 89.1832 46.5207 88.518H46.5225Z" fill="#00419E"/>
<path fill-rule="evenodd" clip-rule="evenodd" d="M33.0874 44.8719C32.0608 43.8489 29.8051 40.4441 27.1581 41.0178C27.0206 43.1766 30.666 46.2166 33.2442 48.8794C34.2937 49.9632 38.4642 54.9418 39.8256 55.0652C42.6585 55.3225 40.3331 55.3938 41.3024 54.5488C41.9783 52.6904 37.1619 49.7042 36.1891 47.963C34.5986 45.1151 38.5136 40.1956 36.1503 37.4429C32.4715 37.9064 35.1202 41.6513 33.0883 44.8719H33.0874Z" fill="#00419E"/>
<path fill-rule="evenodd" clip-rule="evenodd" d="M33.0874 44.8719C32.0608 43.8489 29.8051 40.4441 27.1581 41.0178C27.0206 43.1766 30.666 46.2166 33.2442 48.8794C34.2937 49.9632 38.4642 54.9418 39.8256 55.0652C42.6585 55.3225 40.3331 55.3938 41.3024 54.5488C41.9783 52.6904 37.1619 49.7042 36.1891 47.963C34.5986 45.1151 38.5136 40.1956 36.1503 37.4429C32.4715 37.9064 35.1202 41.6513 33.0883 44.8719H33.0874Z" fill="#00419E"/>
<path fill-rule="evenodd" clip-rule="evenodd" d="M33.0874 44.8719C32.0608 43.8489 29.8051 40.4441 27.1581 41.0178C27.0206 43.1766 30.666 46.2166 33.2442 48.8794C34.2937 49.9632 38.4642 54.9418 39.8256 55.0652C42.6585 55.3225 40.3331 55.3938 41.3024 54.5488C41.9783 52.6904 37.1619 49.7042 36.1891 47.963C34.5986 45.1151 38.5136 40.1956 36.1503 37.4429C32.4715 37.9064 35.1202 41.6513 33.0883 44.8719H33.0874Z" fill="#00419E"/>
<path fill-rule="evenodd" clip-rule="evenodd" d="M33.0874 44.8719C32.0608 43.8489 29.8051 40.4441 27.1581 41.0178C27.0206 43.1766 30.666 46.2166 33.2442 48.8794C34.2937 49.9632 38.4642 54.9418 39.8256 55.0652C42.6585 55.3225 40.3331 55.3938 41.3024 54.5488C41.9783 52.6904 37.1619 49.7042 36.1891 47.963C34.5986 45.1151 38.5136 40.1956 36.1503 37.4429C32.4715 37.9064 35.1202 41.6513 33.0883 44.8719H33.0874Z" fill="#00419E"/>
<path fill-rule="evenodd" clip-rule="evenodd" d="M33.0874 44.8719C32.0608 43.8489 29.8051 40.4441 27.1581 41.0178C27.0206 43.1766 30.666 46.2166 33.2442 48.8794C34.2937 49.9632 38.4642 54.9418 39.8256 55.0652C42.6585 55.3225 40.3331 55.3938 41.3024 54.5488C41.9783 52.6904 37.1619 49.7042 36.1891 47.963C34.5986 45.1151 38.5136 40.1956 36.1503 37.4429C32.4715 37.9064 35.1202 41.6513 33.0883 44.8719H33.0874Z" fill="#00419E"/>
<path fill-rule="evenodd" clip-rule="evenodd" d="M33.0874 44.8719C32.0608 43.8489 29.8051 40.4441 27.1581 41.0178C27.0206 43.1766 30.666 46.2166 33.2442 48.8794C34.2937 49.9632 38.4642 54.9418 39.8256 55.0652C42.6585 55.3225 40.3331 55.3938 41.3024 54.5488C41.9783 52.6904 37.1619 49.7042 36.1891 47.963C34.5986 45.1151 38.5136 40.1956 36.1503 37.4429C32.4715 37.9064 35.1202 41.6513 33.0883 44.8719H33.0874Z" fill="#00419E"/>
<path fill-rule="evenodd" clip-rule="evenodd" d="M98.4803 48.1046L93.8234 52.6293C92.6277 54.1141 92.7713 52.9122 93.0929 54.8173C95.487 55.9892 97.4274 52.1447 101.194 48.747C103.04 47.0825 107.789 43.5482 107.109 40.8395C103.829 40.7249 103.767 43.5103 101.016 44.9703C100.757 43.49 100.533 42.0898 100.305 40.5196C99.9105 37.795 100.261 37.4743 97.9243 37.4268C96.7101 40.2394 98.7597 44.5932 98.4803 48.1037V48.1046Z" fill="#00419E"/>
<path fill-rule="evenodd" clip-rule="evenodd" d="M98.4803 48.1046L93.8234 52.6293C92.6277 54.1141 92.7713 52.9122 93.0929 54.8173C95.487 55.9892 97.4274 52.1447 101.194 48.747C103.04 47.0825 107.789 43.5482 107.109 40.8395C103.829 40.7249 103.767 43.5103 101.016 44.9703C100.757 43.49 100.533 42.0898 100.305 40.5196C99.9105 37.795 100.261 37.4743 97.9243 37.4268C96.7101 40.2394 98.7597 44.5932 98.4803 48.1037V48.1046Z" fill="#00419E"/>
<path fill-rule="evenodd" clip-rule="evenodd" d="M98.4803 48.1046L93.8234 52.6293C92.6277 54.1141 92.7713 52.9122 93.0929 54.8173C95.487 55.9892 97.4274 52.1447 101.194 48.747C103.04 47.0825 107.789 43.5482 107.109 40.8395C103.829 40.7249 103.767 43.5103 101.016 44.9703C100.757 43.49 100.533 42.0898 100.305 40.5196C99.9105 37.795 100.261 37.4743 97.9243 37.4268C96.7101 40.2394 98.7597 44.5932 98.4803 48.1037V48.1046Z" fill="#00419E"/>
<path fill-rule="evenodd" clip-rule="evenodd" d="M98.4803 48.1046L93.8234 52.6293C92.6277 54.1141 92.7713 52.9122 93.0929 54.8173C95.487 55.9892 97.4274 52.1447 101.194 48.747C103.04 47.0825 107.789 43.5482 107.109 40.8395C103.829 40.7249 103.767 43.5103 101.016 44.9703C100.757 43.49 100.533 42.0898 100.305 40.5196C99.9105 37.795 100.261 37.4743 97.9243 37.4268C96.7101 40.2394 98.7597 44.5932 98.4803 48.1037V48.1046Z" fill="#00419E"/>
<path fill-rule="evenodd" clip-rule="evenodd" d="M98.4803 48.1046L93.8234 52.6293C92.6277 54.1141 92.7713 52.9122 93.0929 54.8173C95.487 55.9892 97.4274 52.1447 101.194 48.747C103.04 47.0825 107.789 43.5482 107.109 40.8395C103.829 40.7249 103.767 43.5103 101.016 44.9703C100.757 43.49 100.533 42.0898 100.305 40.5196C99.9105 37.795 100.261 37.4743 97.9243 37.4268C96.7101 40.2394 98.7597 44.5932 98.4803 48.1037V48.1046Z" fill="#00419E"/>
<path fill-rule="evenodd" clip-rule="evenodd" d="M98.4803 48.1046L93.8234 52.6293C92.6277 54.1141 92.7713 52.9122 93.0929 54.8173C95.487 55.9892 97.4274 52.1447 101.194 48.747C103.04 47.0825 107.789 43.5482 107.109 40.8395C103.829 40.7249 103.767 43.5103 101.016 44.9703C100.757 43.49 100.533 42.0898 100.305 40.5196C99.9105 37.795 100.261 37.4743 97.9243 37.4268C96.7101 40.2394 98.7597 44.5932 98.4803 48.1037V48.1046Z" fill="#00419E"/>
<path fill-rule="evenodd" clip-rule="evenodd" d="M89.8025 43.5575C89.8509 43.4429 89.8959 43.1283 89.902 43.1979L88.8279 37.2122C88.1424 32.4064 89.1143 27.7477 91.311 23.5323C92.4812 21.2862 94.2964 20.1037 93.684 17.5933C86.1386 17.2038 83.185 46.0264 89.8034 43.5566L89.8025 43.5575Z" fill="#00419E"/>
<path fill-rule="evenodd" clip-rule="evenodd" d="M89.8025 43.5575C89.8509 43.4429 89.8959 43.1283 89.902 43.1979L88.8279 37.2122C88.1424 32.4064 89.1143 27.7477 91.311 23.5323C92.4812 21.2862 94.2964 20.1037 93.684 17.5933C86.1386 17.2038 83.185 46.0264 89.8034 43.5566L89.8025 43.5575Z" fill="#00419E"/>
<path fill-rule="evenodd" clip-rule="evenodd" d="M89.8025 43.5575C89.8509 43.4429 89.8959 43.1283 89.902 43.1979L88.8279 37.2122C88.1424 32.4064 89.1143 27.7477 91.311 23.5323C92.4812 21.2862 94.2964 20.1037 93.684 17.5933C86.1386 17.2038 83.185 46.0264 89.8034 43.5566L89.8025 43.5575Z" fill="#00419E"/>
<path fill-rule="evenodd" clip-rule="evenodd" d="M89.8025 43.5575C89.8509 43.4429 89.8959 43.1283 89.902 43.1979L88.8279 37.2122C88.1424 32.4064 89.1143 27.7477 91.311 23.5323C92.4812 21.2862 94.2964 20.1037 93.684 17.5933C86.1386 17.2038 83.185 46.0264 89.8034 43.5566L89.8025 43.5575Z" fill="#00419E"/>
<path fill-rule="evenodd" clip-rule="evenodd" d="M89.8025 43.5575C89.8509 43.4429 89.8959 43.1283 89.902 43.1979L88.8279 37.2122C88.1424 32.4064 89.1143 27.7477 91.311 23.5323C92.4812 21.2862 94.2964 20.1037 93.684 17.5933C86.1386 17.2038 83.185 46.0264 89.8034 43.5566L89.8025 43.5575Z" fill="#00419E"/>
<path fill-rule="evenodd" clip-rule="evenodd" d="M89.8025 43.5575C89.8509 43.4429 89.8959 43.1283 89.902 43.1979L88.8279 37.2122C88.1424 32.4064 89.1143 27.7477 91.311 23.5323C92.4812 21.2862 94.2964 20.1037 93.684 17.5933C86.1386 17.2038 83.185 46.0264 89.8034 43.5566L89.8025 43.5575Z" fill="#00419E"/>
<path fill-rule="evenodd" clip-rule="evenodd" d="M109.463 61.4192C110.49 58.9291 111.415 60.5125 111.011 57.9413C110.59 57.7756 110.62 57.6725 109.738 57.7809L108.992 57.9836C108.776 58.0761 107.769 59.0295 107.58 59.2163C103.848 62.8978 100.721 58.6603 96.4646 60.1944C96.6267 64.2019 99.0984 61.7488 104.473 63.3701C108.038 64.4451 107.421 68.2253 110.999 67.745C111.283 65.7254 110.694 65.7316 110.02 64.1658C112.617 64.4319 112.764 65.1201 114.078 63.3243C113.159 61.198 111.932 61.7215 109.464 61.4201L109.463 61.4192Z" fill="#00419E"/>
<path fill-rule="evenodd" clip-rule="evenodd" d="M109.463 61.4192C110.49 58.9291 111.415 60.5125 111.011 57.9413C110.59 57.7756 110.62 57.6725 109.738 57.7809L108.992 57.9836C108.776 58.0761 107.769 59.0295 107.58 59.2163C103.848 62.8978 100.721 58.6603 96.4646 60.1944C96.6267 64.2019 99.0984 61.7488 104.473 63.3701C108.038 64.4451 107.421 68.2253 110.999 67.745C111.283 65.7254 110.694 65.7316 110.02 64.1658C112.617 64.4319 112.764 65.1201 114.078 63.3243C113.159 61.198 111.932 61.7215 109.464 61.4201L109.463 61.4192Z" fill="#00419E"/>
<path fill-rule="evenodd" clip-rule="evenodd" d="M109.463 61.4192C110.49 58.9291 111.415 60.5125 111.011 57.9413C110.59 57.7756 110.62 57.6725 109.738 57.7809L108.992 57.9836C108.776 58.0761 107.769 59.0295 107.58 59.2163C103.848 62.8978 100.721 58.6603 96.4646 60.1944C96.6267 64.2019 99.0984 61.7488 104.473 63.3701C108.038 64.4451 107.421 68.2253 110.999 67.745C111.283 65.7254 110.694 65.7316 110.02 64.1658C112.617 64.4319 112.764 65.1201 114.078 63.3243C113.159 61.198 111.932 61.7215 109.464 61.4201L109.463 61.4192Z" fill="#00419E"/>
<path fill-rule="evenodd" clip-rule="evenodd" d="M109.463 61.4192C110.49 58.9291 111.415 60.5125 111.011 57.9413C110.59 57.7756 110.62 57.6725 109.738 57.7809L108.992 57.9836C108.776 58.0761 107.769 59.0295 107.58 59.2163C103.848 62.8978 100.721 58.6603 96.4646 60.1944C96.6267 64.2019 99.0984 61.7488 104.473 63.3701C108.038 64.4451 107.421 68.2253 110.999 67.745C111.283 65.7254 110.694 65.7316 110.02 64.1658C112.617 64.4319 112.764 65.1201 114.078 63.3243C113.159 61.198 111.932 61.7215 109.464 61.4201L109.463 61.4192Z" fill="#00419E"/>
<path fill-rule="evenodd" clip-rule="evenodd" d="M109.463 61.4192C110.49 58.9291 111.415 60.5125 111.011 57.9413C110.59 57.7756 110.62 57.6725 109.738 57.7809L108.992 57.9836C108.776 58.0761 107.769 59.0295 107.58 59.2163C103.848 62.8978 100.721 58.6603 96.4646 60.1944C96.6267 64.2019 99.0984 61.7488 104.473 63.3701C108.038 64.4451 107.421 68.2253 110.999 67.745C111.283 65.7254 110.694 65.7316 110.02 64.1658C112.617 64.4319 112.764 65.1201 114.078 63.3243C113.159 61.198 111.932 61.7215 109.464 61.4201L109.463 61.4192Z" fill="#00419E"/>
<path fill-rule="evenodd" clip-rule="evenodd" d="M109.463 61.4192C110.49 58.9291 111.415 60.5125 111.011 57.9413C110.59 57.7756 110.62 57.6725 109.738 57.7809L108.992 57.9836C108.776 58.0761 107.769 59.0295 107.58 59.2163C103.848 62.8978 100.721 58.6603 96.4646 60.1944C96.6267 64.2019 99.0984 61.7488 104.473 63.3701C108.038 64.4451 107.421 68.2253 110.999 67.745C111.283 65.7254 110.694 65.7316 110.02 64.1658C112.617 64.4319 112.764 65.1201 114.078 63.3243C113.159 61.198 111.932 61.7215 109.464 61.4201L109.463 61.4192Z" fill="#00419E"/>
<path fill-rule="evenodd" clip-rule="evenodd" d="M50.3524 42.833C50.5973 39.0185 46.6198 40.5041 44.8337 33.7333C43.7578 29.6526 45.9501 22.7814 44.9897 20.8032C41.0148 20.3573 41.6633 31.407 42.1779 33.8496C43.0009 37.7522 46.4806 43.4092 50.3515 42.8321L50.3524 42.833Z" fill="#00419E"/>
<path fill-rule="evenodd" clip-rule="evenodd" d="M50.3524 42.833C50.5973 39.0185 46.6198 40.5041 44.8337 33.7333C43.7578 29.6526 45.9501 22.7814 44.9897 20.8032C41.0148 20.3573 41.6633 31.407 42.1779 33.8496C43.0009 37.7522 46.4806 43.4092 50.3515 42.8321L50.3524 42.833Z" fill="#00419E"/>
<path fill-rule="evenodd" clip-rule="evenodd" d="M50.3524 42.833C50.5973 39.0185 46.6198 40.5041 44.8337 33.7333C43.7578 29.6526 45.9501 22.7814 44.9897 20.8032C41.0148 20.3573 41.6633 31.407 42.1779 33.8496C43.0009 37.7522 46.4806 43.4092 50.3515 42.8321L50.3524 42.833Z" fill="#00419E"/>
<path fill-rule="evenodd" clip-rule="evenodd" d="M50.3524 42.833C50.5973 39.0185 46.6198 40.5041 44.8337 33.7333C43.7578 29.6526 45.9501 22.7814 44.9897 20.8032C41.0148 20.3573 41.6633 31.407 42.1779 33.8496C43.0009 37.7522 46.4806 43.4092 50.3515 42.8321L50.3524 42.833Z" fill="#00419E"/>
<path fill-rule="evenodd" clip-rule="evenodd" d="M50.3524 42.833C50.5973 39.0185 46.6198 40.5041 44.8337 33.7333C43.7578 29.6526 45.9501 22.7814 44.9897 20.8032C41.0148 20.3573 41.6633 31.407 42.1779 33.8496C43.0009 37.7522 46.4806 43.4092 50.3515 42.8321L50.3524 42.833Z" fill="#00419E"/>
<path fill-rule="evenodd" clip-rule="evenodd" d="M50.3524 42.833C50.5973 39.0185 46.6198 40.5041 44.8337 33.7333C43.7578 29.6526 45.9501 22.7814 44.9897 20.8032C41.0148 20.3573 41.6633 31.407 42.1779 33.8496C43.0009 37.7522 46.4806 43.4092 50.3515 42.8321L50.3524 42.833Z" fill="#00419E"/>
<path fill-rule="evenodd" clip-rule="evenodd" d="M50.2347 95.9873C49.417 92.2997 40.7323 94.1193 38.0694 95.3723C35.492 96.5856 31.2898 100.738 31.2739 104.339C31.2695 105.259 32.2987 108.273 34.2646 103.344C38.317 93.1835 47.9225 98.3303 50.2347 95.9873Z" fill="#00419E"/>
<path fill-rule="evenodd" clip-rule="evenodd" d="M50.2347 95.9873C49.417 92.2997 40.7323 94.1193 38.0694 95.3723C35.492 96.5856 31.2898 100.738 31.2739 104.339C31.2695 105.259 32.2987 108.273 34.2646 103.344C38.317 93.1835 47.9225 98.3303 50.2347 95.9873Z" fill="#00419E"/>
<path fill-rule="evenodd" clip-rule="evenodd" d="M50.2347 95.9873C49.417 92.2997 40.7323 94.1193 38.0694 95.3723C35.492 96.5856 31.2898 100.738 31.2739 104.339C31.2695 105.259 32.2987 108.273 34.2646 103.344C38.317 93.1835 47.9225 98.3303 50.2347 95.9873Z" fill="#00419E"/>
<path fill-rule="evenodd" clip-rule="evenodd" d="M50.2347 95.9873C49.417 92.2997 40.7323 94.1193 38.0694 95.3723C35.492 96.5856 31.2898 100.738 31.2739 104.339C31.2695 105.259 32.2987 108.273 34.2646 103.344C38.317 93.1835 47.9225 98.3303 50.2347 95.9873Z" fill="#00419E"/>
<path fill-rule="evenodd" clip-rule="evenodd" d="M50.2347 95.9873C49.417 92.2997 40.7323 94.1193 38.0694 95.3723C35.492 96.5856 31.2898 100.738 31.2739 104.339C31.2695 105.259 32.2987 108.273 34.2646 103.344C38.317 93.1835 47.9225 98.3303 50.2347 95.9873Z" fill="#00419E"/>
<path fill-rule="evenodd" clip-rule="evenodd" d="M50.2347 95.9873C49.417 92.2997 40.7323 94.1193 38.0694 95.3723C35.492 96.5856 31.2898 100.738 31.2739 104.339C31.2695 105.259 32.2987 108.273 34.2646 103.344C38.317 93.1835 47.9225 98.3303 50.2347 95.9873Z" fill="#00419E"/>
<path fill-rule="evenodd" clip-rule="evenodd" d="M18.0641 90.5789C20.4696 90.8362 22.1923 87.6614 24.0991 87.0287C24.3855 89.7109 23.6762 92.6892 24.9212 94.6005C27.4272 94.3088 26.8104 93.7281 26.8104 90.8829L26.4527 82.7304C24.4057 82.5674 24.2683 82.926 23.1448 83.9931C20.1683 86.8225 16.9415 87.7962 18.0641 90.5771V90.5789Z" fill="#00419E"/>
<path fill-rule="evenodd" clip-rule="evenodd" d="M18.0641 90.5789C20.4696 90.8362 22.1923 87.6614 24.0991 87.0287C24.3855 89.7109 23.6762 92.6892 24.9212 94.6005C27.4272 94.3088 26.8104 93.7281 26.8104 90.8829L26.4527 82.7304C24.4057 82.5674 24.2683 82.926 23.1448 83.9931C20.1683 86.8225 16.9415 87.7962 18.0641 90.5771V90.5789Z" fill="#00419E"/>
<path fill-rule="evenodd" clip-rule="evenodd" d="M18.0641 90.5789C20.4696 90.8362 22.1923 87.6614 24.0991 87.0287C24.3855 89.7109 23.6762 92.6892 24.9212 94.6005C27.4272 94.3088 26.8104 93.7281 26.8104 90.8829L26.4527 82.7304C24.4057 82.5674 24.2683 82.926 23.1448 83.9931C20.1683 86.8225 16.9415 87.7962 18.0641 90.5771V90.5789Z" fill="#00419E"/>
<path fill-rule="evenodd" clip-rule="evenodd" d="M18.0641 90.5789C20.4696 90.8362 22.1923 87.6614 24.0991 87.0287C24.3855 89.7109 23.6762 92.6892 24.9212 94.6005C27.4272 94.3088 26.8104 93.7281 26.8104 90.8829L26.4527 82.7304C24.4057 82.5674 24.2683 82.926 23.1448 83.9931C20.1683 86.8225 16.9415 87.7962 18.0641 90.5771V90.5789Z" fill="#00419E"/>
<path fill-rule="evenodd" clip-rule="evenodd" d="M18.0641 90.5789C20.4696 90.8362 22.1923 87.6614 24.0991 87.0287C24.3855 89.7109 23.6762 92.6892 24.9212 94.6005C27.4272 94.3088 26.8104 93.7281 26.8104 90.8829L26.4527 82.7304C24.4057 82.5674 24.2683 82.926 23.1448 83.9931C20.1683 86.8225 16.9415 87.7962 18.0641 90.5771V90.5789Z" fill="#00419E"/>
<path fill-rule="evenodd" clip-rule="evenodd" d="M18.0641 90.5789C20.4696 90.8362 22.1923 87.6614 24.0991 87.0287C24.3855 89.7109 23.6762 92.6892 24.9212 94.6005C27.4272 94.3088 26.8104 93.7281 26.8104 90.8829L26.4527 82.7304C24.4057 82.5674 24.2683 82.926 23.1448 83.9931C20.1683 86.8225 16.9415 87.7962 18.0641 90.5771V90.5789Z" fill="#00419E"/>
<path fill-rule="evenodd" clip-rule="evenodd" d="M117.195 81.3202C114.232 75.8376 118.902 73.173 117.302 70.3965C112.709 70.6397 113.232 79.5623 114.833 82.6111C116.74 86.2441 117.87 84.5937 118.041 84.5311L117.196 81.3202H117.195Z" fill="#00419E"/>
<path fill-rule="evenodd" clip-rule="evenodd" d="M117.195 81.3202C114.232 75.8376 118.902 73.173 117.302 70.3965C112.709 70.6397 113.232 79.5623 114.833 82.6111C116.74 86.2441 117.87 84.5937 118.041 84.5311L117.196 81.3202H117.195Z" fill="#00419E"/>
<path fill-rule="evenodd" clip-rule="evenodd" d="M117.195 81.3202C114.232 75.8376 118.902 73.173 117.302 70.3965C112.709 70.6397 113.232 79.5623 114.833 82.6111C116.74 86.2441 117.87 84.5937 118.041 84.5311L117.196 81.3202H117.195Z" fill="#00419E"/>
<path fill-rule="evenodd" clip-rule="evenodd" d="M117.195 81.3202C114.232 75.8376 118.902 73.173 117.302 70.3965C112.709 70.6397 113.232 79.5623 114.833 82.6111C116.74 86.2441 117.87 84.5937 118.041 84.5311L117.196 81.3202H117.195Z" fill="#00419E"/>
<path fill-rule="evenodd" clip-rule="evenodd" d="M117.195 81.3202C114.232 75.8376 118.902 73.173 117.302 70.3965C112.709 70.6397 113.232 79.5623 114.833 82.6111C116.74 86.2441 117.87 84.5937 118.041 84.5311L117.196 81.3202H117.195Z" fill="#00419E"/>
<path fill-rule="evenodd" clip-rule="evenodd" d="M117.195 81.3202C114.232 75.8376 118.902 73.173 117.302 70.3965C112.709 70.6397 113.232 79.5623 114.833 82.6111C116.74 86.2441 117.87 84.5937 118.041 84.5311L117.196 81.3202H117.195Z" fill="#00419E"/>
<path fill-rule="evenodd" clip-rule="evenodd" d="M27.6808 105.887C29.4854 100.725 22.0405 95.7708 16.9571 96.6635C16.35 100.005 20.4368 98.7192 23.1666 100.806C25.9661 102.945 24.5034 106.164 27.6799 105.887H27.6808Z" fill="#00419E"/>
<path fill-rule="evenodd" clip-rule="evenodd" d="M27.6808 105.887C29.4854 100.725 22.0405 95.7708 16.9571 96.6635C16.35 100.005 20.4368 98.7192 23.1666 100.806C25.9661 102.945 24.5034 106.164 27.6799 105.887H27.6808Z" fill="#00419E"/>
<path fill-rule="evenodd" clip-rule="evenodd" d="M27.6808 105.887C29.4854 100.725 22.0405 95.7708 16.9571 96.6635C16.35 100.005 20.4368 98.7192 23.1666 100.806C25.9661 102.945 24.5034 106.164 27.6799 105.887H27.6808Z" fill="#00419E"/>
<path fill-rule="evenodd" clip-rule="evenodd" d="M27.6808 105.887C29.4854 100.725 22.0405 95.7708 16.9571 96.6635C16.35 100.005 20.4368 98.7192 23.1666 100.806C25.9661 102.945 24.5034 106.164 27.6799 105.887H27.6808Z" fill="#00419E"/>
<path fill-rule="evenodd" clip-rule="evenodd" d="M27.6808 105.887C29.4854 100.725 22.0405 95.7708 16.9571 96.6635C16.35 100.005 20.4368 98.7192 23.1666 100.806C25.9661 102.945 24.5034 106.164 27.6799 105.887H27.6808Z" fill="#00419E"/>
<path fill-rule="evenodd" clip-rule="evenodd" d="M27.6808 105.887C29.4854 100.725 22.0405 95.7708 16.9571 96.6635C16.35 100.005 20.4368 98.7192 23.1666 100.806C25.9661 102.945 24.5034 106.164 27.6799 105.887H27.6808Z" fill="#00419E"/>
<path fill-rule="evenodd" clip-rule="evenodd" d="M99.9542 82.7226C100.958 81.4158 100.214 79.3222 98.0121 80.7338C93.98 83.3191 93.8125 87.539 96.7406 85.6789C96.9336 85.5564 99.9339 82.7499 99.9542 82.7235V82.7226Z" fill="#00419E"/>
<path fill-rule="evenodd" clip-rule="evenodd" d="M99.9542 82.7226C100.958 81.4158 100.214 79.3222 98.0121 80.7338C93.98 83.3191 93.8125 87.539 96.7406 85.6789C96.9336 85.5564 99.9339 82.7499 99.9542 82.7235V82.7226Z" fill="#00419E"/>
<path fill-rule="evenodd" clip-rule="evenodd" d="M99.9542 82.7226C100.958 81.4158 100.214 79.3222 98.0121 80.7338C93.98 83.3191 93.8125 87.539 96.7406 85.6789C96.9336 85.5564 99.9339 82.7499 99.9542 82.7235V82.7226Z" fill="#00419E"/>
<path fill-rule="evenodd" clip-rule="evenodd" d="M99.9542 82.7226C100.958 81.4158 100.214 79.3222 98.0121 80.7338C93.98 83.3191 93.8125 87.539 96.7406 85.6789C96.9336 85.5564 99.9339 82.7499 99.9542 82.7235V82.7226Z" fill="#00419E"/>
<path fill-rule="evenodd" clip-rule="evenodd" d="M99.9542 82.7226C100.958 81.4158 100.214 79.3222 98.0121 80.7338C93.98 83.3191 93.8125 87.539 96.7406 85.6789C96.9336 85.5564 99.9339 82.7499 99.9542 82.7235V82.7226Z" fill="#00419E"/>
<path fill-rule="evenodd" clip-rule="evenodd" d="M99.9542 82.7226C100.958 81.4158 100.214 79.3222 98.0121 80.7338C93.98 83.3191 93.8125 87.539 96.7406 85.6789C96.9336 85.5564 99.9339 82.7499 99.9542 82.7235V82.7226Z" fill="#00419E"/>
<path fill-rule="evenodd" clip-rule="evenodd" d="M24.764 24.4806C25.1932 19.2104 14.9867 16.4357 20.8367 22.491C22.0007 23.6955 22.3162 24.9327 24.764 24.4806Z" fill="#00419E"/>
<path fill-rule="evenodd" clip-rule="evenodd" d="M24.764 24.4806C25.1932 19.2104 14.9867 16.4357 20.8367 22.491C22.0007 23.6955 22.3162 24.9327 24.764 24.4806Z" fill="#00419E"/>
<path fill-rule="evenodd" clip-rule="evenodd" d="M24.764 24.4806C25.1932 19.2104 14.9867 16.4357 20.8367 22.491C22.0007 23.6955 22.3162 24.9327 24.764 24.4806Z" fill="#00419E"/>
<path fill-rule="evenodd" clip-rule="evenodd" d="M24.764 24.4806C25.1932 19.2104 14.9867 16.4357 20.8367 22.491C22.0007 23.6955 22.3162 24.9327 24.764 24.4806Z" fill="#00419E"/>
<path fill-rule="evenodd" clip-rule="evenodd" d="M24.764 24.4806C25.1932 19.2104 14.9867 16.4357 20.8367 22.491C22.0007 23.6955 22.3162 24.9327 24.764 24.4806Z" fill="#00419E"/>
<path fill-rule="evenodd" clip-rule="evenodd" d="M24.764 24.4806C25.1932 19.2104 14.9867 16.4357 20.8367 22.491C22.0007 23.6955 22.3162 24.9327 24.764 24.4806Z" fill="#00419E"/>
<path fill-rule="evenodd" clip-rule="evenodd" d="M19.0583 13.556C20.9687 14.6857 21.5 13.6777 22.6209 12.5339C23.4359 11.7021 25.46 10.3883 24.6731 8.94053C23.4659 6.71737 19.1042 11.8078 19.0583 13.556Z" fill="#00419E"/>
<path fill-rule="evenodd" clip-rule="evenodd" d="M19.0583 13.556C20.9687 14.6857 21.5 13.6777 22.6209 12.5339C23.4359 11.7021 25.46 10.3883 24.6731 8.94053C23.4659 6.71737 19.1042 11.8078 19.0583 13.556Z" fill="#00419E"/>
<path fill-rule="evenodd" clip-rule="evenodd" d="M19.0583 13.556C20.9687 14.6857 21.5 13.6777 22.6209 12.5339C23.4359 11.7021 25.46 10.3883 24.6731 8.94053C23.4659 6.71737 19.1042 11.8078 19.0583 13.556Z" fill="#00419E"/>
<path fill-rule="evenodd" clip-rule="evenodd" d="M19.0583 13.556C20.9687 14.6857 21.5 13.6777 22.6209 12.5339C23.4359 11.7021 25.46 10.3883 24.6731 8.94053C23.4659 6.71737 19.1042 11.8078 19.0583 13.556Z" fill="#00419E"/>
<path fill-rule="evenodd" clip-rule="evenodd" d="M19.0583 13.556C20.9687 14.6857 21.5 13.6777 22.6209 12.5339C23.4359 11.7021 25.46 10.3883 24.6731 8.94053C23.4659 6.71737 19.1042 11.8078 19.0583 13.556Z" fill="#00419E"/>
<path fill-rule="evenodd" clip-rule="evenodd" d="M19.0583 13.556C20.9687 14.6857 21.5 13.6777 22.6209 12.5339C23.4359 11.7021 25.46 10.3883 24.6731 8.94053C23.4659 6.71737 19.1042 11.8078 19.0583 13.556Z" fill="#00419E"/>
<path fill-rule="evenodd" clip-rule="evenodd" d="M18.7974 73.1904C20.4486 72.2898 20.1023 72.9489 20.1332 69.9724C20.1517 68.1581 20.3746 67.3536 19.3084 66.0662L18.288 66.0239C17.3126 67.1932 17.1293 69.8296 17.4976 71.5364C18.0545 74.1182 17.3531 72.444 18.7982 73.1904H18.7974Z" fill="#00419E"/>
<path fill-rule="evenodd" clip-rule="evenodd" d="M18.7974 73.1904C20.4486 72.2898 20.1023 72.9489 20.1332 69.9724C20.1517 68.1581 20.3746 67.3536 19.3084 66.0662L18.288 66.0239C17.3126 67.1932 17.1293 69.8296 17.4976 71.5364C18.0545 74.1182 17.3531 72.444 18.7982 73.1904H18.7974Z" fill="#00419E"/>
<path fill-rule="evenodd" clip-rule="evenodd" d="M18.7974 73.1904C20.4486 72.2898 20.1023 72.9489 20.1332 69.9724C20.1517 68.1581 20.3746 67.3536 19.3084 66.0662L18.288 66.0239C17.3126 67.1932 17.1293 69.8296 17.4976 71.5364C18.0545 74.1182 17.3531 72.444 18.7982 73.1904H18.7974Z" fill="#00419E"/>
<path fill-rule="evenodd" clip-rule="evenodd" d="M18.7974 73.1904C20.4486 72.2898 20.1023 72.9489 20.1332 69.9724C20.1517 68.1581 20.3746 67.3536 19.3084 66.0662L18.288 66.0239C17.3126 67.1932 17.1293 69.8296 17.4976 71.5364C18.0545 74.1182 17.3531 72.444 18.7982 73.1904H18.7974Z" fill="#00419E"/>
<path fill-rule="evenodd" clip-rule="evenodd" d="M18.7974 73.1904C20.4486 72.2898 20.1023 72.9489 20.1332 69.9724C20.1517 68.1581 20.3746 67.3536 19.3084 66.0662L18.288 66.0239C17.3126 67.1932 17.1293 69.8296 17.4976 71.5364C18.0545 74.1182 17.3531 72.444 18.7982 73.1904H18.7974Z" fill="#00419E"/>
<path fill-rule="evenodd" clip-rule="evenodd" d="M18.7974 73.1904C20.4486 72.2898 20.1023 72.9489 20.1332 69.9724C20.1517 68.1581 20.3746 67.3536 19.3084 66.0662L18.288 66.0239C17.3126 67.1932 17.1293 69.8296 17.4976 71.5364C18.0545 74.1182 17.3531 72.444 18.7982 73.1904H18.7974Z" fill="#00419E"/>
<path fill-rule="evenodd" clip-rule="evenodd" d="M8.84596 8.46168C8.18069 10.5597 9.23983 11.0558 10.3298 12.063C11.0171 12.6983 12.6614 15.0025 13.7972 13.8975C15.4194 12.3211 11.159 8.24844 8.84596 8.46168Z" fill="#00419E"/>
<path fill-rule="evenodd" clip-rule="evenodd" d="M8.84596 8.46168C8.18069 10.5597 9.23983 11.0558 10.3298 12.063C11.0171 12.6983 12.6614 15.0025 13.7972 13.8975C15.4194 12.3211 11.159 8.24844 8.84596 8.46168Z" fill="#00419E"/>
<path fill-rule="evenodd" clip-rule="evenodd" d="M8.84596 8.46168C8.18069 10.5597 9.23983 11.0558 10.3298 12.063C11.0171 12.6983 12.6614 15.0025 13.7972 13.8975C15.4194 12.3211 11.159 8.24844 8.84596 8.46168Z" fill="#00419E"/>
<path fill-rule="evenodd" clip-rule="evenodd" d="M8.84596 8.46168C8.18069 10.5597 9.23983 11.0558 10.3298 12.063C11.0171 12.6983 12.6614 15.0025 13.7972 13.8975C15.4194 12.3211 11.159 8.24844 8.84596 8.46168Z" fill="#00419E"/>
<path fill-rule="evenodd" clip-rule="evenodd" d="M8.84596 8.46168C8.18069 10.5597 9.23983 11.0558 10.3298 12.063C11.0171 12.6983 12.6614 15.0025 13.7972 13.8975C15.4194 12.3211 11.159 8.24844 8.84596 8.46168Z" fill="#00419E"/>
<path fill-rule="evenodd" clip-rule="evenodd" d="M8.84596 8.46168C8.18069 10.5597 9.23983 11.0558 10.3298 12.063C11.0171 12.6983 12.6614 15.0025 13.7972 13.8975C15.4194 12.3211 11.159 8.24844 8.84596 8.46168Z" fill="#00419E"/>
<path fill-rule="evenodd" clip-rule="evenodd" d="M15.3446 8.19975C15.3446 11.5675 14.9446 12.8029 17.5493 12.5518C18.2057 10.3215 18.1053 7.12826 17.5651 5.39502C15.134 5.7466 15.3446 5.58976 15.3446 8.19975Z" fill="#00419E"/>
<path fill-rule="evenodd" clip-rule="evenodd" d="M15.3446 8.19975C15.3446 11.5675 14.9446 12.8029 17.5493 12.5518C18.2057 10.3215 18.1053 7.12826 17.5651 5.39502C15.134 5.7466 15.3446 5.58976 15.3446 8.19975Z" fill="#00419E"/>
<path fill-rule="evenodd" clip-rule="evenodd" d="M15.3446 8.19975C15.3446 11.5675 14.9446 12.8029 17.5493 12.5518C18.2057 10.3215 18.1053 7.12826 17.5651 5.39502C15.134 5.7466 15.3446 5.58976 15.3446 8.19975Z" fill="#00419E"/>
<path fill-rule="evenodd" clip-rule="evenodd" d="M15.3446 8.19975C15.3446 11.5675 14.9446 12.8029 17.5493 12.5518C18.2057 10.3215 18.1053 7.12826 17.5651 5.39502C15.134 5.7466 15.3446 5.58976 15.3446 8.19975Z" fill="#00419E"/>
<path fill-rule="evenodd" clip-rule="evenodd" d="M15.3446 8.19975C15.3446 11.5675 14.9446 12.8029 17.5493 12.5518C18.2057 10.3215 18.1053 7.12826 17.5651 5.39502C15.134 5.7466 15.3446 5.58976 15.3446 8.19975Z" fill="#00419E"/>
<path fill-rule="evenodd" clip-rule="evenodd" d="M15.3446 8.19975C15.3446 11.5675 14.9446 12.8029 17.5493 12.5518C18.2057 10.3215 18.1053 7.12826 17.5651 5.39502C15.134 5.7466 15.3446 5.58976 15.3446 8.19975Z" fill="#00419E"/>
<path fill-rule="evenodd" clip-rule="evenodd" d="M8.57157 24.5919C11.1093 24.7541 10.8635 24.2342 12.4161 22.7539C13.7678 21.4656 14.5978 21.2788 13.8638 19.3094C12.0442 18.6529 11.7984 19.5773 10.504 20.8488C9.32762 22.0058 8.50108 22.3106 8.57157 24.5919Z" fill="#00419E"/>
<path fill-rule="evenodd" clip-rule="evenodd" d="M8.57157 24.5919C11.1093 24.7541 10.8635 24.2342 12.4161 22.7539C13.7678 21.4656 14.5978 21.2788 13.8638 19.3094C12.0442 18.6529 11.7984 19.5773 10.504 20.8488C9.32762 22.0058 8.50108 22.3106 8.57157 24.5919Z" fill="#00419E"/>
<path fill-rule="evenodd" clip-rule="evenodd" d="M8.57157 24.5919C11.1093 24.7541 10.8635 24.2342 12.4161 22.7539C13.7678 21.4656 14.5978 21.2788 13.8638 19.3094C12.0442 18.6529 11.7984 19.5773 10.504 20.8488C9.32762 22.0058 8.50108 22.3106 8.57157 24.5919Z" fill="#00419E"/>
<path fill-rule="evenodd" clip-rule="evenodd" d="M8.57157 24.5919C11.1093 24.7541 10.8635 24.2342 12.4161 22.7539C13.7678 21.4656 14.5978 21.2788 13.8638 19.3094C12.0442 18.6529 11.7984 19.5773 10.504 20.8488C9.32762 22.0058 8.50108 22.3106 8.57157 24.5919Z" fill="#00419E"/>
<path fill-rule="evenodd" clip-rule="evenodd" d="M8.57157 24.5919C11.1093 24.7541 10.8635 24.2342 12.4161 22.7539C13.7678 21.4656 14.5978 21.2788 13.8638 19.3094C12.0442 18.6529 11.7984 19.5773 10.504 20.8488C9.32762 22.0058 8.50108 22.3106 8.57157 24.5919Z" fill="#00419E"/>
<path fill-rule="evenodd" clip-rule="evenodd" d="M8.57157 24.5919C11.1093 24.7541 10.8635 24.2342 12.4161 22.7539C13.7678 21.4656 14.5978 21.2788 13.8638 19.3094C12.0442 18.6529 11.7984 19.5773 10.504 20.8488C9.32762 22.0058 8.50108 22.3106 8.57157 24.5919Z" fill="#00419E"/>
<path fill-rule="evenodd" clip-rule="evenodd" d="M84.2735 80.3792C83.6955 82.88 84.3784 82.4447 85.931 83.9779C86.8668 84.9013 88.192 86.7879 89.2794 85.7825C90.624 84.5392 88.7921 83.1725 87.9876 82.4376C86.0253 80.648 86.7963 80.0876 84.2735 80.3801V80.3792Z" fill="#00419E"/>
<path fill-rule="evenodd" clip-rule="evenodd" d="M84.2735 80.3792C83.6955 82.88 84.3784 82.4447 85.931 83.9779C86.8668 84.9013 88.192 86.7879 89.2794 85.7825C90.624 84.5392 88.7921 83.1725 87.9876 82.4376C86.0253 80.648 86.7963 80.0876 84.2735 80.3801V80.3792Z" fill="#00419E"/>
<path fill-rule="evenodd" clip-rule="evenodd" d="M84.2735 80.3792C83.6955 82.88 84.3784 82.4447 85.931 83.9779C86.8668 84.9013 88.192 86.7879 89.2794 85.7825C90.624 84.5392 88.7921 83.1725 87.9876 82.4376C86.0253 80.648 86.7963 80.0876 84.2735 80.3801V80.3792Z" fill="#00419E"/>
<path fill-rule="evenodd" clip-rule="evenodd" d="M84.2735 80.3792C83.6955 82.88 84.3784 82.4447 85.931 83.9779C86.8668 84.9013 88.192 86.7879 89.2794 85.7825C90.624 84.5392 88.7921 83.1725 87.9876 82.4376C86.0253 80.648 86.7963 80.0876 84.2735 80.3801V80.3792Z" fill="#00419E"/>
<path fill-rule="evenodd" clip-rule="evenodd" d="M84.2735 80.3792C83.6955 82.88 84.3784 82.4447 85.931 83.9779C86.8668 84.9013 88.192 86.7879 89.2794 85.7825C90.624 84.5392 88.7921 83.1725 87.9876 82.4376C86.0253 80.648 86.7963 80.0876 84.2735 80.3801V80.3792Z" fill="#00419E"/>
<path fill-rule="evenodd" clip-rule="evenodd" d="M84.2735 80.3792C83.6955 82.88 84.3784 82.4447 85.931 83.9779C86.8668 84.9013 88.192 86.7879 89.2794 85.7825C90.624 84.5392 88.7921 83.1725 87.9876 82.4376C86.0253 80.648 86.7963 80.0876 84.2735 80.3801V80.3792Z" fill="#00419E"/>
<path fill-rule="evenodd" clip-rule="evenodd" d="M17.2662 27.6004C18.4707 25.8038 17.9094 23.2228 17.697 20.6543C15.1276 20.3926 15.362 21.1143 15.3294 23.4863C15.2888 26.4823 14.7179 27.4806 17.267 27.6013L17.2662 27.6004Z" fill="#00419E"/>
<path fill-rule="evenodd" clip-rule="evenodd" d="M17.2662 27.6004C18.4707 25.8038 17.9094 23.2228 17.697 20.6543C15.1276 20.3926 15.362 21.1143 15.3294 23.4863C15.2888 26.4823 14.7179 27.4806 17.267 27.6013L17.2662 27.6004Z" fill="#00419E"/>
<path fill-rule="evenodd" clip-rule="evenodd" d="M17.2662 27.6004C18.4707 25.8038 17.9094 23.2228 17.697 20.6543C15.1276 20.3926 15.362 21.1143 15.3294 23.4863C15.2888 26.4823 14.7179 27.4806 17.267 27.6013L17.2662 27.6004Z" fill="#00419E"/>
<path fill-rule="evenodd" clip-rule="evenodd" d="M17.2662 27.6004C18.4707 25.8038 17.9094 23.2228 17.697 20.6543C15.1276 20.3926 15.362 21.1143 15.3294 23.4863C15.2888 26.4823 14.7179 27.4806 17.267 27.6013L17.2662 27.6004Z" fill="#00419E"/>
<path fill-rule="evenodd" clip-rule="evenodd" d="M17.2662 27.6004C18.4707 25.8038 17.9094 23.2228 17.697 20.6543C15.1276 20.3926 15.362 21.1143 15.3294 23.4863C15.2888 26.4823 14.7179 27.4806 17.267 27.6013L17.2662 27.6004Z" fill="#00419E"/>
<path fill-rule="evenodd" clip-rule="evenodd" d="M17.2662 27.6004C18.4707 25.8038 17.9094 23.2228 17.697 20.6543C15.1276 20.3926 15.362 21.1143 15.3294 23.4863C15.2888 26.4823 14.7179 27.4806 17.267 27.6013L17.2662 27.6004Z" fill="#00419E"/>
<path fill-rule="evenodd" clip-rule="evenodd" d="M84.052 96.5611C86.7395 96.5673 89.9434 93.7229 89.5504 91.083C86.8831 90.6521 84.022 93.8286 84.052 96.5611Z" fill="#00419E"/>
<path fill-rule="evenodd" clip-rule="evenodd" d="M84.052 96.5611C86.7395 96.5673 89.9434 93.7229 89.5504 91.083C86.8831 90.6521 84.022 93.8286 84.052 96.5611Z" fill="#00419E"/>
<path fill-rule="evenodd" clip-rule="evenodd" d="M84.052 96.5611C86.7395 96.5673 89.9434 93.7229 89.5504 91.083C86.8831 90.6521 84.022 93.8286 84.052 96.5611Z" fill="#00419E"/>
<path fill-rule="evenodd" clip-rule="evenodd" d="M84.052 96.5611C86.7395 96.5673 89.9434 93.7229 89.5504 91.083C86.8831 90.6521 84.022 93.8286 84.052 96.5611Z" fill="#00419E"/>
<path fill-rule="evenodd" clip-rule="evenodd" d="M84.052 96.5611C86.7395 96.5673 89.9434 93.7229 89.5504 91.083C86.8831 90.6521 84.022 93.8286 84.052 96.5611Z" fill="#00419E"/>
<path fill-rule="evenodd" clip-rule="evenodd" d="M84.052 96.5611C86.7395 96.5673 89.9434 93.7229 89.5504 91.083C86.8831 90.6521 84.022 93.8286 84.052 96.5611Z" fill="#00419E"/>
<path fill-rule="evenodd" clip-rule="evenodd" d="M22.9083 61.2815L22.7585 62.8085C24.4345 63.7637 27.6578 63.6686 29.7223 62.9883C30.3832 58.9429 22.9101 61.2797 22.9083 61.2806V61.2815Z" fill="#00419E"/>
<path fill-rule="evenodd" clip-rule="evenodd" d="M22.9083 61.2815L22.7585 62.8085C24.4345 63.7637 27.6578 63.6686 29.7223 62.9883C30.3832 58.9429 22.9101 61.2797 22.9083 61.2806V61.2815Z" fill="#00419E"/>
<path fill-rule="evenodd" clip-rule="evenodd" d="M22.9083 61.2815L22.7585 62.8085C24.4345 63.7637 27.6578 63.6686 29.7223 62.9883C30.3832 58.9429 22.9101 61.2797 22.9083 61.2806V61.2815Z" fill="#00419E"/>
<path fill-rule="evenodd" clip-rule="evenodd" d="M22.9083 61.2815L22.7585 62.8085C24.4345 63.7637 27.6578 63.6686 29.7223 62.9883C30.3832 58.9429 22.9101 61.2797 22.9083 61.2806V61.2815Z" fill="#00419E"/>
<path fill-rule="evenodd" clip-rule="evenodd" d="M22.9083 61.2815L22.7585 62.8085C24.4345 63.7637 27.6578 63.6686 29.7223 62.9883C30.3832 58.9429 22.9101 61.2797 22.9083 61.2806V61.2815Z" fill="#00419E"/>
<path fill-rule="evenodd" clip-rule="evenodd" d="M22.9083 61.2815L22.7585 62.8085C24.4345 63.7637 27.6578 63.6686 29.7223 62.9883C30.3832 58.9429 22.9101 61.2797 22.9083 61.2806V61.2815Z" fill="#00419E"/>
<path fill-rule="evenodd" clip-rule="evenodd" d="M20.5625 16.367C21.1467 18.1408 20.8119 17.8395 23.354 17.9258C30.0799 18.154 28.8057 14.6699 22.8385 15.2312C19.5835 15.5379 21.4181 15.6383 20.5634 16.3679L20.5625 16.367Z" fill="#00419E"/>
<path fill-rule="evenodd" clip-rule="evenodd" d="M20.5625 16.367C21.1467 18.1408 20.8119 17.8395 23.354 17.9258C30.0799 18.154 28.8057 14.6699 22.8385 15.2312C19.5835 15.5379 21.4181 15.6383 20.5634 16.3679L20.5625 16.367Z" fill="#00419E"/>
<path fill-rule="evenodd" clip-rule="evenodd" d="M20.5625 16.367C21.1467 18.1408 20.8119 17.8395 23.354 17.9258C30.0799 18.154 28.8057 14.6699 22.8385 15.2312C19.5835 15.5379 21.4181 15.6383 20.5634 16.3679L20.5625 16.367Z" fill="#00419E"/>
<path fill-rule="evenodd" clip-rule="evenodd" d="M20.5625 16.367C21.1467 18.1408 20.8119 17.8395 23.354 17.9258C30.0799 18.154 28.8057 14.6699 22.8385 15.2312C19.5835 15.5379 21.4181 15.6383 20.5634 16.3679L20.5625 16.367Z" fill="#00419E"/>
<path fill-rule="evenodd" clip-rule="evenodd" d="M20.5625 16.367C21.1467 18.1408 20.8119 17.8395 23.354 17.9258C30.0799 18.154 28.8057 14.6699 22.8385 15.2312C19.5835 15.5379 21.4181 15.6383 20.5634 16.3679L20.5625 16.367Z" fill="#00419E"/>
<path fill-rule="evenodd" clip-rule="evenodd" d="M20.5625 16.367C21.1467 18.1408 20.8119 17.8395 23.354 17.9258C30.0799 18.154 28.8057 14.6699 22.8385 15.2312C19.5835 15.5379 21.4181 15.6383 20.5634 16.3679L20.5625 16.367Z" fill="#00419E"/>
<path fill-rule="evenodd" clip-rule="evenodd" d="M11.1405 70.1759C12.9645 70.0454 18.247 65.8159 15.5683 64.6087C14.4246 64.0933 12.7803 66.1199 12.3309 66.5561C10.9026 67.943 10.6708 67.9316 10.6823 68.9255C10.7096 71.2993 10.514 68.9775 11.1405 70.1759Z" fill="#00419E"/>
<path fill-rule="evenodd" clip-rule="evenodd" d="M11.1405 70.1759C12.9645 70.0454 18.247 65.8159 15.5683 64.6087C14.4246 64.0933 12.7803 66.1199 12.3309 66.5561C10.9026 67.943 10.6708 67.9316 10.6823 68.9255C10.7096 71.2993 10.514 68.9775 11.1405 70.1759Z" fill="#00419E"/>
<path fill-rule="evenodd" clip-rule="evenodd" d="M11.1405 70.1759C12.9645 70.0454 18.247 65.8159 15.5683 64.6087C14.4246 64.0933 12.7803 66.1199 12.3309 66.5561C10.9026 67.943 10.6708 67.9316 10.6823 68.9255C10.7096 71.2993 10.514 68.9775 11.1405 70.1759Z" fill="#00419E"/>
<path fill-rule="evenodd" clip-rule="evenodd" d="M11.1405 70.1759C12.9645 70.0454 18.247 65.8159 15.5683 64.6087C14.4246 64.0933 12.7803 66.1199 12.3309 66.5561C10.9026 67.943 10.6708 67.9316 10.6823 68.9255C10.7096 71.2993 10.514 68.9775 11.1405 70.1759Z" fill="#00419E"/>
<path fill-rule="evenodd" clip-rule="evenodd" d="M11.1405 70.1759C12.9645 70.0454 18.247 65.8159 15.5683 64.6087C14.4246 64.0933 12.7803 66.1199 12.3309 66.5561C10.9026 67.943 10.6708 67.9316 10.6823 68.9255C10.7096 71.2993 10.514 68.9775 11.1405 70.1759Z" fill="#00419E"/>
<path fill-rule="evenodd" clip-rule="evenodd" d="M11.1405 70.1759C12.9645 70.0454 18.247 65.8159 15.5683 64.6087C14.4246 64.0933 12.7803 66.1199 12.3309 66.5561C10.9026 67.943 10.6708 67.9316 10.6823 68.9255C10.7096 71.2993 10.514 68.9775 11.1405 70.1759Z" fill="#00419E"/>
<path fill-rule="evenodd" clip-rule="evenodd" d="M103.146 87.8216C101.532 86.8559 98.189 86.8056 96.2222 87.6612C95.6556 89.9267 97.4638 89.7531 99.427 89.7672C102.3 89.7884 102.973 90.4149 103.147 87.8216H103.146Z" fill="#00419E"/>
<path fill-rule="evenodd" clip-rule="evenodd" d="M103.146 87.8216C101.532 86.8559 98.189 86.8056 96.2222 87.6612C95.6556 89.9267 97.4638 89.7531 99.427 89.7672C102.3 89.7884 102.973 90.4149 103.147 87.8216H103.146Z" fill="#00419E"/>
<path fill-rule="evenodd" clip-rule="evenodd" d="M103.146 87.8216C101.532 86.8559 98.189 86.8056 96.2222 87.6612C95.6556 89.9267 97.4638 89.7531 99.427 89.7672C102.3 89.7884 102.973 90.4149 103.147 87.8216H103.146Z" fill="#00419E"/>
<path fill-rule="evenodd" clip-rule="evenodd" d="M103.146 87.8216C101.532 86.8559 98.189 86.8056 96.2222 87.6612C95.6556 89.9267 97.4638 89.7531 99.427 89.7672C102.3 89.7884 102.973 90.4149 103.147 87.8216H103.146Z" fill="#00419E"/>
<path fill-rule="evenodd" clip-rule="evenodd" d="M103.146 87.8216C101.532 86.8559 98.189 86.8056 96.2222 87.6612C95.6556 89.9267 97.4638 89.7531 99.427 89.7672C102.3 89.7884 102.973 90.4149 103.147 87.8216H103.146Z" fill="#00419E"/>
<path fill-rule="evenodd" clip-rule="evenodd" d="M103.146 87.8216C101.532 86.8559 98.189 86.8056 96.2222 87.6612C95.6556 89.9267 97.4638 89.7531 99.427 89.7672C102.3 89.7884 102.973 90.4149 103.147 87.8216H103.146Z" fill="#00419E"/>
<path fill-rule="evenodd" clip-rule="evenodd" d="M19.6495 58.0436C20.2082 56.2231 20.2337 53.6589 19.9227 52.1143C19.8936 51.968 19.8143 51.7962 19.7852 51.6807C19.757 51.5662 19.6786 51.3997 19.624 51.2604C17.0325 50.6797 17.5004 51.8332 17.4898 54.6494C17.4801 57.0435 16.9911 58.3185 19.6504 58.0436H19.6495Z" fill="#00419E"/>
<path fill-rule="evenodd" clip-rule="evenodd" d="M19.6495 58.0436C20.2082 56.2231 20.2337 53.6589 19.9227 52.1143C19.8936 51.968 19.8143 51.7962 19.7852 51.6807C19.757 51.5662 19.6786 51.3997 19.624 51.2604C17.0325 50.6797 17.5004 51.8332 17.4898 54.6494C17.4801 57.0435 16.9911 58.3185 19.6504 58.0436H19.6495Z" fill="#00419E"/>
<path fill-rule="evenodd" clip-rule="evenodd" d="M19.6495 58.0436C20.2082 56.2231 20.2337 53.6589 19.9227 52.1143C19.8936 51.968 19.8143 51.7962 19.7852 51.6807C19.757 51.5662 19.6786 51.3997 19.624 51.2604C17.0325 50.6797 17.5004 51.8332 17.4898 54.6494C17.4801 57.0435 16.9911 58.3185 19.6504 58.0436H19.6495Z" fill="#00419E"/>
<path fill-rule="evenodd" clip-rule="evenodd" d="M19.6495 58.0436C20.2082 56.2231 20.2337 53.6589 19.9227 52.1143C19.8936 51.968 19.8143 51.7962 19.7852 51.6807C19.757 51.5662 19.6786 51.3997 19.624 51.2604C17.0325 50.6797 17.5004 51.8332 17.4898 54.6494C17.4801 57.0435 16.9911 58.3185 19.6504 58.0436H19.6495Z" fill="#00419E"/>
<path fill-rule="evenodd" clip-rule="evenodd" d="M19.6495 58.0436C20.2082 56.2231 20.2337 53.6589 19.9227 52.1143C19.8936 51.968 19.8143 51.7962 19.7852 51.6807C19.757 51.5662 19.6786 51.3997 19.624 51.2604C17.0325 50.6797 17.5004 51.8332 17.4898 54.6494C17.4801 57.0435 16.9911 58.3185 19.6504 58.0436H19.6495Z" fill="#00419E"/>
<path fill-rule="evenodd" clip-rule="evenodd" d="M19.6495 58.0436C20.2082 56.2231 20.2337 53.6589 19.9227 52.1143C19.8936 51.968 19.8143 51.7962 19.7852 51.6807C19.757 51.5662 19.6786 51.3997 19.624 51.2604C17.0325 50.6797 17.5004 51.8332 17.4898 54.6494C17.4801 57.0435 16.9911 58.3185 19.6504 58.0436H19.6495Z" fill="#00419E"/>
<path fill-rule="evenodd" clip-rule="evenodd" d="M8.09673 61.2812L7.77686 62.8488C9.58763 63.7766 12.4778 63.4885 14.6693 63.2189L14.7521 61.283C13.0788 60.5296 9.46781 60.5728 8.09673 61.2821V61.2812Z" fill="#00419E"/>
<path fill-rule="evenodd" clip-rule="evenodd" d="M8.09673 61.2812L7.77686 62.8488C9.58763 63.7766 12.4778 63.4885 14.6693 63.2189L14.7521 61.283C13.0788 60.5296 9.46781 60.5728 8.09673 61.2821V61.2812Z" fill="#00419E"/>
<path fill-rule="evenodd" clip-rule="evenodd" d="M8.09673 61.2812L7.77686 62.8488C9.58763 63.7766 12.4778 63.4885 14.6693 63.2189L14.7521 61.283C13.0788 60.5296 9.46781 60.5728 8.09673 61.2821V61.2812Z" fill="#00419E"/>
<path fill-rule="evenodd" clip-rule="evenodd" d="M8.09673 61.2812L7.77686 62.8488C9.58763 63.7766 12.4778 63.4885 14.6693 63.2189L14.7521 61.283C13.0788 60.5296 9.46781 60.5728 8.09673 61.2821V61.2812Z" fill="#00419E"/>
<path fill-rule="evenodd" clip-rule="evenodd" d="M8.09673 61.2812L7.77686 62.8488C9.58763 63.7766 12.4778 63.4885 14.6693 63.2189L14.7521 61.283C13.0788 60.5296 9.46781 60.5728 8.09673 61.2821V61.2812Z" fill="#00419E"/>
<path fill-rule="evenodd" clip-rule="evenodd" d="M8.09673 61.2812L7.77686 62.8488C9.58763 63.7766 12.4778 63.4885 14.6693 63.2189L14.7521 61.283C13.0788 60.5296 9.46781 60.5728 8.09673 61.2821V61.2812Z" fill="#00419E"/>
<path fill-rule="evenodd" clip-rule="evenodd" d="M26.4146 70.0263C26.545 69.8096 28.3734 69.6836 25.2321 66.588C24.2152 65.5862 23.6839 64.5156 21.5735 64.6266C20.7558 67.3793 25.0805 70.5638 26.4146 70.0263Z" fill="#00419E"/>
<path fill-rule="evenodd" clip-rule="evenodd" d="M26.4146 70.0263C26.545 69.8096 28.3734 69.6836 25.2321 66.588C24.2152 65.5862 23.6839 64.5156 21.5735 64.6266C20.7558 67.3793 25.0805 70.5638 26.4146 70.0263Z" fill="#00419E"/>
<path fill-rule="evenodd" clip-rule="evenodd" d="M26.4146 70.0263C26.545 69.8096 28.3734 69.6836 25.2321 66.588C24.2152 65.5862 23.6839 64.5156 21.5735 64.6266C20.7558 67.3793 25.0805 70.5638 26.4146 70.0263Z" fill="#00419E"/>
<path fill-rule="evenodd" clip-rule="evenodd" d="M26.4146 70.0263C26.545 69.8096 28.3734 69.6836 25.2321 66.588C24.2152 65.5862 23.6839 64.5156 21.5735 64.6266C20.7558 67.3793 25.0805 70.5638 26.4146 70.0263Z" fill="#00419E"/>
<path fill-rule="evenodd" clip-rule="evenodd" d="M26.4146 70.0263C26.545 69.8096 28.3734 69.6836 25.2321 66.588C24.2152 65.5862 23.6839 64.5156 21.5735 64.6266C20.7558 67.3793 25.0805 70.5638 26.4146 70.0263Z" fill="#00419E"/>
<path fill-rule="evenodd" clip-rule="evenodd" d="M26.4146 70.0263C26.545 69.8096 28.3734 69.6836 25.2321 66.588C24.2152 65.5862 23.6839 64.5156 21.5735 64.6266C20.7558 67.3793 25.0805 70.5638 26.4146 70.0263Z" fill="#00419E"/>
<path fill-rule="evenodd" clip-rule="evenodd" d="M94.8237 91.3154C93.8219 92.4116 97.6752 96.9355 100.208 96.2887C100.55 93.8567 99.9371 94.5343 98.1924 92.6293C97.4293 91.7966 96.0812 89.9391 94.8237 91.3154Z" fill="#00419E"/>
<path fill-rule="evenodd" clip-rule="evenodd" d="M94.8237 91.3154C93.8219 92.4116 97.6752 96.9355 100.208 96.2887C100.55 93.8567 99.9371 94.5343 98.1924 92.6293C97.4293 91.7966 96.0812 89.9391 94.8237 91.3154Z" fill="#00419E"/>
<path fill-rule="evenodd" clip-rule="evenodd" d="M94.8237 91.3154C93.8219 92.4116 97.6752 96.9355 100.208 96.2887C100.55 93.8567 99.9371 94.5343 98.1924 92.6293C97.4293 91.7966 96.0812 89.9391 94.8237 91.3154Z" fill="#00419E"/>
<path fill-rule="evenodd" clip-rule="evenodd" d="M94.8237 91.3154C93.8219 92.4116 97.6752 96.9355 100.208 96.2887C100.55 93.8567 99.9371 94.5343 98.1924 92.6293C97.4293 91.7966 96.0812 89.9391 94.8237 91.3154Z" fill="#00419E"/>
<path fill-rule="evenodd" clip-rule="evenodd" d="M94.8237 91.3154C93.8219 92.4116 97.6752 96.9355 100.208 96.2887C100.55 93.8567 99.9371 94.5343 98.1924 92.6293C97.4293 91.7966 96.0812 89.9391 94.8237 91.3154Z" fill="#00419E"/>
<path fill-rule="evenodd" clip-rule="evenodd" d="M94.8237 91.3154C93.8219 92.4116 97.6752 96.9355 100.208 96.2887C100.55 93.8567 99.9371 94.5343 98.1924 92.6293C97.4293 91.7966 96.0812 89.9391 94.8237 91.3154Z" fill="#00419E"/>
<path fill-rule="evenodd" clip-rule="evenodd" d="M15.9438 59.3623C16.7756 57.3127 15.9006 57.4343 14.4 55.9874C12.6782 54.3273 13.5752 53.7572 10.6806 54.1555C10.6172 56.3848 11.5204 56.5681 12.6544 57.7242C14.015 59.1103 14.0995 59.9773 15.9438 59.3623Z" fill="#00419E"/>
<path fill-rule="evenodd" clip-rule="evenodd" d="M15.9438 59.3623C16.7756 57.3127 15.9006 57.4343 14.4 55.9874C12.6782 54.3273 13.5752 53.7572 10.6806 54.1555C10.6172 56.3848 11.5204 56.5681 12.6544 57.7242C14.015 59.1103 14.0995 59.9773 15.9438 59.3623Z" fill="#00419E"/>
<path fill-rule="evenodd" clip-rule="evenodd" d="M15.9438 59.3623C16.7756 57.3127 15.9006 57.4343 14.4 55.9874C12.6782 54.3273 13.5752 53.7572 10.6806 54.1555C10.6172 56.3848 11.5204 56.5681 12.6544 57.7242C14.015 59.1103 14.0995 59.9773 15.9438 59.3623Z" fill="#00419E"/>
<path fill-rule="evenodd" clip-rule="evenodd" d="M15.9438 59.3623C16.7756 57.3127 15.9006 57.4343 14.4 55.9874C12.6782 54.3273 13.5752 53.7572 10.6806 54.1555C10.6172 56.3848 11.5204 56.5681 12.6544 57.7242C14.015 59.1103 14.0995 59.9773 15.9438 59.3623Z" fill="#00419E"/>
<path fill-rule="evenodd" clip-rule="evenodd" d="M15.9438 59.3623C16.7756 57.3127 15.9006 57.4343 14.4 55.9874C12.6782 54.3273 13.5752 53.7572 10.6806 54.1555C10.6172 56.3848 11.5204 56.5681 12.6544 57.7242C14.015 59.1103 14.0995 59.9773 15.9438 59.3623Z" fill="#00419E"/>
<path fill-rule="evenodd" clip-rule="evenodd" d="M15.9438 59.3623C16.7756 57.3127 15.9006 57.4343 14.4 55.9874C12.6782 54.3273 13.5752 53.7572 10.6806 54.1555C10.6172 56.3848 11.5204 56.5681 12.6544 57.7242C14.015 59.1103 14.0995 59.9773 15.9438 59.3623Z" fill="#00419E"/>
<path fill-rule="evenodd" clip-rule="evenodd" d="M92.8042 77.5029C90.1572 77.5831 90.7696 78.5409 90.8463 81.729C90.9441 85.807 93.5312 85.8228 93.4748 80.6663C93.4545 78.7727 93.599 78.845 92.8042 77.5038V77.5029Z" fill="#00419E"/>
<path fill-rule="evenodd" clip-rule="evenodd" d="M92.8042 77.5029C90.1572 77.5831 90.7696 78.5409 90.8463 81.729C90.9441 85.807 93.5312 85.8228 93.4748 80.6663C93.4545 78.7727 93.599 78.845 92.8042 77.5038V77.5029Z" fill="#00419E"/>
<path fill-rule="evenodd" clip-rule="evenodd" d="M92.8042 77.5029C90.1572 77.5831 90.7696 78.5409 90.8463 81.729C90.9441 85.807 93.5312 85.8228 93.4748 80.6663C93.4545 78.7727 93.599 78.845 92.8042 77.5038V77.5029Z" fill="#00419E"/>
<path fill-rule="evenodd" clip-rule="evenodd" d="M92.8042 77.5029C90.1572 77.5831 90.7696 78.5409 90.8463 81.729C90.9441 85.807 93.5312 85.8228 93.4748 80.6663C93.4545 78.7727 93.599 78.845 92.8042 77.5038V77.5029Z" fill="#00419E"/>
<path fill-rule="evenodd" clip-rule="evenodd" d="M92.8042 77.5029C90.1572 77.5831 90.7696 78.5409 90.8463 81.729C90.9441 85.807 93.5312 85.8228 93.4748 80.6663C93.4545 78.7727 93.599 78.845 92.8042 77.5038V77.5029Z" fill="#00419E"/>
<path fill-rule="evenodd" clip-rule="evenodd" d="M92.8042 77.5029C90.1572 77.5831 90.7696 78.5409 90.8463 81.729C90.9441 85.807 93.5312 85.8228 93.4748 80.6663C93.4545 78.7727 93.599 78.845 92.8042 77.5038V77.5029Z" fill="#00419E"/>
<path fill-rule="evenodd" clip-rule="evenodd" d="M91.1685 92.4437C90.7957 93.8121 90.7922 95.348 90.8415 97.0469C90.9059 99.2815 90.8424 99.6172 93.3431 99.4419L93.1696 92.4111L91.1693 92.4437H91.1685Z" fill="#00419E"/>
<path fill-rule="evenodd" clip-rule="evenodd" d="M91.1685 92.4437C90.7957 93.8121 90.7922 95.348 90.8415 97.0469C90.9059 99.2815 90.8424 99.6172 93.3431 99.4419L93.1696 92.4111L91.1693 92.4437H91.1685Z" fill="#00419E"/>
<path fill-rule="evenodd" clip-rule="evenodd" d="M91.1685 92.4437C90.7957 93.8121 90.7922 95.348 90.8415 97.0469C90.9059 99.2815 90.8424 99.6172 93.3431 99.4419L93.1696 92.4111L91.1693 92.4437H91.1685Z" fill="#00419E"/>
<path fill-rule="evenodd" clip-rule="evenodd" d="M91.1685 92.4437C90.7957 93.8121 90.7922 95.348 90.8415 97.0469C90.9059 99.2815 90.8424 99.6172 93.3431 99.4419L93.1696 92.4111L91.1693 92.4437H91.1685Z" fill="#00419E"/>
<path fill-rule="evenodd" clip-rule="evenodd" d="M91.1685 92.4437C90.7957 93.8121 90.7922 95.348 90.8415 97.0469C90.9059 99.2815 90.8424 99.6172 93.3431 99.4419L93.1696 92.4111L91.1693 92.4437H91.1685Z" fill="#00419E"/>
<path fill-rule="evenodd" clip-rule="evenodd" d="M91.1685 92.4437C90.7957 93.8121 90.7922 95.348 90.8415 97.0469C90.9059 99.2815 90.8424 99.6172 93.3431 99.4419L93.1696 92.4111L91.1693 92.4437H91.1685Z" fill="#00419E"/>
<path fill-rule="evenodd" clip-rule="evenodd" d="M84.6385 89.7391C87.3304 89.7532 88.3605 90.2423 88.0785 87.2349L81.1738 87.4746C80.8566 90.2414 81.9519 89.725 84.6385 89.7382V89.7391Z" fill="#00419E"/>
<path fill-rule="evenodd" clip-rule="evenodd" d="M84.6385 89.7391C87.3304 89.7532 88.3605 90.2423 88.0785 87.2349L81.1738 87.4746C80.8566 90.2414 81.9519 89.725 84.6385 89.7382V89.7391Z" fill="#00419E"/>
<path fill-rule="evenodd" clip-rule="evenodd" d="M84.6385 89.7391C87.3304 89.7532 88.3605 90.2423 88.0785 87.2349L81.1738 87.4746C80.8566 90.2414 81.9519 89.725 84.6385 89.7382V89.7391Z" fill="#00419E"/>
<path fill-rule="evenodd" clip-rule="evenodd" d="M84.6385 89.7391C87.3304 89.7532 88.3605 90.2423 88.0785 87.2349L81.1738 87.4746C80.8566 90.2414 81.9519 89.725 84.6385 89.7382V89.7391Z" fill="#00419E"/>
<path fill-rule="evenodd" clip-rule="evenodd" d="M84.6385 89.7391C87.3304 89.7532 88.3605 90.2423 88.0785 87.2349L81.1738 87.4746C80.8566 90.2414 81.9519 89.725 84.6385 89.7382V89.7391Z" fill="#00419E"/>
<path fill-rule="evenodd" clip-rule="evenodd" d="M84.6385 89.7391C87.3304 89.7532 88.3605 90.2423 88.0785 87.2349L81.1738 87.4746C80.8566 90.2414 81.9519 89.725 84.6385 89.7382V89.7391Z" fill="#00419E"/>
<path fill-rule="evenodd" clip-rule="evenodd" d="M21.5032 59.5629C23.6523 59.7092 26.8879 56.3661 26.873 54.1817C24.3863 53.8239 24.5414 54.4548 23.0902 55.8929C21.4909 57.4772 20.9613 57.0666 21.5032 59.5629Z" fill="#00419E"/>
<path fill-rule="evenodd" clip-rule="evenodd" d="M21.5032 59.5629C23.6523 59.7092 26.8879 56.3661 26.873 54.1817C24.3863 53.8239 24.5414 54.4548 23.0902 55.8929C21.4909 57.4772 20.9613 57.0666 21.5032 59.5629Z" fill="#00419E"/>
<path fill-rule="evenodd" clip-rule="evenodd" d="M21.5032 59.5629C23.6523 59.7092 26.8879 56.3661 26.873 54.1817C24.3863 53.8239 24.5414 54.4548 23.0902 55.8929C21.4909 57.4772 20.9613 57.0666 21.5032 59.5629Z" fill="#00419E"/>
<path fill-rule="evenodd" clip-rule="evenodd" d="M21.5032 59.5629C23.6523 59.7092 26.8879 56.3661 26.873 54.1817C24.3863 53.8239 24.5414 54.4548 23.0902 55.8929C21.4909 57.4772 20.9613 57.0666 21.5032 59.5629Z" fill="#00419E"/>
<path fill-rule="evenodd" clip-rule="evenodd" d="M21.5032 59.5629C23.6523 59.7092 26.8879 56.3661 26.873 54.1817C24.3863 53.8239 24.5414 54.4548 23.0902 55.8929C21.4909 57.4772 20.9613 57.0666 21.5032 59.5629Z" fill="#00419E"/>
<path fill-rule="evenodd" clip-rule="evenodd" d="M21.5032 59.5629C23.6523 59.7092 26.8879 56.3661 26.873 54.1817C24.3863 53.8239 24.5414 54.4548 23.0902 55.8929C21.4909 57.4772 20.9613 57.0666 21.5032 59.5629Z" fill="#00419E"/>
<path fill-rule="evenodd" clip-rule="evenodd" d="M5.88092 15.5235C5.30112 17.2241 5.32756 16.1712 6.03777 17.6057L12.6808 17.7493L12.6844 15.8539L9.62584 15.1772L8.07942 15.2839L5.8818 15.5235H5.88092Z" fill="#00419E"/>
<path fill-rule="evenodd" clip-rule="evenodd" d="M5.88092 15.5235C5.30112 17.2241 5.32756 16.1712 6.03777 17.6057L12.6808 17.7493L12.6844 15.8539L9.62584 15.1772L8.07942 15.2839L5.8818 15.5235H5.88092Z" fill="#00419E"/>
<path fill-rule="evenodd" clip-rule="evenodd" d="M5.88092 15.5235C5.30112 17.2241 5.32756 16.1712 6.03777 17.6057L12.6808 17.7493L12.6844 15.8539L9.62584 15.1772L8.07942 15.2839L5.8818 15.5235H5.88092Z" fill="#00419E"/>
<path fill-rule="evenodd" clip-rule="evenodd" d="M5.88092 15.5235C5.30112 17.2241 5.32756 16.1712 6.03777 17.6057L12.6808 17.7493L12.6844 15.8539L9.62584 15.1772L8.07942 15.2839L5.8818 15.5235H5.88092Z" fill="#00419E"/>
<path fill-rule="evenodd" clip-rule="evenodd" d="M5.88092 15.5235C5.30112 17.2241 5.32756 16.1712 6.03777 17.6057L12.6808 17.7493L12.6844 15.8539L9.62584 15.1772L8.07942 15.2839L5.8818 15.5235H5.88092Z" fill="#00419E"/>
<path fill-rule="evenodd" clip-rule="evenodd" d="M5.88092 15.5235C5.30112 17.2241 5.32756 16.1712 6.03777 17.6057L12.6808 17.7493L12.6844 15.8539L9.62584 15.1772L8.07942 15.2839L5.8818 15.5235H5.88092Z" fill="#00419E"/>
<path fill-rule="evenodd" clip-rule="evenodd" d="M131.824 19.6259L132.169 17.9076C130.516 17.1049 126.296 16.7453 126.022 18.4724C125.643 20.8683 130.538 20.0338 131.824 19.6259Z" fill="#00419E"/>
<path fill-rule="evenodd" clip-rule="evenodd" d="M131.824 19.6259L132.169 17.9076C130.516 17.1049 126.296 16.7453 126.022 18.4724C125.643 20.8683 130.538 20.0338 131.824 19.6259Z" fill="#00419E"/>
<path fill-rule="evenodd" clip-rule="evenodd" d="M131.824 19.6259L132.169 17.9076C130.516 17.1049 126.296 16.7453 126.022 18.4724C125.643 20.8683 130.538 20.0338 131.824 19.6259Z" fill="#00419E"/>
<path fill-rule="evenodd" clip-rule="evenodd" d="M131.824 19.6259L132.169 17.9076C130.516 17.1049 126.296 16.7453 126.022 18.4724C125.643 20.8683 130.538 20.0338 131.824 19.6259Z" fill="#00419E"/>
<path fill-rule="evenodd" clip-rule="evenodd" d="M131.824 19.6259L132.169 17.9076C130.516 17.1049 126.296 16.7453 126.022 18.4724C125.643 20.8683 130.538 20.0338 131.824 19.6259Z" fill="#00419E"/>
<path fill-rule="evenodd" clip-rule="evenodd" d="M131.824 19.6259L132.169 17.9076C130.516 17.1049 126.296 16.7453 126.022 18.4724C125.643 20.8683 130.538 20.0338 131.824 19.6259Z" fill="#00419E"/>
<path fill-rule="evenodd" clip-rule="evenodd" d="M121.876 21.9562L122.141 27.6062C124.53 27.7093 124.415 27.8388 124.556 25.6165C124.558 25.5936 124.526 23.4929 124.525 23.485C124.204 20.9129 123.491 21.3288 121.876 21.9562Z" fill="#00419E"/>
<path fill-rule="evenodd" clip-rule="evenodd" d="M121.876 21.9562L122.141 27.6062C124.53 27.7093 124.415 27.8388 124.556 25.6165C124.558 25.5936 124.526 23.4929 124.525 23.485C124.204 20.9129 123.491 21.3288 121.876 21.9562Z" fill="#00419E"/>
<path fill-rule="evenodd" clip-rule="evenodd" d="M121.876 21.9562L122.141 27.6062C124.53 27.7093 124.415 27.8388 124.556 25.6165C124.558 25.5936 124.526 23.4929 124.525 23.485C124.204 20.9129 123.491 21.3288 121.876 21.9562Z" fill="#00419E"/>
<path fill-rule="evenodd" clip-rule="evenodd" d="M121.876 21.9562L122.141 27.6062C124.53 27.7093 124.415 27.8388 124.556 25.6165C124.558 25.5936 124.526 23.4929 124.525 23.485C124.204 20.9129 123.491 21.3288 121.876 21.9562Z" fill="#00419E"/>
<path fill-rule="evenodd" clip-rule="evenodd" d="M121.876 21.9562L122.141 27.6062C124.53 27.7093 124.415 27.8388 124.556 25.6165C124.558 25.5936 124.526 23.4929 124.525 23.485C124.204 20.9129 123.491 21.3288 121.876 21.9562Z" fill="#00419E"/>
<path fill-rule="evenodd" clip-rule="evenodd" d="M121.876 21.9562L122.141 27.6062C124.53 27.7093 124.415 27.8388 124.556 25.6165C124.558 25.5936 124.526 23.4929 124.525 23.485C124.204 20.9129 123.491 21.3288 121.876 21.9562Z" fill="#00419E"/>
<path fill-rule="evenodd" clip-rule="evenodd" d="M124.994 16.8775C130.668 17.2802 131.551 8.32234 126.667 13.4612C125.595 14.5891 124.84 14.7416 124.994 16.8775Z" fill="#00419E"/>
<path fill-rule="evenodd" clip-rule="evenodd" d="M124.994 16.8775C130.668 17.2802 131.551 8.32234 126.667 13.4612C125.595 14.5891 124.84 14.7416 124.994 16.8775Z" fill="#00419E"/>
<path fill-rule="evenodd" clip-rule="evenodd" d="M124.994 16.8775C130.668 17.2802 131.551 8.32234 126.667 13.4612C125.595 14.5891 124.84 14.7416 124.994 16.8775Z" fill="#00419E"/>
<path fill-rule="evenodd" clip-rule="evenodd" d="M124.994 16.8775C130.668 17.2802 131.551 8.32234 126.667 13.4612C125.595 14.5891 124.84 14.7416 124.994 16.8775Z" fill="#00419E"/>
<path fill-rule="evenodd" clip-rule="evenodd" d="M124.994 16.8775C130.668 17.2802 131.551 8.32234 126.667 13.4612C125.595 14.5891 124.84 14.7416 124.994 16.8775Z" fill="#00419E"/>
<path fill-rule="evenodd" clip-rule="evenodd" d="M124.994 16.8775C130.668 17.2802 131.551 8.32234 126.667 13.4612C125.595 14.5891 124.84 14.7416 124.994 16.8775Z" fill="#00419E"/>
<path fill-rule="evenodd" clip-rule="evenodd" d="M121.876 21.9567L121.019 20.3027C119.188 20.5821 116.08 22.7453 116.974 25.328C119.339 25.4831 120.458 23.2449 121.876 21.9567Z" fill="#00419E"/>
<path fill-rule="evenodd" clip-rule="evenodd" d="M121.876 21.9567L121.019 20.3027C119.188 20.5821 116.08 22.7453 116.974 25.328C119.339 25.4831 120.458 23.2449 121.876 21.9567Z" fill="#00419E"/>
<path fill-rule="evenodd" clip-rule="evenodd" d="M121.876 21.9567L121.019 20.3027C119.188 20.5821 116.08 22.7453 116.974 25.328C119.339 25.4831 120.458 23.2449 121.876 21.9567Z" fill="#00419E"/>
<path fill-rule="evenodd" clip-rule="evenodd" d="M121.876 21.9567L121.019 20.3027C119.188 20.5821 116.08 22.7453 116.974 25.328C119.339 25.4831 120.458 23.2449 121.876 21.9567Z" fill="#00419E"/>
<path fill-rule="evenodd" clip-rule="evenodd" d="M121.876 21.9567L121.019 20.3027C119.188 20.5821 116.08 22.7453 116.974 25.328C119.339 25.4831 120.458 23.2449 121.876 21.9567Z" fill="#00419E"/>
<path fill-rule="evenodd" clip-rule="evenodd" d="M121.876 21.9567L121.019 20.3027C119.188 20.5821 116.08 22.7453 116.974 25.328C119.339 25.4831 120.458 23.2449 121.876 21.9567Z" fill="#00419E"/>
<path fill-rule="evenodd" clip-rule="evenodd" d="M125.056 20.5898C124.839 22.6024 125.519 22.9293 126.601 23.9303C132.068 28.9846 129.986 19.8364 125.056 20.5898Z" fill="#00419E"/>
<path fill-rule="evenodd" clip-rule="evenodd" d="M125.056 20.5898C124.839 22.6024 125.519 22.9293 126.601 23.9303C132.068 28.9846 129.986 19.8364 125.056 20.5898Z" fill="#00419E"/>
<path fill-rule="evenodd" clip-rule="evenodd" d="M125.056 20.5898C124.839 22.6024 125.519 22.9293 126.601 23.9303C132.068 28.9846 129.986 19.8364 125.056 20.5898Z" fill="#00419E"/>
<path fill-rule="evenodd" clip-rule="evenodd" d="M125.056 20.5898C124.839 22.6024 125.519 22.9293 126.601 23.9303C132.068 28.9846 129.986 19.8364 125.056 20.5898Z" fill="#00419E"/>
<path fill-rule="evenodd" clip-rule="evenodd" d="M125.056 20.5898C124.839 22.6024 125.519 22.9293 126.601 23.9303C132.068 28.9846 129.986 19.8364 125.056 20.5898Z" fill="#00419E"/>
<path fill-rule="evenodd" clip-rule="evenodd" d="M125.056 20.5898C124.839 22.6024 125.519 22.9293 126.601 23.9303C132.068 28.9846 129.986 19.8364 125.056 20.5898Z" fill="#00419E"/>
<path fill-rule="evenodd" clip-rule="evenodd" d="M121.443 16.8793C121.613 14.4676 119.378 11.8188 117.011 12.0558C115.901 14.9178 119.27 17.0291 121.443 16.8793Z" fill="#00419E"/>
<path fill-rule="evenodd" clip-rule="evenodd" d="M121.443 16.8793C121.613 14.4676 119.378 11.8188 117.011 12.0558C115.901 14.9178 119.27 17.0291 121.443 16.8793Z" fill="#00419E"/>
<path fill-rule="evenodd" clip-rule="evenodd" d="M121.443 16.8793C121.613 14.4676 119.378 11.8188 117.011 12.0558C115.901 14.9178 119.27 17.0291 121.443 16.8793Z" fill="#00419E"/>
<path fill-rule="evenodd" clip-rule="evenodd" d="M121.443 16.8793C121.613 14.4676 119.378 11.8188 117.011 12.0558C115.901 14.9178 119.27 17.0291 121.443 16.8793Z" fill="#00419E"/>
<path fill-rule="evenodd" clip-rule="evenodd" d="M121.443 16.8793C121.613 14.4676 119.378 11.8188 117.011 12.0558C115.901 14.9178 119.27 17.0291 121.443 16.8793Z" fill="#00419E"/>
<path fill-rule="evenodd" clip-rule="evenodd" d="M121.443 16.8793C121.613 14.4676 119.378 11.8188 117.011 12.0558C115.901 14.9178 119.27 17.0291 121.443 16.8793Z" fill="#00419E"/>
<path fill-rule="evenodd" clip-rule="evenodd" d="M114.619 17.781C114.088 19.0208 114.088 17.7704 114.438 19.7178C115.587 19.9284 116.123 20.0015 117.315 19.9945C123.385 19.9601 119.695 15.8134 114.619 17.781Z" fill="#00419E"/>
<path fill-rule="evenodd" clip-rule="evenodd" d="M114.619 17.781C114.088 19.0208 114.088 17.7704 114.438 19.7178C115.587 19.9284 116.123 20.0015 117.315 19.9945C123.385 19.9601 119.695 15.8134 114.619 17.781Z" fill="#00419E"/>
<path fill-rule="evenodd" clip-rule="evenodd" d="M114.619 17.781C114.088 19.0208 114.088 17.7704 114.438 19.7178C115.587 19.9284 116.123 20.0015 117.315 19.9945C123.385 19.9601 119.695 15.8134 114.619 17.781Z" fill="#00419E"/>
<path fill-rule="evenodd" clip-rule="evenodd" d="M114.619 17.781C114.088 19.0208 114.088 17.7704 114.438 19.7178C115.587 19.9284 116.123 20.0015 117.315 19.9945C123.385 19.9601 119.695 15.8134 114.619 17.781Z" fill="#00419E"/>
<path fill-rule="evenodd" clip-rule="evenodd" d="M114.619 17.781C114.088 19.0208 114.088 17.7704 114.438 19.7178C115.587 19.9284 116.123 20.0015 117.315 19.9945C123.385 19.9601 119.695 15.8134 114.619 17.781Z" fill="#00419E"/>
<path fill-rule="evenodd" clip-rule="evenodd" d="M114.619 17.781C114.088 19.0208 114.088 17.7704 114.438 19.7178C115.587 19.9284 116.123 20.0015 117.315 19.9945C123.385 19.9601 119.695 15.8134 114.619 17.781Z" fill="#00419E"/>
<path fill-rule="evenodd" clip-rule="evenodd" d="M121.964 15.3414C123.684 16.1168 122.241 16.1468 124.069 15.5344C124.798 13.9042 124.891 11.5137 123.938 9.80774L122.243 9.68701L121.965 15.3423L121.964 15.3414Z" fill="#00419E"/>
<path fill-rule="evenodd" clip-rule="evenodd" d="M121.964 15.3414C123.684 16.1168 122.241 16.1468 124.069 15.5344C124.798 13.9042 124.891 11.5137 123.938 9.80774L122.243 9.68701L121.965 15.3423L121.964 15.3414Z" fill="#00419E"/>
<path fill-rule="evenodd" clip-rule="evenodd" d="M121.964 15.3414C123.684 16.1168 122.241 16.1468 124.069 15.5344C124.798 13.9042 124.891 11.5137 123.938 9.80774L122.243 9.68701L121.965 15.3423L121.964 15.3414Z" fill="#00419E"/>
<path fill-rule="evenodd" clip-rule="evenodd" d="M121.964 15.3414C123.684 16.1168 122.241 16.1468 124.069 15.5344C124.798 13.9042 124.891 11.5137 123.938 9.80774L122.243 9.68701L121.965 15.3423L121.964 15.3414Z" fill="#00419E"/>
<path fill-rule="evenodd" clip-rule="evenodd" d="M121.964 15.3414C123.684 16.1168 122.241 16.1468 124.069 15.5344C124.798 13.9042 124.891 11.5137 123.938 9.80774L122.243 9.68701L121.965 15.3423L121.964 15.3414Z" fill="#00419E"/>
<path fill-rule="evenodd" clip-rule="evenodd" d="M121.964 15.3414C123.684 16.1168 122.241 16.1468 124.069 15.5344C124.798 13.9042 124.891 11.5137 123.938 9.80774L122.243 9.68701L121.965 15.3423L121.964 15.3414Z" fill="#00419E"/>
</svg>
