 <svg
            width="104"
            height="102"
            viewBox="0 0 104 102"
            fill="none"
            xmlns="http://www.w3.org/2000/svg"
          >
            <path
              fill-rule="evenodd"
              clip-rule="evenodd"
              d="M62.8339 95.328C60.3664 99.7504 52.9797 96.3965 55.8468 91.2294C58.2616 86.8775 65.4967 90.5574 62.8339 95.328ZM33.0661 93.9986C32.3298 86.6647 43.2686 85.7088 43.91 92.7602C44.5889 100.221 33.7167 100.471 33.0661 93.9986ZM88.3723 84.2454C86.2185 91.5777 74.6315 88.4993 77.1312 80.5371C79.2375 73.827 90.6845 76.3758 88.3723 84.2454ZM14.5233 82.472C13.3982 77.0723 21.5739 75.7397 22.4518 80.73C23.4438 86.3678 15.4509 86.9242 14.5233 82.472ZM44.5559 81.1418C43.6987 76.7026 49.8172 75.8966 50.7188 79.4526C51.8867 84.0625 45.2563 84.7643 44.5559 81.1418ZM78.6199 73.6617C76.7914 76.3405 70.8658 74.2365 73.1864 69.9856C75.207 66.2835 81.1839 69.906 78.6199 73.6617ZM94.2772 65.6253C92.2887 70.878 84.5347 68.1701 86.7558 62.7206C88.4427 58.5822 96.1432 60.6947 94.2772 65.6253ZM2.41882 64.295C0.400519 57.0109 11.2566 54.4247 12.9022 61.2848C14.707 68.8092 4.16082 70.5796 2.41882 64.295ZM101.391 48.7785C98.8901 55.4664 88.592 51.6265 91.3764 44.7006C93.8509 38.5462 103.991 41.8235 101.391 48.7785ZM82.2975 47.0051C79.8904 52.0398 72.643 48.3499 75.0058 43.4109C76.959 39.3269 84.7299 41.9177 82.2975 47.0051ZM18.5675 46.1188C16.7528 40.4703 24.875 38.9143 26.2435 43.5655C27.8998 49.1926 19.9789 50.5098 18.5675 46.1188ZM6.40109 36.2631C8.26784 35.5574 10.6436 36.495 11.4028 38.4306C12.2937 40.7022 10.9207 43.1254 9.26055 43.7699C4.40958 45.6535 0.822245 38.3701 6.40109 36.2631ZM22.8116 38.139C35.8881 9.5131 73.1864 17.1171 80.1001 39.1156C69.0588 38.6059 69.3817 54.2234 82.3625 50.7708C82.3817 57.8268 80.4889 61.2213 78.1599 66.5238C75.4397 66.1748 73.6755 66.0569 71.9458 67.8234C69.7017 70.115 70.7311 71.7888 70.96 74.7447C67.2096 77.5667 59.689 81.8765 53.0723 81.4709C53.2529 77.843 51.4252 75.1312 47.9963 74.9644C43.2693 74.7348 43.6781 77.6402 41.819 80.156C30.6957 76.3245 20.0837 66.0493 20.2705 50.8251C29.1887 52.0184 30.2319 44.0163 27.0043 40.5431C25.4024 38.8194 24.3607 39.1501 22.8108 38.139H22.8116ZM88.654 26.8964C93.8739 24.1081 96.8802 31.9226 92.2543 34.1054C87.4202 36.3863 84.3656 29.1871 88.654 26.8964ZM16.3273 15.1562C23.4583 11.748 26.8459 22.3936 20.9555 25.2363C17.9422 26.6905 14.5026 25.0288 13.4089 22.6646C11.8422 19.2785 13.2267 16.638 16.3273 15.1562ZM78.9972 12.4261C84.4245 9.59881 87.4217 17.5909 82.6572 19.561C77.5851 21.6581 74.7578 14.635 78.9972 12.4261ZM58.0779 2.41957C65.0574 0.659969 67.1721 11.637 60.3993 12.9382C53.3524 14.2906 51.093 4.18071 58.0779 2.41957ZM37.79 2.47698C44.4825 0.807687 46.9784 10.8058 40.7742 12.7644C33.5024 15.0606 30.4799 4.30011 37.79 2.47698ZM39.7777 15.3514L40.8064 18.6203C39.6338 19.538 35.3791 21.166 33.5536 22.3263L27.1903 27.1199L25.0518 25.2799C26.1547 20.8874 27.9273 18.1198 23.8854 14.384C16.3939 7.46035 6.05514 18.2973 12.5126 25.3296C13.7127 26.6361 15.0284 27.7605 17.457 28.0062C20.6884 28.333 21.2839 27.1512 23.606 26.7096L25.6519 29.1948C19.8472 36.7942 21.8755 37.2933 18.3961 40.0019C16.6602 41.3528 16.6128 41.6192 14.2095 40.4466C12.9895 37.0238 13.0254 34.3358 8.50281 33.7779C4.93385 33.3378 1.84632 35.8253 1.42077 39.0666C0.930923 42.7963 3.5003 45.89 6.80367 46.2505C13.2459 46.9546 11.0025 41.8924 15.6637 43.3061L16.5224 47.0335C17.1363 48.6828 17.5856 48.0866 17.8925 50.1217C18.2162 52.2694 18.5553 56.3313 18.7229 58.4697L14.8049 59.4548C7.28587 49.5806 -1.73334 57.8291 0.288021 65.0336C2.36755 72.4471 15.258 73.0555 15.3705 61.7609C16.8301 61.2488 18.0547 60.736 19.4339 60.9595C22.3952 65.8916 19.9437 64.181 26.2144 72.7195C25.3557 73.8194 23.8762 75.0172 22.8452 76.2939C19.5158 75.778 17.0712 73.8247 13.9378 77.1763C8.65129 82.8302 16.4199 91.3818 22.3684 86.5262C25.5225 83.9515 24.7694 82.0235 24.0974 78.0397L27.6365 74.6307C29.3961 75.328 31.605 77.6807 33.8032 78.9704C35.9041 80.2034 38.8325 81.2275 40.9074 82.4728L40.0042 85.6001C27.9051 85.8435 28.8412 98.0604 35.7082 100.565C42.194 102.931 51.8462 95.3334 42.2904 86.4627L42.9877 83.8167C44.8422 84.8049 46.3362 86.6341 49.6633 85.4952C52.4332 84.5469 51.4352 83.2565 56.4499 83.8198L57.0515 87.3329C54.2992 89.1231 51.7888 91.4912 53.4114 95.6916C56.3206 103.224 68.5498 99.0095 65.0421 90.7465C62.5844 84.9579 59.2895 90.4679 58.9083 83.3606C61.1547 81.911 63.0896 82.8975 71.4873 77.0868C72.1884 76.6015 72.6752 75.5193 75.9364 77.5973C71.3909 90.7626 82.9397 92.4563 87.5059 89.1606C93.7667 84.6418 91.6076 73.7268 80.7637 74.447C82.8914 67.9474 78.4216 70.5298 80.9596 65.7783C81.8398 64.1305 81.4456 64.0761 82.606 63.5052C84.8577 63.3092 83.7839 65.1875 84.8187 67.3634C85.4141 68.6148 86.6854 69.7729 88.1297 70.2872C92.1762 71.7284 95.5768 69.3894 96.4677 66.2069C98.1822 60.0855 91.4277 56.1904 87.1163 59.0484C85.2756 60.2691 85.4738 61.9024 83.4922 61.372C83.4494 61.2771 83.415 61.0131 83.4111 61.0713C83.4073 61.1294 83.3499 60.8317 83.3476 60.7682L83.3262 60.1298C83.3514 59.8229 83.5558 59.0683 83.6385 58.7284C83.927 57.5436 84.1306 56.5739 84.3089 55.3845C84.6947 52.8182 84.4926 50.4784 84.7689 47.9573L88.7588 47.9642C91.0435 57.8934 104.311 55.7733 103.994 46.5582C103.856 42.5154 100.789 39.3521 96.7302 39.1746C94.5252 39.0781 92.4158 40.0792 91.2639 41.0344C89.277 42.6815 89.5579 44.2536 88.3692 45.7063C83.8061 45.7063 85.3131 45.6596 84.5538 43.2938C84.2722 42.4167 82.4108 39.023 81.2428 35.5153L85.2235 33.9646C87.0941 35.7648 89.4553 37.9844 93.4031 36.1176C95.8845 34.9443 97.8936 31.4886 96.4065 27.8975C94.0973 22.3186 83.9117 22.3163 84.3556 31.9088L80.0764 33.5674C76.7409 28.5909 76.4929 29.1343 73.9411 25.8011C74.9231 24.304 76.5863 22.6722 77.6264 21.3206C86.315 24.712 89.9344 15.4126 85.2189 11.1456C82.7896 8.94824 78.701 9.14878 76.574 11.2719C73.5783 14.2623 74.8902 16.5117 75.8852 20.0776C74.1424 21.5732 74.0299 22.5207 71.9664 24.1823C70.0446 23.0802 68.4411 21.7943 66.0041 20.5958C63.7379 19.4814 60.2615 18.7091 58.6083 17.7478C58.7598 14.0472 59.8237 15.9032 62.8623 14.4238C68.8712 11.4993 67.9092 1.5126 60.7345 0.204564C53.1389 -1.18 48.9431 7.44886 53.2468 12.5027C56.0328 15.7739 56.6795 12.7315 56.355 17.2541C54.1224 17.5832 51.6602 17.1363 49.3396 17.2503C47.0174 17.3643 45.1568 17.9307 43.15 18.0195L42.0976 14.5455C50.5527 10.5356 46.1135 -1.79001 37.1938 0.219878C29.4635 1.96188 28.4256 14.7912 39.7785 15.3514H39.7777Z"
              fill="#00419E"
            />
          </svg>