<svg width="151" height="76" viewBox="0 0 151 76" fill="none" xmlns="http://www.w3.org/2000/svg">
<path fill-rule="evenodd" clip-rule="evenodd" d="M147.126 37.1424C145.538 57.8544 141.013 88.2277 121.442 63.1084C115.363 55.3075 120.153 32.712 123.564 23.8282C125.202 19.56 124.975 19.4237 128.021 16.6359C132.908 12.1632 144.713 -0.806358 146.707 14.4048C147.626 21.4147 147.681 29.9261 147.127 37.1434L147.126 37.1424ZM2.9183 28.8019C2.90006 9.456 3.64501 -0.88023 20.8808 15.1988C25.8171 19.8029 26.5707 21.913 28.8104 30.0586C30.3378 35.6141 33.8168 55.0185 30.2053 61.223C26.7675 67.127 16.7739 78.9753 10.3851 68.5478C4.69812 59.2656 2.92982 41.1322 2.9183 28.8029V28.8019ZM115.162 60.6009C113.736 59.6553 114.655 61.0089 114.152 58.8172C112.261 50.5775 114.933 24.0845 120.167 16.9527L122.351 18.3062C122.038 20.8041 120.22 24.5731 119.361 27.4291C116.837 35.8214 115.344 46.1433 116.039 54.9436C116.25 57.6249 117.187 59.447 115.162 60.6009ZM30.0853 16.9719C35.6197 22.6647 37.052 45.3791 36.4799 55.3141C36.1016 61.8892 36.1601 60.0662 35.0897 60.5875C33.2724 59.4614 34.0635 57.7698 34.2661 55.4341C34.4581 53.2194 34.4974 51.0326 34.4485 48.8092C34.3563 44.6803 33.9493 40.6838 33.213 36.7814C32.1032 30.8976 30.9522 26.6477 28.7605 21.1949C27.6037 18.3169 27.1679 18.5194 30.0863 16.9709L30.0853 16.9719ZM32.8126 14.7351C35.6389 13.5514 38.5669 11.567 41.9605 10.1174C67.6404 -0.847653 93.8992 0.648053 117.364 14.9002C116.878 18.2227 113.384 24.4339 111.7 36.4483C109.751 50.3472 111.785 52.9852 111.66 62.1657C105.354 66.4674 84.2349 70.0646 75.1246 70.0242C65.8347 69.983 45.0353 66.4655 38.7886 62.1657C38.756 52.4572 40.0558 46.6992 38.6226 36.3725C37.3496 27.2045 35.0571 22.4573 32.8126 14.7351ZM26.1925 15.9505C22.7903 13.6926 22.1979 11.5575 15.9157 7.38914C11.6168 4.53698 5.49876 2.65442 2.65716 7.5053C-1.15115 14.0054 -0.0039374 34.4534 0.874461 43.0761C2.05622 54.671 6.92338 85.3948 23.5755 72.9024C27.5768 69.9014 29.5198 66.3551 32.8654 62.9001C34.22 63.1871 43.3102 67.678 51.9569 69.7842C76.6529 75.7986 95.0128 72.5913 117.387 62.8012C118.809 63.958 120.261 66.2803 121.61 67.943C126.036 73.4016 133.814 79.247 140.186 72.7315C151.435 61.2278 152.42 15.8909 147.864 7.81448C144.93 2.61513 138.703 4.7511 134.687 7.16358C129.345 10.3719 126.46 14.8243 124.059 16.009C115.992 11.2579 115.971 9.47043 102.889 4.95268C95.152 2.28196 84.1303 0.014459 75.1255 5.90734e-05C66.5585 -0.0133809 55.2737 2.26852 47.8088 4.78468C34.1192 9.39843 30.811 13.921 26.1925 15.9505Z" fill="#00419E"/>
<path fill-rule="evenodd" clip-rule="evenodd" d="M107.963 30.6257C110.269 30.7063 110.313 31.0241 111.853 29.9134C111.366 27.0881 110.913 27.9175 104.061 27.6094C88.4925 26.9076 70.1047 26.9297 54.5422 27.3531C51.3262 27.4404 48.3127 27.5374 45.1054 27.6651C41.6033 27.8052 38.3413 26.826 38.6446 30.2888L107.964 30.6267L107.963 30.6257Z" fill="#00419E"/>
<path fill-rule="evenodd" clip-rule="evenodd" d="M38.6667 19.1887C40.8661 19.6629 48.8043 15.8892 55.1365 14.4156C61.7451 12.8786 67.9591 12.1356 75.1236 12.1116C82.339 12.0866 88.5214 12.9074 95.1319 14.4059C102.327 16.037 109.782 20.1851 111.843 18.7931C111.569 16.2914 110.179 16.0889 105.147 14.3551C102.285 13.3692 99.1044 12.4283 96.1102 11.6815C77.4737 7.03508 58.7422 9.173 41.1474 15.9573C39.0459 16.7675 38.3922 16.5871 38.6667 19.1896V19.1887Z" fill="#00419E"/>
<path fill-rule="evenodd" clip-rule="evenodd" d="M38.6667 19.1887C40.8661 19.6629 48.8043 15.8892 55.1365 14.4156C61.7451 12.8786 67.9591 12.1356 75.1236 12.1116C82.339 12.0866 88.5214 12.9074 95.1319 14.4059C102.327 16.037 109.782 20.1851 111.843 18.7931C111.569 16.2914 110.179 16.0889 105.147 14.3551C102.285 13.3692 99.1044 12.4283 96.1102 11.6815C77.4737 7.03508 58.7422 9.173 41.1474 15.9573C39.0459 16.7675 38.3922 16.5871 38.6667 19.1896V19.1887Z" fill="#00419E"/>
<path fill-rule="evenodd" clip-rule="evenodd" d="M94.3365 60.2828C81.9342 63.0265 68.3349 62.9794 55.9068 60.2414C50.5097 59.052 41.7766 55.4713 40.1436 55.9714C39.2988 62.4255 70.8347 65.1903 75.125 65.1883C84.4619 65.1835 95.3137 63.5726 104.042 60.5054C106.945 59.4859 110.396 59.1989 110.045 56.0491C108.481 55.4136 97.7454 59.5282 94.3355 60.2828H94.3365Z" fill="#00419E"/>
<path fill-rule="evenodd" clip-rule="evenodd" d="M56.7289 45.0264C53.4917 44.7298 41.941 42.1916 40.167 43.2601C39.8953 46.0441 41.6876 45.66 47.3209 46.6172C56.1442 48.1157 66.1675 48.8242 75.1234 48.8117C84.7905 48.7973 94.0834 48.1099 103.508 46.5144C106.596 45.9922 110.08 46.4377 110.159 43.2591C108.211 42.2031 97.0142 44.6808 93.5515 45.0293C87.5093 45.637 81.3547 45.9912 75.1234 45.9692C68.7288 45.9471 63.0188 45.6015 56.7289 45.0255V45.0264Z" fill="#00419E"/>
</svg>
