<svg width="93" height="90" viewBox="0 0 93 90" fill="none" xmlns="http://www.w3.org/2000/svg">
<path fill-rule="evenodd" clip-rule="evenodd" d="M58.4813 85.0012C60.8709 85.317 68.8856 88.3721 67.7296 83.521C67.2263 81.4104 61.8075 80.5714 58.6964 79.6764C57.4482 79.3172 56.4574 78.9508 55.1701 78.6072C53.4355 78.1437 52.9335 78.4228 52.8605 76.728C55.959 74.7837 73.9994 81.15 75.8413 76.9317C77.26 72.1692 70.4447 72.2054 66.5598 71.4406L57.2162 69.6144C57.1903 69.6102 55.7975 69.3366 55.7625 69.3197C54.9459 68.9322 55.1984 69.219 54.9477 68.3488C58.7645 66.0983 77.0334 68.6121 78.1562 64.2908C79.3658 59.635 71.2958 60.9326 68.2546 60.9326C66.0433 60.9326 63.8326 60.9326 61.6213 60.9326C59.8235 60.9326 55.9626 61.3497 55.5522 60.3673C55.1062 59.2981 58.8923 58.4139 60.8312 57.7787L73.2828 53.4947C75.9546 52.6389 77.2112 50.427 74.6419 49.027C72.2824 48.2387 47.4339 53.8413 41.8312 53.9552C44.113 49.6369 46.4183 47.7926 45.7186 40.9942C45.4878 40.3789 45.3937 39.1952 44.166 38.5226C43.0908 39.0018 40.9573 41.5457 40.4209 42.5215C36.1243 42.419 18.7281 39.6798 12.2666 38.7601C10.2826 38.4774 4.59253 37.1762 3.31361 38.1405C3.52034 39.5478 3.10508 39.1687 4.60579 39.5544L11.3493 40.4386C18.0549 41.3529 33.7069 43.1851 38.5833 44.2681L32.8185 51.0635C31.0074 53.1313 29.3084 55.5849 25.2252 55.9646C20.5019 56.404 2.76938 55.2998 0.0464087 56.3479C-0.12777 58.4224 1.55615 57.7914 5.76477 57.7902C10.9889 57.7883 25.101 58.2807 28.317 57.0434C31.8874 55.6699 37.2507 48.898 39.9508 45.6374C40.5951 44.8593 40.932 44.5273 41.7318 43.5726C43.0342 42.0176 42.4984 42.099 43.9708 41.3541C44.5855 45.5012 42.8751 49.4458 40.6059 52.578C39.7344 53.7804 38.6906 54.1812 38.9329 56.0658C44.4987 56.3991 72.3246 49.9172 74.1133 50.8929C72.5108 52.8884 55.4413 56.7481 54.1051 58.7539C52.9202 60.5318 54.2781 62.4128 56.0705 62.6684L70 62.7069C71.8201 62.7106 75.3549 62.0494 76.4554 63.4603C75.8346 65.1436 74.6745 64.5898 70.4026 64.967L56.913 66.0724C54.0756 66.3291 52.7804 66.701 53.3246 69.8229C54.3799 71.8408 69.7052 73.497 73.0014 74.4703C73.8108 74.7096 73.7125 74.4028 74.0579 75.158C75.5116 78.3366 66.8057 76.0627 62.7809 75.5582C60.5262 75.2755 53.2649 73.7694 51.7703 75.2382C50.6095 76.3785 50.7288 78.3523 52.0306 79.3353C53.8248 80.6895 64.6541 82.3964 66.0312 84.0574C65.1868 85.0579 61.7834 83.8422 59.2431 83.2691C56.863 82.7321 54.2546 82.2023 51.8323 81.6629C43.6725 79.847 26.9441 78.7024 18.334 78.7024C14.7491 78.7024 2.29145 78.254 0 78.964C0.270007 81.2277 0.5394 80.4804 6.81345 80.4804C13.2858 80.4804 25.309 80.2026 30.688 80.7944C35.486 81.3224 55.8023 83.392 58.4819 84.9994L58.4813 85.0012Z" fill="#00419E" fill-opacity="0.5"/>
<path fill-rule="evenodd" clip-rule="evenodd" d="M81.071 30.6883C80.921 33.6825 78.4957 35.6154 76.9823 36.9672C71.8106 36.8877 72.2542 36.614 68.9533 39.1134C68.095 38.6072 67.3091 37.9918 66.7872 37.0287L81.071 30.6883ZM54.679 35.7769L53.1211 36.8081C51.7132 37.623 50.2685 38.9579 49.1553 40.5105C47.8029 42.3975 46.2088 46.0281 47.1966 48.5076C49.5507 48.2798 48.3447 46.9593 49.1722 44.3786C49.6429 42.911 50.5681 41.4935 51.3552 40.628C53.1789 38.621 55.5752 36.878 59.5265 36.8834C65.3449 36.8919 69.4656 40.8594 70.2563 46.7863C70.5197 48.762 70.24 48.448 71.8353 48.4727C72.8533 45.9564 70.9464 42.8772 70.2322 40.772C72.5043 36.787 80.2399 37.9129 78.9911 44.8873C78.7597 46.18 78.3553 45.605 79.1219 46.6748C80.7124 47.4336 80.9445 44.6763 81.0228 43.2172C80.6618 39.8867 79.7445 39.9566 78.659 37.9792C79.8934 36.6351 85.1272 31.7925 82.0311 28.7392C80.3586 28.3879 71.5093 32.884 69.3993 33.8917C66.9794 35.0477 65.6565 36.3157 62.6991 35.5232C58.6261 34.4317 57.5412 35.7944 54.6784 35.7763L54.679 35.7769Z" fill="#00419E" fill-opacity="0.5"/>
<path fill-rule="evenodd" clip-rule="evenodd" d="M83.6123 76.0616C85.7242 74.7091 87.3099 74.1504 87.9897 71.3419C88.8883 67.6299 87.117 65.9026 85.7977 64.1608C86.8904 63.0193 88.159 61.0979 88.2633 58.5822C88.4134 54.9673 86.6143 53.6106 86.1943 52.3655C86.1888 52.363 78.0778 47.0063 77.5601 51.6579C79.6864 52.2973 81.3986 51.2312 83.7455 52.8717C87.4485 55.4603 87.0718 60.4343 84.6538 62.7505C83.2959 64.0511 80.9363 64.0523 81.0219 65.7278C82.4563 66.3805 82.9542 65.6856 84.312 65.4843C86.3401 67.0706 87.4732 70.1497 85.2312 72.76C82.3449 76.1206 80.4638 73.5616 77.6806 73.9401C77.6239 76.7053 81.4577 76.3804 83.6117 76.0616H83.6123Z" fill="#00419E" fill-opacity="0.5"/>
<path fill-rule="evenodd" clip-rule="evenodd" d="M60.612 32.3027L61.6222 32.3358C62.4225 31.0244 62.4659 2.50669 61.7529 0.113996L60.5753 0.0458984C60.0889 0.977062 59.7803 30.9406 60.612 32.3021V32.3027Z" fill="#00419E" fill-opacity="0.5"/>
<path fill-rule="evenodd" clip-rule="evenodd" d="M48.0088 32.7167L49.6126 32.7311C50.0351 30.6362 50.0297 2.37221 49.6114 0.276039L48.3572 0C47.5707 2.72358 48.0486 12.2468 48.0486 15.9853C48.0486 19.3513 48.4976 30.3282 48.0082 32.7167H48.0088Z" fill="#00419E" fill-opacity="0.5"/>
<path fill-rule="evenodd" clip-rule="evenodd" d="M56.8619 2.37112V22.6187C56.8619 24.6124 56.3436 25.5399 58.1294 25.6954C58.9219 24.5937 59.028 2.08846 58.3084 0.0983608C56.5696 -0.0360401 56.8619 0.775801 56.8619 2.37053V2.37112Z" fill="#00419E" fill-opacity="0.5"/>
<path fill-rule="evenodd" clip-rule="evenodd" d="M81.9668 43.3077C85.2075 43.3969 87.7551 41.349 90.0646 45.1176C90.7824 46.2892 91.0138 48.0997 90.3864 49.6257C89.6457 51.4272 88.5169 51.2808 87.881 52.9876L88.4283 53.6909C90.7113 53.2365 91.5569 51.2946 92.4489 49.1472C92.7219 43.3372 89.1395 40.5727 85.008 41.0157C81.5298 41.3887 82.0337 42.4899 81.9668 43.3077Z" fill="#00419E" fill-opacity="0.5"/>
<path fill-rule="evenodd" clip-rule="evenodd" d="M53.3063 1.67257V17.0328C53.3063 18.9006 52.9814 18.7825 54.2904 19.2905C55.3789 18.5733 55.0758 18.7083 55.0758 17.0328C55.0758 14.5377 55.5844 1.4821 54.6394 0.0537109C53.3316 0.100118 53.3063 0.251416 53.3063 1.67257Z" fill="#00419E" fill-opacity="0.5"/>
<path fill-rule="evenodd" clip-rule="evenodd" d="M71.3959 88.8014C74.9964 89.8814 78.1961 91.7769 81.7912 86.1616C82.6054 84.8899 81.617 86.0633 82.0648 85.8036C82.4807 83.4247 82.6741 82.2483 81.6043 80.1202C80.6744 78.2705 79.9795 77.499 78.621 78.0174C77.9303 79.8019 82.917 82.2585 79.5853 86.3086C76.3748 90.2117 74.19 87.0831 71.3887 87.2669L71.3959 88.8008V88.8014Z" fill="#00419E" fill-opacity="0.5"/>
</svg>
