<svg width="79" height="67" viewBox="0 0 79 67" fill="none" xmlns="http://www.w3.org/2000/svg">
<g opacity="0.5">
<path fill-rule="evenodd" clip-rule="evenodd" d="M45.4947 53.681C45.0794 48.2183 49.1619 43.7994 53.9088 43.3162C66.8591 41.9971 68.4766 61.0439 56.0637 62.3698C50.5168 62.9625 45.8774 58.7153 45.4947 53.681ZM20.4409 39.6564C19.1476 44.0384 14.6198 48.0073 8.75179 46.3681C4.20025 45.0964 0.343517 40.5628 2.00317 34.3995C3.14066 30.1748 7.96329 26.3581 13.616 27.833C18.0281 28.9842 22.1969 33.7068 20.4409 39.6569V39.6564ZM36.1205 21.7008C35.9831 22.4408 36.3326 21.8066 35.6505 22.6061L32.9223 25.1085C32.6491 19.7932 33.1728 14.1231 32.8628 8.86094C32.7212 6.45911 31.4679 4.97002 29.4772 4.31574C26.8706 3.4588 25.2857 4.86052 23.7044 6.08854C20.422 8.63829 18.5034 11.067 16.0684 14.6168C14.5471 16.8344 11.5584 22.7867 10.7857 25.8433C6.0215 26.9419 1.78946 28.4983 0.3672 34.5795C-1.33983 41.8755 3.28962 44.7143 6.34047 47.2782C6.55418 55.3544 3.83389 61.9825 10.6072 65.5713C13.4444 67.0746 17.4159 66.6735 20.9842 66.6777C25.4115 66.683 27.5864 66.6298 30.1551 64.0679C32.5307 61.6987 32.8839 59.1816 32.876 55.2054L32.8749 37.8256C32.8628 34.8611 32.4449 34.8522 34.1303 33.2967C35.3747 32.1487 39.184 28.0193 40.1925 27.5377C42.3401 29.6142 44.4851 31.6497 46.6348 33.8368C47.9734 35.1985 47.5733 44.2342 46.9396 45.1801C45.2162 47.7525 43.2492 49.8006 44.0593 54.6801C44.8493 59.4427 46.9622 59.7733 48.9608 62.6067C50.9516 65.4286 52.7223 66.6598 57.5623 66.6788C61.2448 66.6935 66.2811 67.1546 69.3441 65.765C76.3548 62.5836 74.2288 53.4463 73.6661 45.5512C71.6428 33.5273 70.3074 22.5908 62.6476 12.3313C60.1768 9.02202 54.2025 1.92232 49.5983 4.83895C46.8396 6.58651 47.3938 9.8679 47.3938 13.7394C47.3938 17.4698 47.4607 21.2544 47.3759 24.9722C46.9133 24.71 44.2403 22.3108 44.0108 21.5565C43.4797 19.8085 44.6004 1.72966 43.5471 0.0557985L42.5796 0C42.1975 1.17855 42.0785 21.316 42.5423 22.3987C42.6507 22.6514 47.7834 27.7056 48.2903 28.2057C49.9204 29.8137 53.0265 33.5768 54.4125 33.4068C54.8509 31.666 52.9723 30.9681 50.8653 28.691C48.2439 25.8575 48.9414 26.6876 48.9424 21.9718C48.9435 19.1263 48.9424 16.2807 48.9424 13.4346C48.9424 10.4574 48.3739 7.33078 50.5379 6.08854C53.854 4.18518 58.7224 9.87264 60.6316 12.2097C62.9897 15.0964 65.3252 19.3995 66.8849 23.3125C70.3916 32.1113 72.0449 42.0535 72.665 52.3651C72.8018 54.6422 73.1345 58.2131 72.3823 60.2544C70.2137 66.1382 64.2778 65.1386 60.0126 65.1402C56.1974 65.1417 55.4558 65.3602 52.3628 64.0232C52.6433 63.8863 52.4428 63.9042 52.9955 63.86C54.7941 63.7158 58.6208 64.7112 62.3849 61.2292C64.8147 58.9816 63.2829 60.8608 65.6858 60.0059C65.75 58.4747 65.5247 59.489 64.8068 58.2531C65.95 56.3755 66.109 54.7059 66.2059 52.2088C67.097 52.662 68.4508 54.5406 69.3772 53.9474C69.5704 53.7742 70.5158 53.5457 68.6588 52.0561C63.8482 48.1978 66.1185 48.8579 63.9282 46.1013C60.1294 41.3213 57.3775 42.6372 54.5246 41.0676L48.9487 43.3247L48.9429 36.4334C50.6115 37.2572 50.5415 38.8363 52.1954 38.2488C52.6791 36.7697 48.3087 33.3725 46.6395 31.6808C45.5515 30.578 44.6756 29.7127 43.5882 28.6247C42.5659 27.6019 41.5758 26.1912 40.1952 25.4906C38.7761 26.0107 32.5844 32.6288 30.5752 34.6053C29.8172 35.3506 28.1212 36.4502 28.0223 37.544C27.9002 38.8995 27.9139 37.7388 28.1423 38.2762L29.0187 38.2504C29.3882 38.1104 29.4645 37.9709 29.7088 37.7362C30.4836 36.9913 30.243 36.8545 31.3395 36.4439C31.2974 42.2824 31.3405 48.1431 31.3426 53.9847C31.3442 58.2289 31.4706 64.2548 24.7872 65.0475C22.3822 65.3328 18.9234 65.1412 16.4073 65.1433C5.19351 65.1538 7.45113 55.7534 7.91802 47.8773C12.4238 48.1115 13.8497 48.771 17.5533 46.2781C19.6777 44.848 21.5726 42.3419 22.1653 39.0137C22.6949 36.0376 22.7859 37.2219 22.048 34.6C20.7268 29.9064 18.1402 27.0687 12.4632 26.006C14.5456 16.1728 31.3974 -4.74629 31.3437 11.6039L31.3558 25.3496C31.339 27.6698 30.4031 27.7777 27.5306 30.6454C26.5095 31.665 25.5599 32.015 26.0215 33.4004C27.3485 33.5815 30.243 29.9937 31.9427 28.3562C32.6517 27.673 37.5291 22.9551 37.7428 22.5877C38.3481 21.5465 38.3113 1.447 37.797 0.0394779L36.8427 0.0157937C35.8389 1.78283 36.819 17.2203 36.4895 20.4585L36.1242 21.6992L36.1205 21.7008Z" fill="#00419E"/>
<path fill-rule="evenodd" clip-rule="evenodd" d="M45.4947 53.681C45.0794 48.2183 49.1619 43.7994 53.9088 43.3162C66.8591 41.9971 68.4766 61.0439 56.0637 62.3698C50.5168 62.9625 45.8774 58.7153 45.4947 53.681ZM20.4409 39.6564C19.1476 44.0384 14.6198 48.0073 8.75179 46.3681C4.20025 45.0964 0.343517 40.5628 2.00317 34.3995C3.14066 30.1748 7.96329 26.3581 13.616 27.833C18.0281 28.9842 22.1969 33.7068 20.4409 39.6569V39.6564ZM36.1205 21.7008C35.9831 22.4408 36.3326 21.8066 35.6505 22.6061L32.9223 25.1085C32.6491 19.7932 33.1728 14.1231 32.8628 8.86094C32.7212 6.45911 31.4679 4.97002 29.4772 4.31574C26.8706 3.4588 25.2857 4.86052 23.7044 6.08854C20.422 8.63829 18.5034 11.067 16.0684 14.6168C14.5471 16.8344 11.5584 22.7867 10.7857 25.8433C6.0215 26.9419 1.78946 28.4983 0.3672 34.5795C-1.33983 41.8755 3.28962 44.7143 6.34047 47.2782C6.55418 55.3544 3.83389 61.9825 10.6072 65.5713C13.4444 67.0746 17.4159 66.6735 20.9842 66.6777C25.4115 66.683 27.5864 66.6298 30.1551 64.0679C32.5307 61.6987 32.8839 59.1816 32.876 55.2054L32.8749 37.8256C32.8628 34.8611 32.4449 34.8522 34.1303 33.2967C35.3747 32.1487 39.184 28.0193 40.1925 27.5377C42.3401 29.6142 44.4851 31.6497 46.6348 33.8368C47.9734 35.1985 47.5733 44.2342 46.9396 45.1801C45.2162 47.7525 43.2492 49.8006 44.0593 54.6801C44.8493 59.4427 46.9622 59.7733 48.9608 62.6067C50.9516 65.4286 52.7223 66.6598 57.5623 66.6788C61.2448 66.6935 66.2811 67.1546 69.3441 65.765C76.3548 62.5836 74.2288 53.4463 73.6661 45.5512C71.6428 33.5273 70.3074 22.5908 62.6476 12.3313C60.1768 9.02202 54.2025 1.92232 49.5983 4.83895C46.8396 6.58651 47.3938 9.8679 47.3938 13.7394C47.3938 17.4698 47.4607 21.2544 47.3759 24.9722C46.9133 24.71 44.2403 22.3108 44.0108 21.5565C43.4797 19.8085 44.6004 1.72966 43.5471 0.0557985L42.5796 0C42.1975 1.17855 42.0785 21.316 42.5423 22.3987C42.6507 22.6514 47.7834 27.7056 48.2903 28.2057C49.9204 29.8137 53.0265 33.5768 54.4125 33.4068C54.8509 31.666 52.9723 30.9681 50.8653 28.691C48.2439 25.8575 48.9414 26.6876 48.9424 21.9718C48.9435 19.1263 48.9424 16.2807 48.9424 13.4346C48.9424 10.4574 48.3739 7.33078 50.5379 6.08854C53.854 4.18518 58.7224 9.87264 60.6316 12.2097C62.9897 15.0964 65.3252 19.3995 66.8849 23.3125C70.3916 32.1113 72.0449 42.0535 72.665 52.3651C72.8018 54.6422 73.1345 58.2131 72.3823 60.2544C70.2137 66.1382 64.2778 65.1386 60.0126 65.1402C56.1974 65.1417 55.4558 65.3602 52.3628 64.0232C52.6433 63.8863 52.4428 63.9042 52.9955 63.86C54.7941 63.7158 58.6208 64.7112 62.3849 61.2292C64.8147 58.9816 63.2829 60.8608 65.6858 60.0059C65.75 58.4747 65.5247 59.489 64.8068 58.2531C65.95 56.3755 66.109 54.7059 66.2059 52.2088C67.097 52.662 68.4508 54.5406 69.3772 53.9474C69.5704 53.7742 70.5158 53.5457 68.6588 52.0561C63.8482 48.1978 66.1185 48.8579 63.9282 46.1013C60.1294 41.3213 57.3775 42.6372 54.5246 41.0676L48.9487 43.3247L48.9429 36.4334C50.6115 37.2572 50.5415 38.8363 52.1954 38.2488C52.6791 36.7697 48.3087 33.3725 46.6395 31.6808C45.5515 30.578 44.6756 29.7127 43.5882 28.6247C42.5659 27.6019 41.5758 26.1912 40.1952 25.4906C38.7761 26.0107 32.5844 32.6288 30.5752 34.6053C29.8172 35.3506 28.1212 36.4502 28.0223 37.544C27.9002 38.8995 27.9139 37.7388 28.1423 38.2762L29.0187 38.2504C29.3882 38.1104 29.4645 37.9709 29.7088 37.7362C30.4836 36.9913 30.243 36.8545 31.3395 36.4439C31.2974 42.2824 31.3405 48.1431 31.3426 53.9847C31.3442 58.2289 31.4706 64.2548 24.7872 65.0475C22.3822 65.3328 18.9234 65.1412 16.4073 65.1433C5.19351 65.1538 7.45113 55.7534 7.91802 47.8773C12.4238 48.1115 13.8497 48.771 17.5533 46.2781C19.6777 44.848 21.5726 42.3419 22.1653 39.0137C22.6949 36.0376 22.7859 37.2219 22.048 34.6C20.7268 29.9064 18.1402 27.0687 12.4632 26.006C14.5456 16.1728 31.3974 -4.74629 31.3437 11.6039L31.3558 25.3496C31.339 27.6698 30.4031 27.7777 27.5306 30.6454C26.5095 31.665 25.5599 32.015 26.0215 33.4004C27.3485 33.5815 30.243 29.9937 31.9427 28.3562C32.6517 27.673 37.5291 22.9551 37.7428 22.5877C38.3481 21.5465 38.3113 1.447 37.797 0.0394779L36.8427 0.0157937C35.8389 1.78283 36.819 17.2203 36.4895 20.4585L36.1242 21.6992L36.1205 21.7008Z" fill="#00419E"/>
<path fill-rule="evenodd" clip-rule="evenodd" d="M45.4947 53.681C45.0794 48.2183 49.1619 43.7994 53.9088 43.3162C66.8591 41.9971 68.4766 61.0439 56.0637 62.3698C50.5168 62.9625 45.8774 58.7153 45.4947 53.681ZM20.4409 39.6564C19.1476 44.0384 14.6198 48.0073 8.75179 46.3681C4.20025 45.0964 0.343517 40.5628 2.00317 34.3995C3.14066 30.1748 7.96329 26.3581 13.616 27.833C18.0281 28.9842 22.1969 33.7068 20.4409 39.6569V39.6564ZM36.1205 21.7008C35.9831 22.4408 36.3326 21.8066 35.6505 22.6061L32.9223 25.1085C32.6491 19.7932 33.1728 14.1231 32.8628 8.86094C32.7212 6.45911 31.4679 4.97002 29.4772 4.31574C26.8706 3.4588 25.2857 4.86052 23.7044 6.08854C20.422 8.63829 18.5034 11.067 16.0684 14.6168C14.5471 16.8344 11.5584 22.7867 10.7857 25.8433C6.0215 26.9419 1.78946 28.4983 0.3672 34.5795C-1.33983 41.8755 3.28962 44.7143 6.34047 47.2782C6.55418 55.3544 3.83389 61.9825 10.6072 65.5713C13.4444 67.0746 17.4159 66.6735 20.9842 66.6777C25.4115 66.683 27.5864 66.6298 30.1551 64.0679C32.5307 61.6987 32.8839 59.1816 32.876 55.2054L32.8749 37.8256C32.8628 34.8611 32.4449 34.8522 34.1303 33.2967C35.3747 32.1487 39.184 28.0193 40.1925 27.5377C42.3401 29.6142 44.4851 31.6497 46.6348 33.8368C47.9734 35.1985 47.5733 44.2342 46.9396 45.1801C45.2162 47.7525 43.2492 49.8006 44.0593 54.6801C44.8493 59.4427 46.9622 59.7733 48.9608 62.6067C50.9516 65.4286 52.7223 66.6598 57.5623 66.6788C61.2448 66.6935 66.2811 67.1546 69.3441 65.765C76.3548 62.5836 74.2288 53.4463 73.6661 45.5512C71.6428 33.5273 70.3074 22.5908 62.6476 12.3313C60.1768 9.02202 54.2025 1.92232 49.5983 4.83895C46.8396 6.58651 47.3938 9.8679 47.3938 13.7394C47.3938 17.4698 47.4607 21.2544 47.3759 24.9722C46.9133 24.71 44.2403 22.3108 44.0108 21.5565C43.4797 19.8085 44.6004 1.72966 43.5471 0.0557985L42.5796 0C42.1975 1.17855 42.0785 21.316 42.5423 22.3987C42.6507 22.6514 47.7834 27.7056 48.2903 28.2057C49.9204 29.8137 53.0265 33.5768 54.4125 33.4068C54.8509 31.666 52.9723 30.9681 50.8653 28.691C48.2439 25.8575 48.9414 26.6876 48.9424 21.9718C48.9435 19.1263 48.9424 16.2807 48.9424 13.4346C48.9424 10.4574 48.3739 7.33078 50.5379 6.08854C53.854 4.18518 58.7224 9.87264 60.6316 12.2097C62.9897 15.0964 65.3252 19.3995 66.8849 23.3125C70.3916 32.1113 72.0449 42.0535 72.665 52.3651C72.8018 54.6422 73.1345 58.2131 72.3823 60.2544C70.2137 66.1382 64.2778 65.1386 60.0126 65.1402C56.1974 65.1417 55.4558 65.3602 52.3628 64.0232C52.6433 63.8863 52.4428 63.9042 52.9955 63.86C54.7941 63.7158 58.6208 64.7112 62.3849 61.2292C64.8147 58.9816 63.2829 60.8608 65.6858 60.0059C65.75 58.4747 65.5247 59.489 64.8068 58.2531C65.95 56.3755 66.109 54.7059 66.2059 52.2088C67.097 52.662 68.4508 54.5406 69.3772 53.9474C69.5704 53.7742 70.5158 53.5457 68.6588 52.0561C63.8482 48.1978 66.1185 48.8579 63.9282 46.1013C60.1294 41.3213 57.3775 42.6372 54.5246 41.0676L48.9487 43.3247L48.9429 36.4334C50.6115 37.2572 50.5415 38.8363 52.1954 38.2488C52.6791 36.7697 48.3087 33.3725 46.6395 31.6808C45.5515 30.578 44.6756 29.7127 43.5882 28.6247C42.5659 27.6019 41.5758 26.1912 40.1952 25.4906C38.7761 26.0107 32.5844 32.6288 30.5752 34.6053C29.8172 35.3506 28.1212 36.4502 28.0223 37.544C27.9002 38.8995 27.9139 37.7388 28.1423 38.2762L29.0187 38.2504C29.3882 38.1104 29.4645 37.9709 29.7088 37.7362C30.4836 36.9913 30.243 36.8545 31.3395 36.4439C31.2974 42.2824 31.3405 48.1431 31.3426 53.9847C31.3442 58.2289 31.4706 64.2548 24.7872 65.0475C22.3822 65.3328 18.9234 65.1412 16.4073 65.1433C5.19351 65.1538 7.45113 55.7534 7.91802 47.8773C12.4238 48.1115 13.8497 48.771 17.5533 46.2781C19.6777 44.848 21.5726 42.3419 22.1653 39.0137C22.6949 36.0376 22.7859 37.2219 22.048 34.6C20.7268 29.9064 18.1402 27.0687 12.4632 26.006C14.5456 16.1728 31.3974 -4.74629 31.3437 11.6039L31.3558 25.3496C31.339 27.6698 30.4031 27.7777 27.5306 30.6454C26.5095 31.665 25.5599 32.015 26.0215 33.4004C27.3485 33.5815 30.243 29.9937 31.9427 28.3562C32.6517 27.673 37.5291 22.9551 37.7428 22.5877C38.3481 21.5465 38.3113 1.447 37.797 0.0394779L36.8427 0.0157937C35.8389 1.78283 36.819 17.2203 36.4895 20.4585L36.1242 21.6992L36.1205 21.7008Z" fill="#00419E"/>
<path fill-rule="evenodd" clip-rule="evenodd" d="M45.4947 53.681C45.0794 48.2183 49.1619 43.7994 53.9088 43.3162C66.8591 41.9971 68.4766 61.0439 56.0637 62.3698C50.5168 62.9625 45.8774 58.7153 45.4947 53.681ZM20.4409 39.6564C19.1476 44.0384 14.6198 48.0073 8.75179 46.3681C4.20025 45.0964 0.343517 40.5628 2.00317 34.3995C3.14066 30.1748 7.96329 26.3581 13.616 27.833C18.0281 28.9842 22.1969 33.7068 20.4409 39.6569V39.6564ZM36.1205 21.7008C35.9831 22.4408 36.3326 21.8066 35.6505 22.6061L32.9223 25.1085C32.6491 19.7932 33.1728 14.1231 32.8628 8.86094C32.7212 6.45911 31.4679 4.97002 29.4772 4.31574C26.8706 3.4588 25.2857 4.86052 23.7044 6.08854C20.422 8.63829 18.5034 11.067 16.0684 14.6168C14.5471 16.8344 11.5584 22.7867 10.7857 25.8433C6.0215 26.9419 1.78946 28.4983 0.3672 34.5795C-1.33983 41.8755 3.28962 44.7143 6.34047 47.2782C6.55418 55.3544 3.83389 61.9825 10.6072 65.5713C13.4444 67.0746 17.4159 66.6735 20.9842 66.6777C25.4115 66.683 27.5864 66.6298 30.1551 64.0679C32.5307 61.6987 32.8839 59.1816 32.876 55.2054L32.8749 37.8256C32.8628 34.8611 32.4449 34.8522 34.1303 33.2967C35.3747 32.1487 39.184 28.0193 40.1925 27.5377C42.3401 29.6142 44.4851 31.6497 46.6348 33.8368C47.9734 35.1985 47.5733 44.2342 46.9396 45.1801C45.2162 47.7525 43.2492 49.8006 44.0593 54.6801C44.8493 59.4427 46.9622 59.7733 48.9608 62.6067C50.9516 65.4286 52.7223 66.6598 57.5623 66.6788C61.2448 66.6935 66.2811 67.1546 69.3441 65.765C76.3548 62.5836 74.2288 53.4463 73.6661 45.5512C71.6428 33.5273 70.3074 22.5908 62.6476 12.3313C60.1768 9.02202 54.2025 1.92232 49.5983 4.83895C46.8396 6.58651 47.3938 9.8679 47.3938 13.7394C47.3938 17.4698 47.4607 21.2544 47.3759 24.9722C46.9133 24.71 44.2403 22.3108 44.0108 21.5565C43.4797 19.8085 44.6004 1.72966 43.5471 0.0557985L42.5796 0C42.1975 1.17855 42.0785 21.316 42.5423 22.3987C42.6507 22.6514 47.7834 27.7056 48.2903 28.2057C49.9204 29.8137 53.0265 33.5768 54.4125 33.4068C54.8509 31.666 52.9723 30.9681 50.8653 28.691C48.2439 25.8575 48.9414 26.6876 48.9424 21.9718C48.9435 19.1263 48.9424 16.2807 48.9424 13.4346C48.9424 10.4574 48.3739 7.33078 50.5379 6.08854C53.854 4.18518 58.7224 9.87264 60.6316 12.2097C62.9897 15.0964 65.3252 19.3995 66.8849 23.3125C70.3916 32.1113 72.0449 42.0535 72.665 52.3651C72.8018 54.6422 73.1345 58.2131 72.3823 60.2544C70.2137 66.1382 64.2778 65.1386 60.0126 65.1402C56.1974 65.1417 55.4558 65.3602 52.3628 64.0232C52.6433 63.8863 52.4428 63.9042 52.9955 63.86C54.7941 63.7158 58.6208 64.7112 62.3849 61.2292C64.8147 58.9816 63.2829 60.8608 65.6858 60.0059C65.75 58.4747 65.5247 59.489 64.8068 58.2531C65.95 56.3755 66.109 54.7059 66.2059 52.2088C67.097 52.662 68.4508 54.5406 69.3772 53.9474C69.5704 53.7742 70.5158 53.5457 68.6588 52.0561C63.8482 48.1978 66.1185 48.8579 63.9282 46.1013C60.1294 41.3213 57.3775 42.6372 54.5246 41.0676L48.9487 43.3247L48.9429 36.4334C50.6115 37.2572 50.5415 38.8363 52.1954 38.2488C52.6791 36.7697 48.3087 33.3725 46.6395 31.6808C45.5515 30.578 44.6756 29.7127 43.5882 28.6247C42.5659 27.6019 41.5758 26.1912 40.1952 25.4906C38.7761 26.0107 32.5844 32.6288 30.5752 34.6053C29.8172 35.3506 28.1212 36.4502 28.0223 37.544C27.9002 38.8995 27.9139 37.7388 28.1423 38.2762L29.0187 38.2504C29.3882 38.1104 29.4645 37.9709 29.7088 37.7362C30.4836 36.9913 30.243 36.8545 31.3395 36.4439C31.2974 42.2824 31.3405 48.1431 31.3426 53.9847C31.3442 58.2289 31.4706 64.2548 24.7872 65.0475C22.3822 65.3328 18.9234 65.1412 16.4073 65.1433C5.19351 65.1538 7.45113 55.7534 7.91802 47.8773C12.4238 48.1115 13.8497 48.771 17.5533 46.2781C19.6777 44.848 21.5726 42.3419 22.1653 39.0137C22.6949 36.0376 22.7859 37.2219 22.048 34.6C20.7268 29.9064 18.1402 27.0687 12.4632 26.006C14.5456 16.1728 31.3974 -4.74629 31.3437 11.6039L31.3558 25.3496C31.339 27.6698 30.4031 27.7777 27.5306 30.6454C26.5095 31.665 25.5599 32.015 26.0215 33.4004C27.3485 33.5815 30.243 29.9937 31.9427 28.3562C32.6517 27.673 37.5291 22.9551 37.7428 22.5877C38.3481 21.5465 38.3113 1.447 37.797 0.0394779L36.8427 0.0157937C35.8389 1.78283 36.819 17.2203 36.4895 20.4585L36.1242 21.6992L36.1205 21.7008Z" fill="#00419E"/>
<path fill-rule="evenodd" clip-rule="evenodd" d="M45.4947 53.681C45.0794 48.2183 49.1619 43.7994 53.9088 43.3162C66.8591 41.9971 68.4766 61.0439 56.0637 62.3698C50.5168 62.9625 45.8774 58.7153 45.4947 53.681ZM20.4409 39.6564C19.1476 44.0384 14.6198 48.0073 8.75179 46.3681C4.20025 45.0964 0.343517 40.5628 2.00317 34.3995C3.14066 30.1748 7.96329 26.3581 13.616 27.833C18.0281 28.9842 22.1969 33.7068 20.4409 39.6569V39.6564ZM36.1205 21.7008C35.9831 22.4408 36.3326 21.8066 35.6505 22.6061L32.9223 25.1085C32.6491 19.7932 33.1728 14.1231 32.8628 8.86094C32.7212 6.45911 31.4679 4.97002 29.4772 4.31574C26.8706 3.4588 25.2857 4.86052 23.7044 6.08854C20.422 8.63829 18.5034 11.067 16.0684 14.6168C14.5471 16.8344 11.5584 22.7867 10.7857 25.8433C6.0215 26.9419 1.78946 28.4983 0.3672 34.5795C-1.33983 41.8755 3.28962 44.7143 6.34047 47.2782C6.55418 55.3544 3.83389 61.9825 10.6072 65.5713C13.4444 67.0746 17.4159 66.6735 20.9842 66.6777C25.4115 66.683 27.5864 66.6298 30.1551 64.0679C32.5307 61.6987 32.8839 59.1816 32.876 55.2054L32.8749 37.8256C32.8628 34.8611 32.4449 34.8522 34.1303 33.2967C35.3747 32.1487 39.184 28.0193 40.1925 27.5377C42.3401 29.6142 44.4851 31.6497 46.6348 33.8368C47.9734 35.1985 47.5733 44.2342 46.9396 45.1801C45.2162 47.7525 43.2492 49.8006 44.0593 54.6801C44.8493 59.4427 46.9622 59.7733 48.9608 62.6067C50.9516 65.4286 52.7223 66.6598 57.5623 66.6788C61.2448 66.6935 66.2811 67.1546 69.3441 65.765C76.3548 62.5836 74.2288 53.4463 73.6661 45.5512C71.6428 33.5273 70.3074 22.5908 62.6476 12.3313C60.1768 9.02202 54.2025 1.92232 49.5983 4.83895C46.8396 6.58651 47.3938 9.8679 47.3938 13.7394C47.3938 17.4698 47.4607 21.2544 47.3759 24.9722C46.9133 24.71 44.2403 22.3108 44.0108 21.5565C43.4797 19.8085 44.6004 1.72966 43.5471 0.0557985L42.5796 0C42.1975 1.17855 42.0785 21.316 42.5423 22.3987C42.6507 22.6514 47.7834 27.7056 48.2903 28.2057C49.9204 29.8137 53.0265 33.5768 54.4125 33.4068C54.8509 31.666 52.9723 30.9681 50.8653 28.691C48.2439 25.8575 48.9414 26.6876 48.9424 21.9718C48.9435 19.1263 48.9424 16.2807 48.9424 13.4346C48.9424 10.4574 48.3739 7.33078 50.5379 6.08854C53.854 4.18518 58.7224 9.87264 60.6316 12.2097C62.9897 15.0964 65.3252 19.3995 66.8849 23.3125C70.3916 32.1113 72.0449 42.0535 72.665 52.3651C72.8018 54.6422 73.1345 58.2131 72.3823 60.2544C70.2137 66.1382 64.2778 65.1386 60.0126 65.1402C56.1974 65.1417 55.4558 65.3602 52.3628 64.0232C52.6433 63.8863 52.4428 63.9042 52.9955 63.86C54.7941 63.7158 58.6208 64.7112 62.3849 61.2292C64.8147 58.9816 63.2829 60.8608 65.6858 60.0059C65.75 58.4747 65.5247 59.489 64.8068 58.2531C65.95 56.3755 66.109 54.7059 66.2059 52.2088C67.097 52.662 68.4508 54.5406 69.3772 53.9474C69.5704 53.7742 70.5158 53.5457 68.6588 52.0561C63.8482 48.1978 66.1185 48.8579 63.9282 46.1013C60.1294 41.3213 57.3775 42.6372 54.5246 41.0676L48.9487 43.3247L48.9429 36.4334C50.6115 37.2572 50.5415 38.8363 52.1954 38.2488C52.6791 36.7697 48.3087 33.3725 46.6395 31.6808C45.5515 30.578 44.6756 29.7127 43.5882 28.6247C42.5659 27.6019 41.5758 26.1912 40.1952 25.4906C38.7761 26.0107 32.5844 32.6288 30.5752 34.6053C29.8172 35.3506 28.1212 36.4502 28.0223 37.544C27.9002 38.8995 27.9139 37.7388 28.1423 38.2762L29.0187 38.2504C29.3882 38.1104 29.4645 37.9709 29.7088 37.7362C30.4836 36.9913 30.243 36.8545 31.3395 36.4439C31.2974 42.2824 31.3405 48.1431 31.3426 53.9847C31.3442 58.2289 31.4706 64.2548 24.7872 65.0475C22.3822 65.3328 18.9234 65.1412 16.4073 65.1433C5.19351 65.1538 7.45113 55.7534 7.91802 47.8773C12.4238 48.1115 13.8497 48.771 17.5533 46.2781C19.6777 44.848 21.5726 42.3419 22.1653 39.0137C22.6949 36.0376 22.7859 37.2219 22.048 34.6C20.7268 29.9064 18.1402 27.0687 12.4632 26.006C14.5456 16.1728 31.3974 -4.74629 31.3437 11.6039L31.3558 25.3496C31.339 27.6698 30.4031 27.7777 27.5306 30.6454C26.5095 31.665 25.5599 32.015 26.0215 33.4004C27.3485 33.5815 30.243 29.9937 31.9427 28.3562C32.6517 27.673 37.5291 22.9551 37.7428 22.5877C38.3481 21.5465 38.3113 1.447 37.797 0.0394779L36.8427 0.0157937C35.8389 1.78283 36.819 17.2203 36.4895 20.4585L36.1242 21.6992L36.1205 21.7008Z" fill="#00419E"/>
<path fill-rule="evenodd" clip-rule="evenodd" d="M45.4947 53.681C45.0794 48.2183 49.1619 43.7994 53.9088 43.3162C66.8591 41.9971 68.4766 61.0439 56.0637 62.3698C50.5168 62.9625 45.8774 58.7153 45.4947 53.681ZM20.4409 39.6564C19.1476 44.0384 14.6198 48.0073 8.75179 46.3681C4.20025 45.0964 0.343517 40.5628 2.00317 34.3995C3.14066 30.1748 7.96329 26.3581 13.616 27.833C18.0281 28.9842 22.1969 33.7068 20.4409 39.6569V39.6564ZM36.1205 21.7008C35.9831 22.4408 36.3326 21.8066 35.6505 22.6061L32.9223 25.1085C32.6491 19.7932 33.1728 14.1231 32.8628 8.86094C32.7212 6.45911 31.4679 4.97002 29.4772 4.31574C26.8706 3.4588 25.2857 4.86052 23.7044 6.08854C20.422 8.63829 18.5034 11.067 16.0684 14.6168C14.5471 16.8344 11.5584 22.7867 10.7857 25.8433C6.0215 26.9419 1.78946 28.4983 0.3672 34.5795C-1.33983 41.8755 3.28962 44.7143 6.34047 47.2782C6.55418 55.3544 3.83389 61.9825 10.6072 65.5713C13.4444 67.0746 17.4159 66.6735 20.9842 66.6777C25.4115 66.683 27.5864 66.6298 30.1551 64.0679C32.5307 61.6987 32.8839 59.1816 32.876 55.2054L32.8749 37.8256C32.8628 34.8611 32.4449 34.8522 34.1303 33.2967C35.3747 32.1487 39.184 28.0193 40.1925 27.5377C42.3401 29.6142 44.4851 31.6497 46.6348 33.8368C47.9734 35.1985 47.5733 44.2342 46.9396 45.1801C45.2162 47.7525 43.2492 49.8006 44.0593 54.6801C44.8493 59.4427 46.9622 59.7733 48.9608 62.6067C50.9516 65.4286 52.7223 66.6598 57.5623 66.6788C61.2448 66.6935 66.2811 67.1546 69.3441 65.765C76.3548 62.5836 74.2288 53.4463 73.6661 45.5512C71.6428 33.5273 70.3074 22.5908 62.6476 12.3313C60.1768 9.02202 54.2025 1.92232 49.5983 4.83895C46.8396 6.58651 47.3938 9.8679 47.3938 13.7394C47.3938 17.4698 47.4607 21.2544 47.3759 24.9722C46.9133 24.71 44.2403 22.3108 44.0108 21.5565C43.4797 19.8085 44.6004 1.72966 43.5471 0.0557985L42.5796 0C42.1975 1.17855 42.0785 21.316 42.5423 22.3987C42.6507 22.6514 47.7834 27.7056 48.2903 28.2057C49.9204 29.8137 53.0265 33.5768 54.4125 33.4068C54.8509 31.666 52.9723 30.9681 50.8653 28.691C48.2439 25.8575 48.9414 26.6876 48.9424 21.9718C48.9435 19.1263 48.9424 16.2807 48.9424 13.4346C48.9424 10.4574 48.3739 7.33078 50.5379 6.08854C53.854 4.18518 58.7224 9.87264 60.6316 12.2097C62.9897 15.0964 65.3252 19.3995 66.8849 23.3125C70.3916 32.1113 72.0449 42.0535 72.665 52.3651C72.8018 54.6422 73.1345 58.2131 72.3823 60.2544C70.2137 66.1382 64.2778 65.1386 60.0126 65.1402C56.1974 65.1417 55.4558 65.3602 52.3628 64.0232C52.6433 63.8863 52.4428 63.9042 52.9955 63.86C54.7941 63.7158 58.6208 64.7112 62.3849 61.2292C64.8147 58.9816 63.2829 60.8608 65.6858 60.0059C65.75 58.4747 65.5247 59.489 64.8068 58.2531C65.95 56.3755 66.109 54.7059 66.2059 52.2088C67.097 52.662 68.4508 54.5406 69.3772 53.9474C69.5704 53.7742 70.5158 53.5457 68.6588 52.0561C63.8482 48.1978 66.1185 48.8579 63.9282 46.1013C60.1294 41.3213 57.3775 42.6372 54.5246 41.0676L48.9487 43.3247L48.9429 36.4334C50.6115 37.2572 50.5415 38.8363 52.1954 38.2488C52.6791 36.7697 48.3087 33.3725 46.6395 31.6808C45.5515 30.578 44.6756 29.7127 43.5882 28.6247C42.5659 27.6019 41.5758 26.1912 40.1952 25.4906C38.7761 26.0107 32.5844 32.6288 30.5752 34.6053C29.8172 35.3506 28.1212 36.4502 28.0223 37.544C27.9002 38.8995 27.9139 37.7388 28.1423 38.2762L29.0187 38.2504C29.3882 38.1104 29.4645 37.9709 29.7088 37.7362C30.4836 36.9913 30.243 36.8545 31.3395 36.4439C31.2974 42.2824 31.3405 48.1431 31.3426 53.9847C31.3442 58.2289 31.4706 64.2548 24.7872 65.0475C22.3822 65.3328 18.9234 65.1412 16.4073 65.1433C5.19351 65.1538 7.45113 55.7534 7.91802 47.8773C12.4238 48.1115 13.8497 48.771 17.5533 46.2781C19.6777 44.848 21.5726 42.3419 22.1653 39.0137C22.6949 36.0376 22.7859 37.2219 22.048 34.6C20.7268 29.9064 18.1402 27.0687 12.4632 26.006C14.5456 16.1728 31.3974 -4.74629 31.3437 11.6039L31.3558 25.3496C31.339 27.6698 30.4031 27.7777 27.5306 30.6454C26.5095 31.665 25.5599 32.015 26.0215 33.4004C27.3485 33.5815 30.243 29.9937 31.9427 28.3562C32.6517 27.673 37.5291 22.9551 37.7428 22.5877C38.3481 21.5465 38.3113 1.447 37.797 0.0394779L36.8427 0.0157937C35.8389 1.78283 36.819 17.2203 36.4895 20.4585L36.1242 21.6992L36.1205 21.7008Z" fill="#00419E"/>
<path fill-rule="evenodd" clip-rule="evenodd" d="M27.7908 52.8776C28.5609 51.1554 25.2416 49.1752 25.0321 47.5355C24.7705 45.4874 27.316 42.9945 26.1669 41.1611C24.7305 41.239 25.0063 41.6564 24.5394 43.2124C24.2978 44.0167 24.0035 44.9968 23.7635 45.7958C22.766 49.1141 20.6805 47.0286 20.6653 49.731C21.657 49.99 21.4601 49.8315 22.4765 49.5246C22.4086 50.5421 22.3839 50.7627 22.8129 51.3564C24.3167 51.0848 23.6219 50.8858 24.3373 49.7284C25.6284 50.8074 26.2448 53.2751 27.7897 52.8776H27.7908Z" fill="#00419E"/>
<path fill-rule="evenodd" clip-rule="evenodd" d="M27.7908 52.8776C28.5609 51.1554 25.2416 49.1752 25.0321 47.5355C24.7705 45.4874 27.316 42.9945 26.1669 41.1611C24.7305 41.239 25.0063 41.6564 24.5394 43.2124C24.2978 44.0167 24.0035 44.9968 23.7635 45.7958C22.766 49.1141 20.6805 47.0286 20.6653 49.731C21.657 49.99 21.4601 49.8315 22.4765 49.5246C22.4086 50.5421 22.3839 50.7627 22.8129 51.3564C24.3167 51.0848 23.6219 50.8858 24.3373 49.7284C25.6284 50.8074 26.2448 53.2751 27.7897 52.8776H27.7908Z" fill="#00419E"/>
<path fill-rule="evenodd" clip-rule="evenodd" d="M27.7908 52.8776C28.5609 51.1554 25.2416 49.1752 25.0321 47.5355C24.7705 45.4874 27.316 42.9945 26.1669 41.1611C24.7305 41.239 25.0063 41.6564 24.5394 43.2124C24.2978 44.0167 24.0035 44.9968 23.7635 45.7958C22.766 49.1141 20.6805 47.0286 20.6653 49.731C21.657 49.99 21.4601 49.8315 22.4765 49.5246C22.4086 50.5421 22.3839 50.7627 22.8129 51.3564C24.3167 51.0848 23.6219 50.8858 24.3373 49.7284C25.6284 50.8074 26.2448 53.2751 27.7897 52.8776H27.7908Z" fill="#00419E"/>
<path fill-rule="evenodd" clip-rule="evenodd" d="M27.7908 52.8776C28.5609 51.1554 25.2416 49.1752 25.0321 47.5355C24.7705 45.4874 27.316 42.9945 26.1669 41.1611C24.7305 41.239 25.0063 41.6564 24.5394 43.2124C24.2978 44.0167 24.0035 44.9968 23.7635 45.7958C22.766 49.1141 20.6805 47.0286 20.6653 49.731C21.657 49.99 21.4601 49.8315 22.4765 49.5246C22.4086 50.5421 22.3839 50.7627 22.8129 51.3564C24.3167 51.0848 23.6219 50.8858 24.3373 49.7284C25.6284 50.8074 26.2448 53.2751 27.7897 52.8776H27.7908Z" fill="#00419E"/>
<path fill-rule="evenodd" clip-rule="evenodd" d="M27.7908 52.8776C28.5609 51.1554 25.2416 49.1752 25.0321 47.5355C24.7705 45.4874 27.316 42.9945 26.1669 41.1611C24.7305 41.239 25.0063 41.6564 24.5394 43.2124C24.2978 44.0167 24.0035 44.9968 23.7635 45.7958C22.766 49.1141 20.6805 47.0286 20.6653 49.731C21.657 49.99 21.4601 49.8315 22.4765 49.5246C22.4086 50.5421 22.3839 50.7627 22.8129 51.3564C24.3167 51.0848 23.6219 50.8858 24.3373 49.7284C25.6284 50.8074 26.2448 53.2751 27.7897 52.8776H27.7908Z" fill="#00419E"/>
<path fill-rule="evenodd" clip-rule="evenodd" d="M27.7908 52.8776C28.5609 51.1554 25.2416 49.1752 25.0321 47.5355C24.7705 45.4874 27.316 42.9945 26.1669 41.1611C24.7305 41.239 25.0063 41.6564 24.5394 43.2124C24.2978 44.0167 24.0035 44.9968 23.7635 45.7958C22.766 49.1141 20.6805 47.0286 20.6653 49.731C21.657 49.99 21.4601 49.8315 22.4765 49.5246C22.4086 50.5421 22.3839 50.7627 22.8129 51.3564C24.3167 51.0848 23.6219 50.8858 24.3373 49.7284C25.6284 50.8074 26.2448 53.2751 27.7897 52.8776H27.7908Z" fill="#00419E"/>
<path fill-rule="evenodd" clip-rule="evenodd" d="M19.7654 26.805C19.1522 26.1939 17.8047 24.16 16.2234 24.5027C16.1413 25.7923 18.3189 27.6083 19.8591 29.199C20.486 29.8464 22.9773 32.8204 23.7906 32.8941C25.4829 33.0478 24.0938 33.0905 24.6728 32.5857C25.0765 31.4756 22.1994 29.6917 21.6182 28.6516C20.6681 26.9503 23.0068 24.0116 21.5951 22.3672C19.3975 22.6441 20.9797 24.8811 19.7659 26.805H19.7654Z" fill="#00419E"/>
<path fill-rule="evenodd" clip-rule="evenodd" d="M19.7654 26.805C19.1522 26.1939 17.8047 24.16 16.2234 24.5027C16.1413 25.7923 18.3189 27.6083 19.8591 29.199C20.486 29.8464 22.9773 32.8204 23.7906 32.8941C25.4829 33.0478 24.0938 33.0905 24.6728 32.5857C25.0765 31.4756 22.1994 29.6917 21.6182 28.6516C20.6681 26.9503 23.0068 24.0116 21.5951 22.3672C19.3975 22.6441 20.9797 24.8811 19.7659 26.805H19.7654Z" fill="#00419E"/>
<path fill-rule="evenodd" clip-rule="evenodd" d="M19.7654 26.805C19.1522 26.1939 17.8047 24.16 16.2234 24.5027C16.1413 25.7923 18.3189 27.6083 19.8591 29.199C20.486 29.8464 22.9773 32.8204 23.7906 32.8941C25.4829 33.0478 24.0938 33.0905 24.6728 32.5857C25.0765 31.4756 22.1994 29.6917 21.6182 28.6516C20.6681 26.9503 23.0068 24.0116 21.5951 22.3672C19.3975 22.6441 20.9797 24.8811 19.7659 26.805H19.7654Z" fill="#00419E"/>
<path fill-rule="evenodd" clip-rule="evenodd" d="M19.7654 26.805C19.1522 26.1939 17.8047 24.16 16.2234 24.5027C16.1413 25.7923 18.3189 27.6083 19.8591 29.199C20.486 29.8464 22.9773 32.8204 23.7906 32.8941C25.4829 33.0478 24.0938 33.0905 24.6728 32.5857C25.0765 31.4756 22.1994 29.6917 21.6182 28.6516C20.6681 26.9503 23.0068 24.0116 21.5951 22.3672C19.3975 22.6441 20.9797 24.8811 19.7659 26.805H19.7654Z" fill="#00419E"/>
<path fill-rule="evenodd" clip-rule="evenodd" d="M19.7654 26.805C19.1522 26.1939 17.8047 24.16 16.2234 24.5027C16.1413 25.7923 18.3189 27.6083 19.8591 29.199C20.486 29.8464 22.9773 32.8204 23.7906 32.8941C25.4829 33.0478 24.0938 33.0905 24.6728 32.5857C25.0765 31.4756 22.1994 29.6917 21.6182 28.6516C20.6681 26.9503 23.0068 24.0116 21.5951 22.3672C19.3975 22.6441 20.9797 24.8811 19.7659 26.805H19.7654Z" fill="#00419E"/>
<path fill-rule="evenodd" clip-rule="evenodd" d="M19.7654 26.805C19.1522 26.1939 17.8047 24.16 16.2234 24.5027C16.1413 25.7923 18.3189 27.6083 19.8591 29.199C20.486 29.8464 22.9773 32.8204 23.7906 32.8941C25.4829 33.0478 24.0938 33.0905 24.6728 32.5857C25.0765 31.4756 22.1994 29.6917 21.6182 28.6516C20.6681 26.9503 23.0068 24.0116 21.5951 22.3672C19.3975 22.6441 20.9797 24.8811 19.7659 26.805H19.7654Z" fill="#00419E"/>
<path fill-rule="evenodd" clip-rule="evenodd" d="M58.8287 28.736L56.0468 31.4389C55.3326 32.3258 55.4184 31.6079 55.6105 32.7459C57.0406 33.446 58.1997 31.1494 60.45 29.1197C61.5527 28.1254 64.3893 26.0141 63.983 24.3961C62.0238 24.3276 61.987 25.9915 60.3436 26.8637C60.1889 25.9794 60.0547 25.143 59.9188 24.205C59.683 22.5774 59.8925 22.3858 58.4966 22.3574C57.7712 24.0376 58.9956 26.6384 58.8287 28.7355V28.736Z" fill="#00419E"/>
<path fill-rule="evenodd" clip-rule="evenodd" d="M58.8287 28.736L56.0468 31.4389C55.3326 32.3258 55.4184 31.6079 55.6105 32.7459C57.0406 33.446 58.1997 31.1494 60.45 29.1197C61.5527 28.1254 64.3893 26.0141 63.983 24.3961C62.0238 24.3276 61.987 25.9915 60.3436 26.8637C60.1889 25.9794 60.0547 25.143 59.9188 24.205C59.683 22.5774 59.8925 22.3858 58.4966 22.3574C57.7712 24.0376 58.9956 26.6384 58.8287 28.7355V28.736Z" fill="#00419E"/>
<path fill-rule="evenodd" clip-rule="evenodd" d="M58.8287 28.736L56.0468 31.4389C55.3326 32.3258 55.4184 31.6079 55.6105 32.7459C57.0406 33.446 58.1997 31.1494 60.45 29.1197C61.5527 28.1254 64.3893 26.0141 63.983 24.3961C62.0238 24.3276 61.987 25.9915 60.3436 26.8637C60.1889 25.9794 60.0547 25.143 59.9188 24.205C59.683 22.5774 59.8925 22.3858 58.4966 22.3574C57.7712 24.0376 58.9956 26.6384 58.8287 28.7355V28.736Z" fill="#00419E"/>
<path fill-rule="evenodd" clip-rule="evenodd" d="M58.8287 28.736L56.0468 31.4389C55.3326 32.3258 55.4184 31.6079 55.6105 32.7459C57.0406 33.446 58.1997 31.1494 60.45 29.1197C61.5527 28.1254 64.3893 26.0141 63.983 24.3961C62.0238 24.3276 61.987 25.9915 60.3436 26.8637C60.1889 25.9794 60.0547 25.143 59.9188 24.205C59.683 22.5774 59.8925 22.3858 58.4966 22.3574C57.7712 24.0376 58.9956 26.6384 58.8287 28.7355V28.736Z" fill="#00419E"/>
<path fill-rule="evenodd" clip-rule="evenodd" d="M58.8287 28.736L56.0468 31.4389C55.3326 32.3258 55.4184 31.6079 55.6105 32.7459C57.0406 33.446 58.1997 31.1494 60.45 29.1197C61.5527 28.1254 64.3893 26.0141 63.983 24.3961C62.0238 24.3276 61.987 25.9915 60.3436 26.8637C60.1889 25.9794 60.0547 25.143 59.9188 24.205C59.683 22.5774 59.8925 22.3858 58.4966 22.3574C57.7712 24.0376 58.9956 26.6384 58.8287 28.7355V28.736Z" fill="#00419E"/>
<path fill-rule="evenodd" clip-rule="evenodd" d="M58.8287 28.736L56.0468 31.4389C55.3326 32.3258 55.4184 31.6079 55.6105 32.7459C57.0406 33.446 58.1997 31.1494 60.45 29.1197C61.5527 28.1254 64.3893 26.0141 63.983 24.3961C62.0238 24.3276 61.987 25.9915 60.3436 26.8637C60.1889 25.9794 60.0547 25.143 59.9188 24.205C59.683 22.5774 59.8925 22.3858 58.4966 22.3574C57.7712 24.0376 58.9956 26.6384 58.8287 28.7355V28.736Z" fill="#00419E"/>
<path fill-rule="evenodd" clip-rule="evenodd" d="M53.6449 26.0198C53.6739 25.9513 53.7007 25.7634 53.7044 25.805L53.0627 22.2293C52.6532 19.3585 53.2338 16.5756 54.5461 14.0574C55.2451 12.7157 56.3294 12.0093 55.9636 10.5097C51.4563 10.277 49.6919 27.4946 53.6454 26.0192L53.6449 26.0198Z" fill="#00419E"/>
<path fill-rule="evenodd" clip-rule="evenodd" d="M53.6449 26.0198C53.6739 25.9513 53.7007 25.7634 53.7044 25.805L53.0627 22.2293C52.6532 19.3585 53.2338 16.5756 54.5461 14.0574C55.2451 12.7157 56.3294 12.0093 55.9636 10.5097C51.4563 10.277 49.6919 27.4946 53.6454 26.0192L53.6449 26.0198Z" fill="#00419E"/>
<path fill-rule="evenodd" clip-rule="evenodd" d="M53.6449 26.0198C53.6739 25.9513 53.7007 25.7634 53.7044 25.805L53.0627 22.2293C52.6532 19.3585 53.2338 16.5756 54.5461 14.0574C55.2451 12.7157 56.3294 12.0093 55.9636 10.5097C51.4563 10.277 49.6919 27.4946 53.6454 26.0192L53.6449 26.0198Z" fill="#00419E"/>
<path fill-rule="evenodd" clip-rule="evenodd" d="M53.6449 26.0198C53.6739 25.9513 53.7007 25.7634 53.7044 25.805L53.0627 22.2293C52.6532 19.3585 53.2338 16.5756 54.5461 14.0574C55.2451 12.7157 56.3294 12.0093 55.9636 10.5097C51.4563 10.277 49.6919 27.4946 53.6454 26.0192L53.6449 26.0198Z" fill="#00419E"/>
<path fill-rule="evenodd" clip-rule="evenodd" d="M53.6449 26.0198C53.6739 25.9513 53.7007 25.7634 53.7044 25.805L53.0627 22.2293C52.6532 19.3585 53.2338 16.5756 54.5461 14.0574C55.2451 12.7157 56.3294 12.0093 55.9636 10.5097C51.4563 10.277 49.6919 27.4946 53.6454 26.0192L53.6449 26.0198Z" fill="#00419E"/>
<path fill-rule="evenodd" clip-rule="evenodd" d="M53.6449 26.0198C53.6739 25.9513 53.7007 25.7634 53.7044 25.805L53.0627 22.2293C52.6532 19.3585 53.2338 16.5756 54.5461 14.0574C55.2451 12.7157 56.3294 12.0093 55.9636 10.5097C51.4563 10.277 49.6919 27.4946 53.6454 26.0192L53.6449 26.0198Z" fill="#00419E"/>
<path fill-rule="evenodd" clip-rule="evenodd" d="M65.3896 36.6898C66.0028 35.2022 66.5555 36.1481 66.3139 34.6122C66.0623 34.5132 66.0802 34.4516 65.5538 34.5164L65.108 34.6375C64.979 34.6927 64.3773 35.2622 64.2642 35.3738C62.035 37.573 60.1674 35.0417 57.6245 35.9581C57.7214 38.3521 59.1978 36.8866 62.4087 37.8552C64.5379 38.4973 64.1694 40.7555 66.307 40.4686C66.4765 39.2622 66.1249 39.2658 65.7222 38.3305C67.2734 38.4894 67.3614 38.9005 68.1462 37.8278C67.5972 36.5577 66.8639 36.8703 65.3901 36.6903L65.3896 36.6898Z" fill="#00419E"/>
<path fill-rule="evenodd" clip-rule="evenodd" d="M65.3896 36.6898C66.0028 35.2022 66.5555 36.1481 66.3139 34.6122C66.0623 34.5132 66.0802 34.4516 65.5538 34.5164L65.108 34.6375C64.979 34.6927 64.3773 35.2622 64.2642 35.3738C62.035 37.573 60.1674 35.0417 57.6245 35.9581C57.7214 38.3521 59.1978 36.8866 62.4087 37.8552C64.5379 38.4973 64.1694 40.7555 66.307 40.4686C66.4765 39.2622 66.1249 39.2658 65.7222 38.3305C67.2734 38.4894 67.3614 38.9005 68.1462 37.8278C67.5972 36.5577 66.8639 36.8703 65.3901 36.6903L65.3896 36.6898Z" fill="#00419E"/>
<path fill-rule="evenodd" clip-rule="evenodd" d="M65.3896 36.6898C66.0028 35.2022 66.5555 36.1481 66.3139 34.6122C66.0623 34.5132 66.0802 34.4516 65.5538 34.5164L65.108 34.6375C64.979 34.6927 64.3773 35.2622 64.2642 35.3738C62.035 37.573 60.1674 35.0417 57.6245 35.9581C57.7214 38.3521 59.1978 36.8866 62.4087 37.8552C64.5379 38.4973 64.1694 40.7555 66.307 40.4686C66.4765 39.2622 66.1249 39.2658 65.7222 38.3305C67.2734 38.4894 67.3614 38.9005 68.1462 37.8278C67.5972 36.5577 66.8639 36.8703 65.3901 36.6903L65.3896 36.6898Z" fill="#00419E"/>
<path fill-rule="evenodd" clip-rule="evenodd" d="M65.3896 36.6898C66.0028 35.2022 66.5555 36.1481 66.3139 34.6122C66.0623 34.5132 66.0802 34.4516 65.5538 34.5164L65.108 34.6375C64.979 34.6927 64.3773 35.2622 64.2642 35.3738C62.035 37.573 60.1674 35.0417 57.6245 35.9581C57.7214 38.3521 59.1978 36.8866 62.4087 37.8552C64.5379 38.4973 64.1694 40.7555 66.307 40.4686C66.4765 39.2622 66.1249 39.2658 65.7222 38.3305C67.2734 38.4894 67.3614 38.9005 68.1462 37.8278C67.5972 36.5577 66.8639 36.8703 65.3901 36.6903L65.3896 36.6898Z" fill="#00419E"/>
<path fill-rule="evenodd" clip-rule="evenodd" d="M65.3896 36.6898C66.0028 35.2022 66.5555 36.1481 66.3139 34.6122C66.0623 34.5132 66.0802 34.4516 65.5538 34.5164L65.108 34.6375C64.979 34.6927 64.3773 35.2622 64.2642 35.3738C62.035 37.573 60.1674 35.0417 57.6245 35.9581C57.7214 38.3521 59.1978 36.8866 62.4087 37.8552C64.5379 38.4973 64.1694 40.7555 66.307 40.4686C66.4765 39.2622 66.1249 39.2658 65.7222 38.3305C67.2734 38.4894 67.3614 38.9005 68.1462 37.8278C67.5972 36.5577 66.8639 36.8703 65.3901 36.6903L65.3896 36.6898Z" fill="#00419E"/>
<path fill-rule="evenodd" clip-rule="evenodd" d="M65.3896 36.6898C66.0028 35.2022 66.5555 36.1481 66.3139 34.6122C66.0623 34.5132 66.0802 34.4516 65.5538 34.5164L65.108 34.6375C64.979 34.6927 64.3773 35.2622 64.2642 35.3738C62.035 37.573 60.1674 35.0417 57.6245 35.9581C57.7214 38.3521 59.1978 36.8866 62.4087 37.8552C64.5379 38.4973 64.1694 40.7555 66.307 40.4686C66.4765 39.2622 66.1249 39.2658 65.7222 38.3305C67.2734 38.4894 67.3614 38.9005 68.1462 37.8278C67.5972 36.5577 66.8639 36.8703 65.3901 36.6903L65.3896 36.6898Z" fill="#00419E"/>
<path fill-rule="evenodd" clip-rule="evenodd" d="M30.0788 25.5871C30.2251 23.3085 27.849 24.1959 26.7821 20.1513C26.1394 17.7136 27.449 13.609 26.8753 12.4273C24.5008 12.1609 24.8882 18.7616 25.1956 20.2207C25.6872 22.552 27.7659 25.9314 30.0782 25.5866L30.0788 25.5871Z" fill="#00419E"/>
<path fill-rule="evenodd" clip-rule="evenodd" d="M30.0788 25.5871C30.2251 23.3085 27.849 24.1959 26.7821 20.1513C26.1394 17.7136 27.449 13.609 26.8753 12.4273C24.5008 12.1609 24.8882 18.7616 25.1956 20.2207C25.6872 22.552 27.7659 25.9314 30.0782 25.5866L30.0788 25.5871Z" fill="#00419E"/>
<path fill-rule="evenodd" clip-rule="evenodd" d="M30.0788 25.5871C30.2251 23.3085 27.849 24.1959 26.7821 20.1513C26.1394 17.7136 27.449 13.609 26.8753 12.4273C24.5008 12.1609 24.8882 18.7616 25.1956 20.2207C25.6872 22.552 27.7659 25.9314 30.0782 25.5866L30.0788 25.5871Z" fill="#00419E"/>
<path fill-rule="evenodd" clip-rule="evenodd" d="M30.0788 25.5871C30.2251 23.3085 27.849 24.1959 26.7821 20.1513C26.1394 17.7136 27.449 13.609 26.8753 12.4273C24.5008 12.1609 24.8882 18.7616 25.1956 20.2207C25.6872 22.552 27.7659 25.9314 30.0782 25.5866L30.0788 25.5871Z" fill="#00419E"/>
<path fill-rule="evenodd" clip-rule="evenodd" d="M30.0788 25.5871C30.2251 23.3085 27.849 24.1959 26.7821 20.1513C26.1394 17.7136 27.449 13.609 26.8753 12.4273C24.5008 12.1609 24.8882 18.7616 25.1956 20.2207C25.6872 22.552 27.7659 25.9314 30.0782 25.5866L30.0788 25.5871Z" fill="#00419E"/>
<path fill-rule="evenodd" clip-rule="evenodd" d="M30.0788 25.5871C30.2251 23.3085 27.849 24.1959 26.7821 20.1513C26.1394 17.7136 27.449 13.609 26.8753 12.4273C24.5008 12.1609 24.8882 18.7616 25.1956 20.2207C25.6872 22.552 27.7659 25.9314 30.0782 25.5866L30.0788 25.5871Z" fill="#00419E"/>
<path fill-rule="evenodd" clip-rule="evenodd" d="M30.0086 57.3394C29.5201 55.1365 24.3322 56.2235 22.7415 56.972C21.2019 57.6968 18.6916 60.177 18.6821 62.3283C18.6795 62.8779 19.2943 64.6786 20.4686 61.7341C22.8894 55.6645 28.6274 58.739 30.0086 57.3394Z" fill="#00419E"/>
<path fill-rule="evenodd" clip-rule="evenodd" d="M30.0086 57.3394C29.5201 55.1365 24.3322 56.2235 22.7415 56.972C21.2019 57.6968 18.6916 60.177 18.6821 62.3283C18.6795 62.8779 19.2943 64.6786 20.4686 61.7341C22.8894 55.6645 28.6274 58.739 30.0086 57.3394Z" fill="#00419E"/>
<path fill-rule="evenodd" clip-rule="evenodd" d="M30.0086 57.3394C29.5201 55.1365 24.3322 56.2235 22.7415 56.972C21.2019 57.6968 18.6916 60.177 18.6821 62.3283C18.6795 62.8779 19.2943 64.6786 20.4686 61.7341C22.8894 55.6645 28.6274 58.739 30.0086 57.3394Z" fill="#00419E"/>
<path fill-rule="evenodd" clip-rule="evenodd" d="M30.0086 57.3394C29.5201 55.1365 24.3322 56.2235 22.7415 56.972C21.2019 57.6968 18.6916 60.177 18.6821 62.3283C18.6795 62.8779 19.2943 64.6786 20.4686 61.7341C22.8894 55.6645 28.6274 58.739 30.0086 57.3394Z" fill="#00419E"/>
<path fill-rule="evenodd" clip-rule="evenodd" d="M30.0086 57.3394C29.5201 55.1365 24.3322 56.2235 22.7415 56.972C21.2019 57.6968 18.6916 60.177 18.6821 62.3283C18.6795 62.8779 19.2943 64.6786 20.4686 61.7341C22.8894 55.6645 28.6274 58.739 30.0086 57.3394Z" fill="#00419E"/>
<path fill-rule="evenodd" clip-rule="evenodd" d="M30.0086 57.3394C29.5201 55.1365 24.3322 56.2235 22.7415 56.972C21.2019 57.6968 18.6916 60.177 18.6821 62.3283C18.6795 62.8779 19.2943 64.6786 20.4686 61.7341C22.8894 55.6645 28.6274 58.739 30.0086 57.3394Z" fill="#00419E"/>
<path fill-rule="evenodd" clip-rule="evenodd" d="M10.791 54.1088C12.228 54.2625 13.257 52.366 14.3961 51.988C14.5672 53.5903 14.1434 55.3694 14.8872 56.5111C16.3842 56.3369 16.0157 55.99 16.0157 54.2904L15.802 49.4204C14.5793 49.323 14.4972 49.5372 13.826 50.1747C12.0479 51.8648 10.1204 52.4465 10.791 54.1077V54.1088Z" fill="#00419E"/>
<path fill-rule="evenodd" clip-rule="evenodd" d="M10.791 54.1088C12.228 54.2625 13.257 52.366 14.3961 51.988C14.5672 53.5903 14.1434 55.3694 14.8872 56.5111C16.3842 56.3369 16.0157 55.99 16.0157 54.2904L15.802 49.4204C14.5793 49.323 14.4972 49.5372 13.826 50.1747C12.0479 51.8648 10.1204 52.4465 10.791 54.1077V54.1088Z" fill="#00419E"/>
<path fill-rule="evenodd" clip-rule="evenodd" d="M10.791 54.1088C12.228 54.2625 13.257 52.366 14.3961 51.988C14.5672 53.5903 14.1434 55.3694 14.8872 56.5111C16.3842 56.3369 16.0157 55.99 16.0157 54.2904L15.802 49.4204C14.5793 49.323 14.4972 49.5372 13.826 50.1747C12.0479 51.8648 10.1204 52.4465 10.791 54.1077V54.1088Z" fill="#00419E"/>
<path fill-rule="evenodd" clip-rule="evenodd" d="M10.791 54.1088C12.228 54.2625 13.257 52.366 14.3961 51.988C14.5672 53.5903 14.1434 55.3694 14.8872 56.5111C16.3842 56.3369 16.0157 55.99 16.0157 54.2904L15.802 49.4204C14.5793 49.323 14.4972 49.5372 13.826 50.1747C12.0479 51.8648 10.1204 52.4465 10.791 54.1077V54.1088Z" fill="#00419E"/>
<path fill-rule="evenodd" clip-rule="evenodd" d="M10.791 54.1088C12.228 54.2625 13.257 52.366 14.3961 51.988C14.5672 53.5903 14.1434 55.3694 14.8872 56.5111C16.3842 56.3369 16.0157 55.99 16.0157 54.2904L15.802 49.4204C14.5793 49.323 14.4972 49.5372 13.826 50.1747C12.0479 51.8648 10.1204 52.4465 10.791 54.1077V54.1088Z" fill="#00419E"/>
<path fill-rule="evenodd" clip-rule="evenodd" d="M10.791 54.1088C12.228 54.2625 13.257 52.366 14.3961 51.988C14.5672 53.5903 14.1434 55.3694 14.8872 56.5111C16.3842 56.3369 16.0157 55.99 16.0157 54.2904L15.802 49.4204C14.5793 49.323 14.4972 49.5372 13.826 50.1747C12.0479 51.8648 10.1204 52.4465 10.791 54.1077V54.1088Z" fill="#00419E"/>
<path fill-rule="evenodd" clip-rule="evenodd" d="M70.008 48.5777C68.2383 45.3026 71.0276 43.7108 70.0722 42.0522C67.3282 42.1975 67.6409 47.5276 68.5973 49.3488C69.7364 51.5191 70.4112 50.5332 70.5133 50.4958L70.0085 48.5777H70.008Z" fill="#00419E"/>
<path fill-rule="evenodd" clip-rule="evenodd" d="M70.008 48.5777C68.2383 45.3026 71.0276 43.7108 70.0722 42.0522C67.3282 42.1975 67.6409 47.5276 68.5973 49.3488C69.7364 51.5191 70.4112 50.5332 70.5133 50.4958L70.0085 48.5777H70.008Z" fill="#00419E"/>
<path fill-rule="evenodd" clip-rule="evenodd" d="M70.008 48.5777C68.2383 45.3026 71.0276 43.7108 70.0722 42.0522C67.3282 42.1975 67.6409 47.5276 68.5973 49.3488C69.7364 51.5191 70.4112 50.5332 70.5133 50.4958L70.0085 48.5777H70.008Z" fill="#00419E"/>
<path fill-rule="evenodd" clip-rule="evenodd" d="M70.008 48.5777C68.2383 45.3026 71.0276 43.7108 70.0722 42.0522C67.3282 42.1975 67.6409 47.5276 68.5973 49.3488C69.7364 51.5191 70.4112 50.5332 70.5133 50.4958L70.0085 48.5777H70.008Z" fill="#00419E"/>
<path fill-rule="evenodd" clip-rule="evenodd" d="M70.008 48.5777C68.2383 45.3026 71.0276 43.7108 70.0722 42.0522C67.3282 42.1975 67.6409 47.5276 68.5973 49.3488C69.7364 51.5191 70.4112 50.5332 70.5133 50.4958L70.0085 48.5777H70.008Z" fill="#00419E"/>
<path fill-rule="evenodd" clip-rule="evenodd" d="M70.008 48.5777C68.2383 45.3026 71.0276 43.7108 70.0722 42.0522C67.3282 42.1975 67.6409 47.5276 68.5973 49.3488C69.7364 51.5191 70.4112 50.5332 70.5133 50.4958L70.0085 48.5777H70.008Z" fill="#00419E"/>
<path fill-rule="evenodd" clip-rule="evenodd" d="M16.5354 63.2534C17.6134 60.1694 13.1661 57.2101 10.1295 57.7433C9.76682 59.7393 12.2081 58.9713 13.8388 60.2178C15.5111 61.4958 14.6373 63.4187 16.5349 63.2534H16.5354Z" fill="#00419E"/>
<path fill-rule="evenodd" clip-rule="evenodd" d="M16.5354 63.2534C17.6134 60.1694 13.1661 57.2101 10.1295 57.7433C9.76682 59.7393 12.2081 58.9713 13.8388 60.2178C15.5111 61.4958 14.6373 63.4187 16.5349 63.2534H16.5354Z" fill="#00419E"/>
<path fill-rule="evenodd" clip-rule="evenodd" d="M16.5354 63.2534C17.6134 60.1694 13.1661 57.2101 10.1295 57.7433C9.76682 59.7393 12.2081 58.9713 13.8388 60.2178C15.5111 61.4958 14.6373 63.4187 16.5349 63.2534H16.5354Z" fill="#00419E"/>
<path fill-rule="evenodd" clip-rule="evenodd" d="M16.5354 63.2534C17.6134 60.1694 13.1661 57.2101 10.1295 57.7433C9.76682 59.7393 12.2081 58.9713 13.8388 60.2178C15.5111 61.4958 14.6373 63.4187 16.5349 63.2534H16.5354Z" fill="#00419E"/>
<path fill-rule="evenodd" clip-rule="evenodd" d="M16.5354 63.2534C17.6134 60.1694 13.1661 57.2101 10.1295 57.7433C9.76682 59.7393 12.2081 58.9713 13.8388 60.2178C15.5111 61.4958 14.6373 63.4187 16.5349 63.2534H16.5354Z" fill="#00419E"/>
<path fill-rule="evenodd" clip-rule="evenodd" d="M16.5354 63.2534C17.6134 60.1694 13.1661 57.2101 10.1295 57.7433C9.76682 59.7393 12.2081 58.9713 13.8388 60.2178C15.5111 61.4958 14.6373 63.4187 16.5349 63.2534H16.5354Z" fill="#00419E"/>
<path fill-rule="evenodd" clip-rule="evenodd" d="M59.7091 49.4156C60.3086 48.635 59.8643 47.3844 58.5489 48.2276C56.1403 49.772 56.0403 52.2928 57.7894 51.1816C57.9047 51.1085 59.697 49.432 59.7091 49.4162V49.4156Z" fill="#00419E"/>
<path fill-rule="evenodd" clip-rule="evenodd" d="M59.7091 49.4156C60.3086 48.635 59.8643 47.3844 58.5489 48.2276C56.1403 49.772 56.0403 52.2928 57.7894 51.1816C57.9047 51.1085 59.697 49.432 59.7091 49.4162V49.4156Z" fill="#00419E"/>
<path fill-rule="evenodd" clip-rule="evenodd" d="M59.7091 49.4156C60.3086 48.635 59.8643 47.3844 58.5489 48.2276C56.1403 49.772 56.0403 52.2928 57.7894 51.1816C57.9047 51.1085 59.697 49.432 59.7091 49.4162V49.4156Z" fill="#00419E"/>
<path fill-rule="evenodd" clip-rule="evenodd" d="M59.7091 49.4156C60.3086 48.635 59.8643 47.3844 58.5489 48.2276C56.1403 49.772 56.0403 52.2928 57.7894 51.1816C57.9047 51.1085 59.697 49.432 59.7091 49.4162V49.4156Z" fill="#00419E"/>
<path fill-rule="evenodd" clip-rule="evenodd" d="M59.7091 49.4156C60.3086 48.635 59.8643 47.3844 58.5489 48.2276C56.1403 49.772 56.0403 52.2928 57.7894 51.1816C57.9047 51.1085 59.697 49.432 59.7091 49.4162V49.4156Z" fill="#00419E"/>
<path fill-rule="evenodd" clip-rule="evenodd" d="M59.7091 49.4156C60.3086 48.635 59.8643 47.3844 58.5489 48.2276C56.1403 49.772 56.0403 52.2928 57.7894 51.1816C57.9047 51.1085 59.697 49.432 59.7091 49.4162V49.4156Z" fill="#00419E"/>
<path fill-rule="evenodd" clip-rule="evenodd" d="M14.7933 14.6238C15.0497 11.4756 8.95271 9.81801 12.4473 13.4352C13.1426 14.1548 13.3311 14.8938 14.7933 14.6238Z" fill="#00419E"/>
<path fill-rule="evenodd" clip-rule="evenodd" d="M14.7933 14.6238C15.0497 11.4756 8.95271 9.81801 12.4473 13.4352C13.1426 14.1548 13.3311 14.8938 14.7933 14.6238Z" fill="#00419E"/>
<path fill-rule="evenodd" clip-rule="evenodd" d="M14.7933 14.6238C15.0497 11.4756 8.95271 9.81801 12.4473 13.4352C13.1426 14.1548 13.3311 14.8938 14.7933 14.6238Z" fill="#00419E"/>
<path fill-rule="evenodd" clip-rule="evenodd" d="M14.7933 14.6238C15.0497 11.4756 8.95271 9.81801 12.4473 13.4352C13.1426 14.1548 13.3311 14.8938 14.7933 14.6238Z" fill="#00419E"/>
<path fill-rule="evenodd" clip-rule="evenodd" d="M14.7933 14.6238C15.0497 11.4756 8.95271 9.81801 12.4473 13.4352C13.1426 14.1548 13.3311 14.8938 14.7933 14.6238Z" fill="#00419E"/>
<path fill-rule="evenodd" clip-rule="evenodd" d="M14.7933 14.6238C15.0497 11.4756 8.95271 9.81801 12.4473 13.4352C13.1426 14.1548 13.3311 14.8938 14.7933 14.6238Z" fill="#00419E"/>
<path fill-rule="evenodd" clip-rule="evenodd" d="M11.3848 8.09783C12.5259 8.77264 12.8433 8.17049 13.5129 7.48725C13.9998 6.99036 15.2089 6.20552 14.7388 5.34069C14.0177 4.01266 11.4121 7.0535 11.3848 8.09783Z" fill="#00419E"/>
<path fill-rule="evenodd" clip-rule="evenodd" d="M11.3848 8.09783C12.5259 8.77264 12.8433 8.17049 13.5129 7.48725C13.9998 6.99036 15.2089 6.20552 14.7388 5.34069C14.0177 4.01266 11.4121 7.0535 11.3848 8.09783Z" fill="#00419E"/>
<path fill-rule="evenodd" clip-rule="evenodd" d="M11.3848 8.09783C12.5259 8.77264 12.8433 8.17049 13.5129 7.48725C13.9998 6.99036 15.2089 6.20552 14.7388 5.34069C14.0177 4.01266 11.4121 7.0535 11.3848 8.09783Z" fill="#00419E"/>
<path fill-rule="evenodd" clip-rule="evenodd" d="M11.3848 8.09783C12.5259 8.77264 12.8433 8.17049 13.5129 7.48725C13.9998 6.99036 15.2089 6.20552 14.7388 5.34069C14.0177 4.01266 11.4121 7.0535 11.3848 8.09783Z" fill="#00419E"/>
<path fill-rule="evenodd" clip-rule="evenodd" d="M11.3848 8.09783C12.5259 8.77264 12.8433 8.17049 13.5129 7.48725C13.9998 6.99036 15.2089 6.20552 14.7388 5.34069C14.0177 4.01266 11.4121 7.0535 11.3848 8.09783Z" fill="#00419E"/>
<path fill-rule="evenodd" clip-rule="evenodd" d="M11.3848 8.09783C12.5259 8.77264 12.8433 8.17049 13.5129 7.48725C13.9998 6.99036 15.2089 6.20552 14.7388 5.34069C14.0177 4.01266 11.4121 7.0535 11.3848 8.09783Z" fill="#00419E"/>
<path fill-rule="evenodd" clip-rule="evenodd" d="M11.2289 43.7214C12.2153 43.1835 12.0085 43.5772 12.0269 41.7991C12.0379 40.7153 12.1711 40.2347 11.5342 39.4657L10.9247 39.4404C10.342 40.1389 10.2325 41.7138 10.4525 42.7334C10.7852 44.2757 10.3662 43.2756 11.2294 43.7214H11.2289Z" fill="#00419E"/>
<path fill-rule="evenodd" clip-rule="evenodd" d="M11.2289 43.7214C12.2153 43.1835 12.0085 43.5772 12.0269 41.7991C12.0379 40.7153 12.1711 40.2347 11.5342 39.4657L10.9247 39.4404C10.342 40.1389 10.2325 41.7138 10.4525 42.7334C10.7852 44.2757 10.3662 43.2756 11.2294 43.7214H11.2289Z" fill="#00419E"/>
<path fill-rule="evenodd" clip-rule="evenodd" d="M11.2289 43.7214C12.2153 43.1835 12.0085 43.5772 12.0269 41.7991C12.0379 40.7153 12.1711 40.2347 11.5342 39.4657L10.9247 39.4404C10.342 40.1389 10.2325 41.7138 10.4525 42.7334C10.7852 44.2757 10.3662 43.2756 11.2294 43.7214H11.2289Z" fill="#00419E"/>
<path fill-rule="evenodd" clip-rule="evenodd" d="M11.2289 43.7214C12.2153 43.1835 12.0085 43.5772 12.0269 41.7991C12.0379 40.7153 12.1711 40.2347 11.5342 39.4657L10.9247 39.4404C10.342 40.1389 10.2325 41.7138 10.4525 42.7334C10.7852 44.2757 10.3662 43.2756 11.2294 43.7214H11.2289Z" fill="#00419E"/>
<path fill-rule="evenodd" clip-rule="evenodd" d="M11.2289 43.7214C12.2153 43.1835 12.0085 43.5772 12.0269 41.7991C12.0379 40.7153 12.1711 40.2347 11.5342 39.4657L10.9247 39.4404C10.342 40.1389 10.2325 41.7138 10.4525 42.7334C10.7852 44.2757 10.3662 43.2756 11.2294 43.7214H11.2289Z" fill="#00419E"/>
<path fill-rule="evenodd" clip-rule="evenodd" d="M11.2289 43.7214C12.2153 43.1835 12.0085 43.5772 12.0269 41.7991C12.0379 40.7153 12.1711 40.2347 11.5342 39.4657L10.9247 39.4404C10.342 40.1389 10.2325 41.7138 10.4525 42.7334C10.7852 44.2757 10.3662 43.2756 11.2294 43.7214H11.2289Z" fill="#00419E"/>
<path fill-rule="evenodd" clip-rule="evenodd" d="M5.28418 5.05462C4.88677 6.30791 5.51946 6.60427 6.17058 7.20591C6.58115 7.58543 7.56337 8.96188 8.24186 8.30181C9.21092 7.36013 6.66591 4.92724 5.28418 5.05462Z" fill="#00419E"/>
<path fill-rule="evenodd" clip-rule="evenodd" d="M5.28418 5.05462C4.88677 6.30791 5.51946 6.60427 6.17058 7.20591C6.58115 7.58543 7.56337 8.96188 8.24186 8.30181C9.21092 7.36013 6.66591 4.92724 5.28418 5.05462Z" fill="#00419E"/>
<path fill-rule="evenodd" clip-rule="evenodd" d="M5.28418 5.05462C4.88677 6.30791 5.51946 6.60427 6.17058 7.20591C6.58115 7.58543 7.56337 8.96188 8.24186 8.30181C9.21092 7.36013 6.66591 4.92724 5.28418 5.05462Z" fill="#00419E"/>
<path fill-rule="evenodd" clip-rule="evenodd" d="M5.28418 5.05462C4.88677 6.30791 5.51946 6.60427 6.17058 7.20591C6.58115 7.58543 7.56337 8.96188 8.24186 8.30181C9.21092 7.36013 6.66591 4.92724 5.28418 5.05462Z" fill="#00419E"/>
<path fill-rule="evenodd" clip-rule="evenodd" d="M5.28418 5.05462C4.88677 6.30791 5.51946 6.60427 6.17058 7.20591C6.58115 7.58543 7.56337 8.96188 8.24186 8.30181C9.21092 7.36013 6.66591 4.92724 5.28418 5.05462Z" fill="#00419E"/>
<path fill-rule="evenodd" clip-rule="evenodd" d="M5.28418 5.05462C4.88677 6.30791 5.51946 6.60427 6.17058 7.20591C6.58115 7.58543 7.56337 8.96188 8.24186 8.30181C9.21092 7.36013 6.66591 4.92724 5.28418 5.05462Z" fill="#00419E"/>
<path fill-rule="evenodd" clip-rule="evenodd" d="M9.16627 4.8981C9.16627 6.9099 8.9273 7.64785 10.4833 7.49784C10.8754 6.16559 10.8154 4.25803 10.4927 3.22266C9.04047 3.43268 9.16627 3.33899 9.16627 4.8981Z" fill="#00419E"/>
<path fill-rule="evenodd" clip-rule="evenodd" d="M9.16627 4.8981C9.16627 6.9099 8.9273 7.64785 10.4833 7.49784C10.8754 6.16559 10.8154 4.25803 10.4927 3.22266C9.04047 3.43268 9.16627 3.33899 9.16627 4.8981Z" fill="#00419E"/>
<path fill-rule="evenodd" clip-rule="evenodd" d="M9.16627 4.8981C9.16627 6.9099 8.9273 7.64785 10.4833 7.49784C10.8754 6.16559 10.8154 4.25803 10.4927 3.22266C9.04047 3.43268 9.16627 3.33899 9.16627 4.8981Z" fill="#00419E"/>
<path fill-rule="evenodd" clip-rule="evenodd" d="M9.16627 4.8981C9.16627 6.9099 8.9273 7.64785 10.4833 7.49784C10.8754 6.16559 10.8154 4.25803 10.4927 3.22266C9.04047 3.43268 9.16627 3.33899 9.16627 4.8981Z" fill="#00419E"/>
<path fill-rule="evenodd" clip-rule="evenodd" d="M9.16627 4.8981C9.16627 6.9099 8.9273 7.64785 10.4833 7.49784C10.8754 6.16559 10.8154 4.25803 10.4927 3.22266C9.04047 3.43268 9.16627 3.33899 9.16627 4.8981Z" fill="#00419E"/>
<path fill-rule="evenodd" clip-rule="evenodd" d="M9.16627 4.8981C9.16627 6.9099 8.9273 7.64785 10.4833 7.49784C10.8754 6.16559 10.8154 4.25803 10.4927 3.22266C9.04047 3.43268 9.16627 3.33899 9.16627 4.8981Z" fill="#00419E"/>
<path fill-rule="evenodd" clip-rule="evenodd" d="M5.12042 14.6906C6.63637 14.7874 6.48952 14.4769 7.41699 13.5926C8.22445 12.823 8.72028 12.7114 8.28182 11.535C7.19486 11.1428 7.04801 11.695 6.27477 12.4546C5.57206 13.1457 5.07831 13.3278 5.12042 14.6906Z" fill="#00419E"/>
<path fill-rule="evenodd" clip-rule="evenodd" d="M5.12042 14.6906C6.63637 14.7874 6.48952 14.4769 7.41699 13.5926C8.22445 12.823 8.72028 12.7114 8.28182 11.535C7.19486 11.1428 7.04801 11.695 6.27477 12.4546C5.57206 13.1457 5.07831 13.3278 5.12042 14.6906Z" fill="#00419E"/>
<path fill-rule="evenodd" clip-rule="evenodd" d="M5.12042 14.6906C6.63637 14.7874 6.48952 14.4769 7.41699 13.5926C8.22445 12.823 8.72028 12.7114 8.28182 11.535C7.19486 11.1428 7.04801 11.695 6.27477 12.4546C5.57206 13.1457 5.07831 13.3278 5.12042 14.6906Z" fill="#00419E"/>
<path fill-rule="evenodd" clip-rule="evenodd" d="M5.12042 14.6906C6.63637 14.7874 6.48952 14.4769 7.41699 13.5926C8.22445 12.823 8.72028 12.7114 8.28182 11.535C7.19486 11.1428 7.04801 11.695 6.27477 12.4546C5.57206 13.1457 5.07831 13.3278 5.12042 14.6906Z" fill="#00419E"/>
<path fill-rule="evenodd" clip-rule="evenodd" d="M5.12042 14.6906C6.63637 14.7874 6.48952 14.4769 7.41699 13.5926C8.22445 12.823 8.72028 12.7114 8.28182 11.535C7.19486 11.1428 7.04801 11.695 6.27477 12.4546C5.57206 13.1457 5.07831 13.3278 5.12042 14.6906Z" fill="#00419E"/>
<path fill-rule="evenodd" clip-rule="evenodd" d="M5.12042 14.6906C6.63637 14.7874 6.48952 14.4769 7.41699 13.5926C8.22445 12.823 8.72028 12.7114 8.28182 11.535C7.19486 11.1428 7.04801 11.695 6.27477 12.4546C5.57206 13.1457 5.07831 13.3278 5.12042 14.6906Z" fill="#00419E"/>
<path fill-rule="evenodd" clip-rule="evenodd" d="M50.3419 48.0155C49.9966 49.5094 50.4045 49.2493 51.332 50.1652C51.891 50.7169 52.6827 51.8438 53.3322 51.2432C54.1355 50.5005 53.0411 49.6841 52.5606 49.2451C51.3883 48.1761 51.8489 47.8413 50.3419 48.016V48.0155Z" fill="#00419E"/>
<path fill-rule="evenodd" clip-rule="evenodd" d="M50.3419 48.0155C49.9966 49.5094 50.4045 49.2493 51.332 50.1652C51.891 50.7169 52.6827 51.8438 53.3322 51.2432C54.1355 50.5005 53.0411 49.6841 52.5606 49.2451C51.3883 48.1761 51.8489 47.8413 50.3419 48.016V48.0155Z" fill="#00419E"/>
<path fill-rule="evenodd" clip-rule="evenodd" d="M50.3419 48.0155C49.9966 49.5094 50.4045 49.2493 51.332 50.1652C51.891 50.7169 52.6827 51.8438 53.3322 51.2432C54.1355 50.5005 53.0411 49.6841 52.5606 49.2451C51.3883 48.1761 51.8489 47.8413 50.3419 48.016V48.0155Z" fill="#00419E"/>
<path fill-rule="evenodd" clip-rule="evenodd" d="M50.3419 48.0155C49.9966 49.5094 50.4045 49.2493 51.332 50.1652C51.891 50.7169 52.6827 51.8438 53.3322 51.2432C54.1355 50.5005 53.0411 49.6841 52.5606 49.2451C51.3883 48.1761 51.8489 47.8413 50.3419 48.016V48.0155Z" fill="#00419E"/>
<path fill-rule="evenodd" clip-rule="evenodd" d="M50.3419 48.0155C49.9966 49.5094 50.4045 49.2493 51.332 50.1652C51.891 50.7169 52.6827 51.8438 53.3322 51.2432C54.1355 50.5005 53.0411 49.6841 52.5606 49.2451C51.3883 48.1761 51.8489 47.8413 50.3419 48.016V48.0155Z" fill="#00419E"/>
<path fill-rule="evenodd" clip-rule="evenodd" d="M50.3419 48.0155C49.9966 49.5094 50.4045 49.2493 51.332 50.1652C51.891 50.7169 52.6827 51.8438 53.3322 51.2432C54.1355 50.5005 53.0411 49.6841 52.5606 49.2451C51.3883 48.1761 51.8489 47.8413 50.3419 48.016V48.0155Z" fill="#00419E"/>
<path fill-rule="evenodd" clip-rule="evenodd" d="M10.3143 16.4873C11.0338 15.4141 10.6985 13.8723 10.5717 12.3379C9.03677 12.1816 9.17678 12.6127 9.15731 14.0297C9.13309 15.8194 8.79202 16.4158 10.3148 16.4879L10.3143 16.4873Z" fill="#00419E"/>
<path fill-rule="evenodd" clip-rule="evenodd" d="M10.3143 16.4873C11.0338 15.4141 10.6985 13.8723 10.5717 12.3379C9.03677 12.1816 9.17678 12.6127 9.15731 14.0297C9.13309 15.8194 8.79202 16.4158 10.3148 16.4879L10.3143 16.4873Z" fill="#00419E"/>
<path fill-rule="evenodd" clip-rule="evenodd" d="M10.3143 16.4873C11.0338 15.4141 10.6985 13.8723 10.5717 12.3379C9.03677 12.1816 9.17678 12.6127 9.15731 14.0297C9.13309 15.8194 8.79202 16.4158 10.3148 16.4879L10.3143 16.4873Z" fill="#00419E"/>
<path fill-rule="evenodd" clip-rule="evenodd" d="M10.3143 16.4873C11.0338 15.4141 10.6985 13.8723 10.5717 12.3379C9.03677 12.1816 9.17678 12.6127 9.15731 14.0297C9.13309 15.8194 8.79202 16.4158 10.3148 16.4879L10.3143 16.4873Z" fill="#00419E"/>
<path fill-rule="evenodd" clip-rule="evenodd" d="M10.3143 16.4873C11.0338 15.4141 10.6985 13.8723 10.5717 12.3379C9.03677 12.1816 9.17678 12.6127 9.15731 14.0297C9.13309 15.8194 8.79202 16.4158 10.3148 16.4879L10.3143 16.4873Z" fill="#00419E"/>
<path fill-rule="evenodd" clip-rule="evenodd" d="M10.3143 16.4873C11.0338 15.4141 10.6985 13.8723 10.5717 12.3379C9.03677 12.1816 9.17678 12.6127 9.15731 14.0297C9.13309 15.8194 8.79202 16.4158 10.3148 16.4879L10.3143 16.4873Z" fill="#00419E"/>
<path fill-rule="evenodd" clip-rule="evenodd" d="M50.2096 57.6823C51.815 57.686 53.7289 55.9868 53.4942 54.4098C51.9008 54.1524 50.1917 56.05 50.2096 57.6823Z" fill="#00419E"/>
<path fill-rule="evenodd" clip-rule="evenodd" d="M50.2096 57.6823C51.815 57.686 53.7289 55.9868 53.4942 54.4098C51.9008 54.1524 50.1917 56.05 50.2096 57.6823Z" fill="#00419E"/>
<path fill-rule="evenodd" clip-rule="evenodd" d="M50.2096 57.6823C51.815 57.686 53.7289 55.9868 53.4942 54.4098C51.9008 54.1524 50.1917 56.05 50.2096 57.6823Z" fill="#00419E"/>
<path fill-rule="evenodd" clip-rule="evenodd" d="M50.2096 57.6823C51.815 57.686 53.7289 55.9868 53.4942 54.4098C51.9008 54.1524 50.1917 56.05 50.2096 57.6823Z" fill="#00419E"/>
<path fill-rule="evenodd" clip-rule="evenodd" d="M50.2096 57.6823C51.815 57.686 53.7289 55.9868 53.4942 54.4098C51.9008 54.1524 50.1917 56.05 50.2096 57.6823Z" fill="#00419E"/>
<path fill-rule="evenodd" clip-rule="evenodd" d="M50.2096 57.6823C51.815 57.686 53.7289 55.9868 53.4942 54.4098C51.9008 54.1524 50.1917 56.05 50.2096 57.6823Z" fill="#00419E"/>
<path fill-rule="evenodd" clip-rule="evenodd" d="M13.6847 36.6072L13.5952 37.5194C14.5964 38.09 16.5218 38.0331 17.7551 37.6267C18.1499 35.2102 13.6857 36.6061 13.6847 36.6066V36.6072Z" fill="#00419E"/>
<path fill-rule="evenodd" clip-rule="evenodd" d="M13.6847 36.6072L13.5952 37.5194C14.5964 38.09 16.5218 38.0331 17.7551 37.6267C18.1499 35.2102 13.6857 36.6061 13.6847 36.6066V36.6072Z" fill="#00419E"/>
<path fill-rule="evenodd" clip-rule="evenodd" d="M13.6847 36.6072L13.5952 37.5194C14.5964 38.09 16.5218 38.0331 17.7551 37.6267C18.1499 35.2102 13.6857 36.6061 13.6847 36.6066V36.6072Z" fill="#00419E"/>
<path fill-rule="evenodd" clip-rule="evenodd" d="M13.6847 36.6072L13.5952 37.5194C14.5964 38.09 16.5218 38.0331 17.7551 37.6267C18.1499 35.2102 13.6857 36.6061 13.6847 36.6066V36.6072Z" fill="#00419E"/>
<path fill-rule="evenodd" clip-rule="evenodd" d="M13.6847 36.6072L13.5952 37.5194C14.5964 38.09 16.5218 38.0331 17.7551 37.6267C18.1499 35.2102 13.6857 36.6061 13.6847 36.6066V36.6072Z" fill="#00419E"/>
<path fill-rule="evenodd" clip-rule="evenodd" d="M13.6847 36.6072L13.5952 37.5194C14.5964 38.09 16.5218 38.0331 17.7551 37.6267C18.1499 35.2102 13.6857 36.6061 13.6847 36.6066V36.6072Z" fill="#00419E"/>
<path fill-rule="evenodd" clip-rule="evenodd" d="M12.2832 9.77713C12.6322 10.8367 12.4322 10.6567 13.9507 10.7083C17.9685 10.8446 17.2074 8.76333 13.6428 9.09863C11.6984 9.28181 12.7943 9.34181 12.2837 9.77764L12.2832 9.77713Z" fill="#00419E"/>
<path fill-rule="evenodd" clip-rule="evenodd" d="M12.2832 9.77713C12.6322 10.8367 12.4322 10.6567 13.9507 10.7083C17.9685 10.8446 17.2074 8.76333 13.6428 9.09863C11.6984 9.28181 12.7943 9.34181 12.2837 9.77764L12.2832 9.77713Z" fill="#00419E"/>
<path fill-rule="evenodd" clip-rule="evenodd" d="M12.2832 9.77713C12.6322 10.8367 12.4322 10.6567 13.9507 10.7083C17.9685 10.8446 17.2074 8.76333 13.6428 9.09863C11.6984 9.28181 12.7943 9.34181 12.2837 9.77764L12.2832 9.77713Z" fill="#00419E"/>
<path fill-rule="evenodd" clip-rule="evenodd" d="M12.2832 9.77713C12.6322 10.8367 12.4322 10.6567 13.9507 10.7083C17.9685 10.8446 17.2074 8.76333 13.6428 9.09863C11.6984 9.28181 12.7943 9.34181 12.2837 9.77764L12.2832 9.77713Z" fill="#00419E"/>
<path fill-rule="evenodd" clip-rule="evenodd" d="M12.2832 9.77713C12.6322 10.8367 12.4322 10.6567 13.9507 10.7083C17.9685 10.8446 17.2074 8.76333 13.6428 9.09863C11.6984 9.28181 12.7943 9.34181 12.2837 9.77764L12.2832 9.77713Z" fill="#00419E"/>
<path fill-rule="evenodd" clip-rule="evenodd" d="M12.2832 9.77713C12.6322 10.8367 12.4322 10.6567 13.9507 10.7083C17.9685 10.8446 17.2074 8.76333 13.6428 9.09863C11.6984 9.28181 12.7943 9.34181 12.2837 9.77764L12.2832 9.77713Z" fill="#00419E"/>
<path fill-rule="evenodd" clip-rule="evenodd" d="M6.65498 41.9208C7.74458 41.8429 10.9002 39.3163 9.30001 38.5952C8.61677 38.2873 7.63456 39.4979 7.36611 39.7585C6.51286 40.587 6.37442 40.5801 6.38126 41.1739C6.39758 42.5919 6.28073 41.2049 6.65498 41.9208Z" fill="#00419E"/>
<path fill-rule="evenodd" clip-rule="evenodd" d="M6.65498 41.9208C7.74458 41.8429 10.9002 39.3163 9.30001 38.5952C8.61677 38.2873 7.63456 39.4979 7.36611 39.7585C6.51286 40.587 6.37442 40.5801 6.38126 41.1739C6.39758 42.5919 6.28073 41.2049 6.65498 41.9208Z" fill="#00419E"/>
<path fill-rule="evenodd" clip-rule="evenodd" d="M6.65498 41.9208C7.74458 41.8429 10.9002 39.3163 9.30001 38.5952C8.61677 38.2873 7.63456 39.4979 7.36611 39.7585C6.51286 40.587 6.37442 40.5801 6.38126 41.1739C6.39758 42.5919 6.28073 41.2049 6.65498 41.9208Z" fill="#00419E"/>
<path fill-rule="evenodd" clip-rule="evenodd" d="M6.65498 41.9208C7.74458 41.8429 10.9002 39.3163 9.30001 38.5952C8.61677 38.2873 7.63456 39.4979 7.36611 39.7585C6.51286 40.587 6.37442 40.5801 6.38126 41.1739C6.39758 42.5919 6.28073 41.2049 6.65498 41.9208Z" fill="#00419E"/>
<path fill-rule="evenodd" clip-rule="evenodd" d="M6.65498 41.9208C7.74458 41.8429 10.9002 39.3163 9.30001 38.5952C8.61677 38.2873 7.63456 39.4979 7.36611 39.7585C6.51286 40.587 6.37442 40.5801 6.38126 41.1739C6.39758 42.5919 6.28073 41.2049 6.65498 41.9208Z" fill="#00419E"/>
<path fill-rule="evenodd" clip-rule="evenodd" d="M6.65498 41.9208C7.74458 41.8429 10.9002 39.3163 9.30001 38.5952C8.61677 38.2873 7.63456 39.4979 7.36611 39.7585C6.51286 40.587 6.37442 40.5801 6.38126 41.1739C6.39758 42.5919 6.28073 41.2049 6.65498 41.9208Z" fill="#00419E"/>
<path fill-rule="evenodd" clip-rule="evenodd" d="M61.616 52.4617C60.6517 51.8848 58.6546 51.8547 57.4798 52.3659C57.1413 53.7192 58.2214 53.6155 59.3942 53.6239C61.1107 53.6365 61.5123 54.0108 61.6165 52.4617H61.616Z" fill="#00419E"/>
<path fill-rule="evenodd" clip-rule="evenodd" d="M61.616 52.4617C60.6517 51.8848 58.6546 51.8547 57.4798 52.3659C57.1413 53.7192 58.2214 53.6155 59.3942 53.6239C61.1107 53.6365 61.5123 54.0108 61.6165 52.4617H61.616Z" fill="#00419E"/>
<path fill-rule="evenodd" clip-rule="evenodd" d="M61.616 52.4617C60.6517 51.8848 58.6546 51.8547 57.4798 52.3659C57.1413 53.7192 58.2214 53.6155 59.3942 53.6239C61.1107 53.6365 61.5123 54.0108 61.6165 52.4617H61.616Z" fill="#00419E"/>
<path fill-rule="evenodd" clip-rule="evenodd" d="M61.616 52.4617C60.6517 51.8848 58.6546 51.8547 57.4798 52.3659C57.1413 53.7192 58.2214 53.6155 59.3942 53.6239C61.1107 53.6365 61.5123 54.0108 61.6165 52.4617H61.616Z" fill="#00419E"/>
<path fill-rule="evenodd" clip-rule="evenodd" d="M61.616 52.4617C60.6517 51.8848 58.6546 51.8547 57.4798 52.3659C57.1413 53.7192 58.2214 53.6155 59.3942 53.6239C61.1107 53.6365 61.5123 54.0108 61.6165 52.4617H61.616Z" fill="#00419E"/>
<path fill-rule="evenodd" clip-rule="evenodd" d="M61.616 52.4617C60.6517 51.8848 58.6546 51.8547 57.4798 52.3659C57.1413 53.7192 58.2214 53.6155 59.3942 53.6239C61.1107 53.6365 61.5123 54.0108 61.6165 52.4617H61.616Z" fill="#00419E"/>
<path fill-rule="evenodd" clip-rule="evenodd" d="M11.7379 34.673C12.0716 33.5855 12.0869 32.0538 11.9011 31.1311C11.8837 31.0437 11.8363 30.941 11.819 30.8721C11.8021 30.8037 11.7553 30.7042 11.7227 30.621C10.1746 30.2741 10.4541 30.9631 10.4478 32.6454C10.442 34.0756 10.1498 34.8373 11.7384 34.673H11.7379Z" fill="#00419E"/>
<path fill-rule="evenodd" clip-rule="evenodd" d="M11.7379 34.673C12.0716 33.5855 12.0869 32.0538 11.9011 31.1311C11.8837 31.0437 11.8363 30.941 11.819 30.8721C11.8021 30.8037 11.7553 30.7042 11.7227 30.621C10.1746 30.2741 10.4541 30.9631 10.4478 32.6454C10.442 34.0756 10.1498 34.8373 11.7384 34.673H11.7379Z" fill="#00419E"/>
<path fill-rule="evenodd" clip-rule="evenodd" d="M11.7379 34.673C12.0716 33.5855 12.0869 32.0538 11.9011 31.1311C11.8837 31.0437 11.8363 30.941 11.819 30.8721C11.8021 30.8037 11.7553 30.7042 11.7227 30.621C10.1746 30.2741 10.4541 30.9631 10.4478 32.6454C10.442 34.0756 10.1498 34.8373 11.7384 34.673H11.7379Z" fill="#00419E"/>
<path fill-rule="evenodd" clip-rule="evenodd" d="M11.7379 34.673C12.0716 33.5855 12.0869 32.0538 11.9011 31.1311C11.8837 31.0437 11.8363 30.941 11.819 30.8721C11.8021 30.8037 11.7553 30.7042 11.7227 30.621C10.1746 30.2741 10.4541 30.9631 10.4478 32.6454C10.442 34.0756 10.1498 34.8373 11.7384 34.673H11.7379Z" fill="#00419E"/>
<path fill-rule="evenodd" clip-rule="evenodd" d="M11.7379 34.673C12.0716 33.5855 12.0869 32.0538 11.9011 31.1311C11.8837 31.0437 11.8363 30.941 11.819 30.8721C11.8021 30.8037 11.7553 30.7042 11.7227 30.621C10.1746 30.2741 10.4541 30.9631 10.4478 32.6454C10.442 34.0756 10.1498 34.8373 11.7384 34.673H11.7379Z" fill="#00419E"/>
<path fill-rule="evenodd" clip-rule="evenodd" d="M11.7379 34.673C12.0716 33.5855 12.0869 32.0538 11.9011 31.1311C11.8837 31.0437 11.8363 30.941 11.819 30.8721C11.8021 30.8037 11.7553 30.7042 11.7227 30.621C10.1746 30.2741 10.4541 30.9631 10.4478 32.6454C10.442 34.0756 10.1498 34.8373 11.7384 34.673H11.7379Z" fill="#00419E"/>
<path fill-rule="evenodd" clip-rule="evenodd" d="M4.83659 36.6072L4.64551 37.5436C5.7272 38.0979 7.4537 37.9258 8.76279 37.7647L8.81228 36.6083C7.8127 36.1582 5.65562 36.184 4.83659 36.6078V36.6072Z" fill="#00419E"/>
<path fill-rule="evenodd" clip-rule="evenodd" d="M4.83659 36.6072L4.64551 37.5436C5.7272 38.0979 7.4537 37.9258 8.76279 37.7647L8.81228 36.6083C7.8127 36.1582 5.65562 36.184 4.83659 36.6078V36.6072Z" fill="#00419E"/>
<path fill-rule="evenodd" clip-rule="evenodd" d="M4.83659 36.6072L4.64551 37.5436C5.7272 38.0979 7.4537 37.9258 8.76279 37.7647L8.81228 36.6083C7.8127 36.1582 5.65562 36.184 4.83659 36.6078V36.6072Z" fill="#00419E"/>
<path fill-rule="evenodd" clip-rule="evenodd" d="M4.83659 36.6072L4.64551 37.5436C5.7272 38.0979 7.4537 37.9258 8.76279 37.7647L8.81228 36.6083C7.8127 36.1582 5.65562 36.184 4.83659 36.6078V36.6072Z" fill="#00419E"/>
<path fill-rule="evenodd" clip-rule="evenodd" d="M4.83659 36.6072L4.64551 37.5436C5.7272 38.0979 7.4537 37.9258 8.76279 37.7647L8.81228 36.6083C7.8127 36.1582 5.65562 36.184 4.83659 36.6078V36.6072Z" fill="#00419E"/>
<path fill-rule="evenodd" clip-rule="evenodd" d="M4.83659 36.6072L4.64551 37.5436C5.7272 38.0979 7.4537 37.9258 8.76279 37.7647L8.81228 36.6083C7.8127 36.1582 5.65562 36.184 4.83659 36.6078V36.6072Z" fill="#00419E"/>
<path fill-rule="evenodd" clip-rule="evenodd" d="M15.779 41.8314C15.8569 41.7019 16.9491 41.6267 15.0726 39.7775C14.4652 39.179 14.1478 38.5395 12.8871 38.6058C12.3987 40.2502 14.9821 42.1525 15.779 41.8314Z" fill="#00419E"/>
<path fill-rule="evenodd" clip-rule="evenodd" d="M15.779 41.8314C15.8569 41.7019 16.9491 41.6267 15.0726 39.7775C14.4652 39.179 14.1478 38.5395 12.8871 38.6058C12.3987 40.2502 14.9821 42.1525 15.779 41.8314Z" fill="#00419E"/>
<path fill-rule="evenodd" clip-rule="evenodd" d="M15.779 41.8314C15.8569 41.7019 16.9491 41.6267 15.0726 39.7775C14.4652 39.179 14.1478 38.5395 12.8871 38.6058C12.3987 40.2502 14.9821 42.1525 15.779 41.8314Z" fill="#00419E"/>
<path fill-rule="evenodd" clip-rule="evenodd" d="M15.779 41.8314C15.8569 41.7019 16.9491 41.6267 15.0726 39.7775C14.4652 39.179 14.1478 38.5395 12.8871 38.6058C12.3987 40.2502 14.9821 42.1525 15.779 41.8314Z" fill="#00419E"/>
<path fill-rule="evenodd" clip-rule="evenodd" d="M15.779 41.8314C15.8569 41.7019 16.9491 41.6267 15.0726 39.7775C14.4652 39.179 14.1478 38.5395 12.8871 38.6058C12.3987 40.2502 14.9821 42.1525 15.779 41.8314Z" fill="#00419E"/>
<path fill-rule="evenodd" clip-rule="evenodd" d="M15.779 41.8314C15.8569 41.7019 16.9491 41.6267 15.0726 39.7775C14.4652 39.179 14.1478 38.5395 12.8871 38.6058C12.3987 40.2502 14.9821 42.1525 15.779 41.8314Z" fill="#00419E"/>
<path fill-rule="evenodd" clip-rule="evenodd" d="M56.6443 54.5487C56.0458 55.2035 58.3476 57.9059 59.8604 57.5196C60.0651 56.0668 59.6988 56.4716 58.6566 55.3335C58.2007 54.8361 57.3954 53.7265 56.6443 54.5487Z" fill="#00419E"/>
<path fill-rule="evenodd" clip-rule="evenodd" d="M56.6443 54.5487C56.0458 55.2035 58.3476 57.9059 59.8604 57.5196C60.0651 56.0668 59.6988 56.4716 58.6566 55.3335C58.2007 54.8361 57.3954 53.7265 56.6443 54.5487Z" fill="#00419E"/>
<path fill-rule="evenodd" clip-rule="evenodd" d="M56.6443 54.5487C56.0458 55.2035 58.3476 57.9059 59.8604 57.5196C60.0651 56.0668 59.6988 56.4716 58.6566 55.3335C58.2007 54.8361 57.3954 53.7265 56.6443 54.5487Z" fill="#00419E"/>
<path fill-rule="evenodd" clip-rule="evenodd" d="M56.6443 54.5487C56.0458 55.2035 58.3476 57.9059 59.8604 57.5196C60.0651 56.0668 59.6988 56.4716 58.6566 55.3335C58.2007 54.8361 57.3954 53.7265 56.6443 54.5487Z" fill="#00419E"/>
<path fill-rule="evenodd" clip-rule="evenodd" d="M56.6443 54.5487C56.0458 55.2035 58.3476 57.9059 59.8604 57.5196C60.0651 56.0668 59.6988 56.4716 58.6566 55.3335C58.2007 54.8361 57.3954 53.7265 56.6443 54.5487Z" fill="#00419E"/>
<path fill-rule="evenodd" clip-rule="evenodd" d="M56.6443 54.5487C56.0458 55.2035 58.3476 57.9059 59.8604 57.5196C60.0651 56.0668 59.6988 56.4716 58.6566 55.3335C58.2007 54.8361 57.3954 53.7265 56.6443 54.5487Z" fill="#00419E"/>
<path fill-rule="evenodd" clip-rule="evenodd" d="M9.52433 35.461C10.0212 34.2366 9.49854 34.3092 8.60213 33.4449C7.5736 32.4532 8.10943 32.1127 6.3803 32.3506C6.3424 33.6823 6.88194 33.7918 7.55938 34.4824C8.3721 35.3104 8.42264 35.8284 9.52433 35.461Z" fill="#00419E"/>
<path fill-rule="evenodd" clip-rule="evenodd" d="M9.52433 35.461C10.0212 34.2366 9.49854 34.3092 8.60213 33.4449C7.5736 32.4532 8.10943 32.1127 6.3803 32.3506C6.3424 33.6823 6.88194 33.7918 7.55938 34.4824C8.3721 35.3104 8.42264 35.8284 9.52433 35.461Z" fill="#00419E"/>
<path fill-rule="evenodd" clip-rule="evenodd" d="M9.52433 35.461C10.0212 34.2366 9.49854 34.3092 8.60213 33.4449C7.5736 32.4532 8.10943 32.1127 6.3803 32.3506C6.3424 33.6823 6.88194 33.7918 7.55938 34.4824C8.3721 35.3104 8.42264 35.8284 9.52433 35.461Z" fill="#00419E"/>
<path fill-rule="evenodd" clip-rule="evenodd" d="M9.52433 35.461C10.0212 34.2366 9.49854 34.3092 8.60213 33.4449C7.5736 32.4532 8.10943 32.1127 6.3803 32.3506C6.3424 33.6823 6.88194 33.7918 7.55938 34.4824C8.3721 35.3104 8.42264 35.8284 9.52433 35.461Z" fill="#00419E"/>
<path fill-rule="evenodd" clip-rule="evenodd" d="M9.52433 35.461C10.0212 34.2366 9.49854 34.3092 8.60213 33.4449C7.5736 32.4532 8.10943 32.1127 6.3803 32.3506C6.3424 33.6823 6.88194 33.7918 7.55938 34.4824C8.3721 35.3104 8.42264 35.8284 9.52433 35.461Z" fill="#00419E"/>
<path fill-rule="evenodd" clip-rule="evenodd" d="M9.52433 35.461C10.0212 34.2366 9.49854 34.3092 8.60213 33.4449C7.5736 32.4532 8.10943 32.1127 6.3803 32.3506C6.3424 33.6823 6.88194 33.7918 7.55938 34.4824C8.3721 35.3104 8.42264 35.8284 9.52433 35.461Z" fill="#00419E"/>
<path fill-rule="evenodd" clip-rule="evenodd" d="M55.4379 46.2974C53.8567 46.3453 54.2225 46.9174 54.2683 48.8218C54.3267 51.2579 55.8722 51.2674 55.8385 48.187C55.8264 47.0559 55.9127 47.099 55.4379 46.2979V46.2974Z" fill="#00419E"/>
<path fill-rule="evenodd" clip-rule="evenodd" d="M55.4379 46.2974C53.8567 46.3453 54.2225 46.9174 54.2683 48.8218C54.3267 51.2579 55.8722 51.2674 55.8385 48.187C55.8264 47.0559 55.9127 47.099 55.4379 46.2979V46.2974Z" fill="#00419E"/>
<path fill-rule="evenodd" clip-rule="evenodd" d="M55.4379 46.2974C53.8567 46.3453 54.2225 46.9174 54.2683 48.8218C54.3267 51.2579 55.8722 51.2674 55.8385 48.187C55.8264 47.0559 55.9127 47.099 55.4379 46.2979V46.2974Z" fill="#00419E"/>
<path fill-rule="evenodd" clip-rule="evenodd" d="M55.4379 46.2974C53.8567 46.3453 54.2225 46.9174 54.2683 48.8218C54.3267 51.2579 55.8722 51.2674 55.8385 48.187C55.8264 47.0559 55.9127 47.099 55.4379 46.2979V46.2974Z" fill="#00419E"/>
<path fill-rule="evenodd" clip-rule="evenodd" d="M55.4379 46.2974C53.8567 46.3453 54.2225 46.9174 54.2683 48.8218C54.3267 51.2579 55.8722 51.2674 55.8385 48.187C55.8264 47.0559 55.9127 47.099 55.4379 46.2979V46.2974Z" fill="#00419E"/>
<path fill-rule="evenodd" clip-rule="evenodd" d="M55.4379 46.2974C53.8567 46.3453 54.2225 46.9174 54.2683 48.8218C54.3267 51.2579 55.8722 51.2674 55.8385 48.187C55.8264 47.0559 55.9127 47.099 55.4379 46.2979V46.2974Z" fill="#00419E"/>
<path fill-rule="evenodd" clip-rule="evenodd" d="M54.4607 55.2226C54.2381 56.04 54.236 56.9575 54.2655 57.9724C54.3039 59.3072 54.266 59.5078 55.7598 59.4031L55.6561 55.2031L54.4613 55.2226H54.4607Z" fill="#00419E"/>
<path fill-rule="evenodd" clip-rule="evenodd" d="M54.4607 55.2226C54.2381 56.04 54.236 56.9575 54.2655 57.9724C54.3039 59.3072 54.266 59.5078 55.7598 59.4031L55.6561 55.2031L54.4613 55.2226H54.4607Z" fill="#00419E"/>
<path fill-rule="evenodd" clip-rule="evenodd" d="M54.4607 55.2226C54.2381 56.04 54.236 56.9575 54.2655 57.9724C54.3039 59.3072 54.266 59.5078 55.7598 59.4031L55.6561 55.2031L54.4613 55.2226H54.4607Z" fill="#00419E"/>
<path fill-rule="evenodd" clip-rule="evenodd" d="M54.4607 55.2226C54.2381 56.04 54.236 56.9575 54.2655 57.9724C54.3039 59.3072 54.266 59.5078 55.7598 59.4031L55.6561 55.2031L54.4613 55.2226H54.4607Z" fill="#00419E"/>
<path fill-rule="evenodd" clip-rule="evenodd" d="M54.4607 55.2226C54.2381 56.04 54.236 56.9575 54.2655 57.9724C54.3039 59.3072 54.266 59.5078 55.7598 59.4031L55.6561 55.2031L54.4613 55.2226H54.4607Z" fill="#00419E"/>
<path fill-rule="evenodd" clip-rule="evenodd" d="M54.4607 55.2226C54.2381 56.04 54.236 56.9575 54.2655 57.9724C54.3039 59.3072 54.266 59.5078 55.7598 59.4031L55.6561 55.2031L54.4613 55.2226H54.4607Z" fill="#00419E"/>
<path fill-rule="evenodd" clip-rule="evenodd" d="M50.5602 53.6068C52.1683 53.6152 52.7836 53.9073 52.6152 52.1108L48.4905 52.254C48.301 53.9068 48.9553 53.5984 50.5602 53.6063V53.6068Z" fill="#00419E"/>
<path fill-rule="evenodd" clip-rule="evenodd" d="M50.5602 53.6068C52.1683 53.6152 52.7836 53.9073 52.6152 52.1108L48.4905 52.254C48.301 53.9068 48.9553 53.5984 50.5602 53.6063V53.6068Z" fill="#00419E"/>
<path fill-rule="evenodd" clip-rule="evenodd" d="M50.5602 53.6068C52.1683 53.6152 52.7836 53.9073 52.6152 52.1108L48.4905 52.254C48.301 53.9068 48.9553 53.5984 50.5602 53.6063V53.6068Z" fill="#00419E"/>
<path fill-rule="evenodd" clip-rule="evenodd" d="M50.5602 53.6068C52.1683 53.6152 52.7836 53.9073 52.6152 52.1108L48.4905 52.254C48.301 53.9068 48.9553 53.5984 50.5602 53.6063V53.6068Z" fill="#00419E"/>
<path fill-rule="evenodd" clip-rule="evenodd" d="M50.5602 53.6068C52.1683 53.6152 52.7836 53.9073 52.6152 52.1108L48.4905 52.254C48.301 53.9068 48.9553 53.5984 50.5602 53.6063V53.6068Z" fill="#00419E"/>
<path fill-rule="evenodd" clip-rule="evenodd" d="M50.5602 53.6068C52.1683 53.6152 52.7836 53.9073 52.6152 52.1108L48.4905 52.254C48.301 53.9068 48.9553 53.5984 50.5602 53.6063V53.6068Z" fill="#00419E"/>
<path fill-rule="evenodd" clip-rule="evenodd" d="M12.8452 35.5808C14.129 35.6682 16.0619 33.6712 16.0529 32.3663C14.5675 32.1526 14.6602 32.5294 13.7932 33.3885C12.8379 34.3349 12.5215 34.0896 12.8452 35.5808Z" fill="#00419E"/>
<path fill-rule="evenodd" clip-rule="evenodd" d="M12.8452 35.5808C14.129 35.6682 16.0619 33.6712 16.0529 32.3663C14.5675 32.1526 14.6602 32.5294 13.7932 33.3885C12.8379 34.3349 12.5215 34.0896 12.8452 35.5808Z" fill="#00419E"/>
<path fill-rule="evenodd" clip-rule="evenodd" d="M12.8452 35.5808C14.129 35.6682 16.0619 33.6712 16.0529 32.3663C14.5675 32.1526 14.6602 32.5294 13.7932 33.3885C12.8379 34.3349 12.5215 34.0896 12.8452 35.5808Z" fill="#00419E"/>
<path fill-rule="evenodd" clip-rule="evenodd" d="M12.8452 35.5808C14.129 35.6682 16.0619 33.6712 16.0529 32.3663C14.5675 32.1526 14.6602 32.5294 13.7932 33.3885C12.8379 34.3349 12.5215 34.0896 12.8452 35.5808Z" fill="#00419E"/>
<path fill-rule="evenodd" clip-rule="evenodd" d="M12.8452 35.5808C14.129 35.6682 16.0619 33.6712 16.0529 32.3663C14.5675 32.1526 14.6602 32.5294 13.7932 33.3885C12.8379 34.3349 12.5215 34.0896 12.8452 35.5808Z" fill="#00419E"/>
<path fill-rule="evenodd" clip-rule="evenodd" d="M12.8452 35.5808C14.129 35.6682 16.0619 33.6712 16.0529 32.3663C14.5675 32.1526 14.6602 32.5294 13.7932 33.3885C12.8379 34.3349 12.5215 34.0896 12.8452 35.5808Z" fill="#00419E"/>
<path fill-rule="evenodd" clip-rule="evenodd" d="M3.51312 9.27325C3.16677 10.2892 3.18256 9.66016 3.60682 10.5171L7.57515 10.6029L7.57725 9.47064L5.7502 9.06641L4.82643 9.1301L3.51365 9.27325H3.51312Z" fill="#00419E"/>
<path fill-rule="evenodd" clip-rule="evenodd" d="M3.51312 9.27325C3.16677 10.2892 3.18256 9.66016 3.60682 10.5171L7.57515 10.6029L7.57725 9.47064L5.7502 9.06641L4.82643 9.1301L3.51365 9.27325H3.51312Z" fill="#00419E"/>
<path fill-rule="evenodd" clip-rule="evenodd" d="M3.51312 9.27325C3.16677 10.2892 3.18256 9.66016 3.60682 10.5171L7.57515 10.6029L7.57725 9.47064L5.7502 9.06641L4.82643 9.1301L3.51365 9.27325H3.51312Z" fill="#00419E"/>
<path fill-rule="evenodd" clip-rule="evenodd" d="M3.51312 9.27325C3.16677 10.2892 3.18256 9.66016 3.60682 10.5171L7.57515 10.6029L7.57725 9.47064L5.7502 9.06641L4.82643 9.1301L3.51365 9.27325H3.51312Z" fill="#00419E"/>
<path fill-rule="evenodd" clip-rule="evenodd" d="M3.51312 9.27325C3.16677 10.2892 3.18256 9.66016 3.60682 10.5171L7.57515 10.6029L7.57725 9.47064L5.7502 9.06641L4.82643 9.1301L3.51365 9.27325H3.51312Z" fill="#00419E"/>
<path fill-rule="evenodd" clip-rule="evenodd" d="M3.51312 9.27325C3.16677 10.2892 3.18256 9.66016 3.60682 10.5171L7.57515 10.6029L7.57725 9.47064L5.7502 9.06641L4.82643 9.1301L3.51365 9.27325H3.51312Z" fill="#00419E"/>
<path fill-rule="evenodd" clip-rule="evenodd" d="M78.7469 11.7237L78.9533 10.6973C77.9658 10.2178 75.445 10.003 75.2813 11.0347C75.0544 12.4659 77.979 11.9674 78.7469 11.7237Z" fill="#00419E"/>
<path fill-rule="evenodd" clip-rule="evenodd" d="M78.7469 11.7237L78.9533 10.6973C77.9658 10.2178 75.445 10.003 75.2813 11.0347C75.0544 12.4659 77.979 11.9674 78.7469 11.7237Z" fill="#00419E"/>
<path fill-rule="evenodd" clip-rule="evenodd" d="M78.7469 11.7237L78.9533 10.6973C77.9658 10.2178 75.445 10.003 75.2813 11.0347C75.0544 12.4659 77.979 11.9674 78.7469 11.7237Z" fill="#00419E"/>
<path fill-rule="evenodd" clip-rule="evenodd" d="M78.7469 11.7237L78.9533 10.6973C77.9658 10.2178 75.445 10.003 75.2813 11.0347C75.0544 12.4659 77.979 11.9674 78.7469 11.7237Z" fill="#00419E"/>
<path fill-rule="evenodd" clip-rule="evenodd" d="M78.7469 11.7237L78.9533 10.6973C77.9658 10.2178 75.445 10.003 75.2813 11.0347C75.0544 12.4659 77.979 11.9674 78.7469 11.7237Z" fill="#00419E"/>
<path fill-rule="evenodd" clip-rule="evenodd" d="M78.7469 11.7237L78.9533 10.6973C77.9658 10.2178 75.445 10.003 75.2813 11.0347C75.0544 12.4659 77.979 11.9674 78.7469 11.7237Z" fill="#00419E"/>
<path fill-rule="evenodd" clip-rule="evenodd" d="M72.8047 13.116L72.9626 16.4911C74.3896 16.5527 74.3212 16.6301 74.4054 15.3026C74.4064 15.2889 74.3875 14.034 74.387 14.0293C74.1954 12.4928 73.769 12.7412 72.8047 13.116Z" fill="#00419E"/>
<path fill-rule="evenodd" clip-rule="evenodd" d="M72.8047 13.116L72.9626 16.4911C74.3896 16.5527 74.3212 16.6301 74.4054 15.3026C74.4064 15.2889 74.3875 14.034 74.387 14.0293C74.1954 12.4928 73.769 12.7412 72.8047 13.116Z" fill="#00419E"/>
<path fill-rule="evenodd" clip-rule="evenodd" d="M72.8047 13.116L72.9626 16.4911C74.3896 16.5527 74.3212 16.6301 74.4054 15.3026C74.4064 15.2889 74.3875 14.034 74.387 14.0293C74.1954 12.4928 73.769 12.7412 72.8047 13.116Z" fill="#00419E"/>
<path fill-rule="evenodd" clip-rule="evenodd" d="M72.8047 13.116L72.9626 16.4911C74.3896 16.5527 74.3212 16.6301 74.4054 15.3026C74.4064 15.2889 74.3875 14.034 74.387 14.0293C74.1954 12.4928 73.769 12.7412 72.8047 13.116Z" fill="#00419E"/>
<path fill-rule="evenodd" clip-rule="evenodd" d="M72.8047 13.116L72.9626 16.4911C74.3896 16.5527 74.3212 16.6301 74.4054 15.3026C74.4064 15.2889 74.3875 14.034 74.387 14.0293C74.1954 12.4928 73.769 12.7412 72.8047 13.116Z" fill="#00419E"/>
<path fill-rule="evenodd" clip-rule="evenodd" d="M72.8047 13.116L72.9626 16.4911C74.3896 16.5527 74.3212 16.6301 74.4054 15.3026C74.4064 15.2889 74.3875 14.034 74.387 14.0293C74.1954 12.4928 73.769 12.7412 72.8047 13.116Z" fill="#00419E"/>
<path fill-rule="evenodd" clip-rule="evenodd" d="M74.6672 10.0819C78.0565 10.3225 78.5839 4.97139 75.6663 8.0412C75.0262 8.71495 74.5751 8.80602 74.6672 10.0819Z" fill="#00419E"/>
<path fill-rule="evenodd" clip-rule="evenodd" d="M74.6672 10.0819C78.0565 10.3225 78.5839 4.97139 75.6663 8.0412C75.0262 8.71495 74.5751 8.80602 74.6672 10.0819Z" fill="#00419E"/>
<path fill-rule="evenodd" clip-rule="evenodd" d="M74.6672 10.0819C78.0565 10.3225 78.5839 4.97139 75.6663 8.0412C75.0262 8.71495 74.5751 8.80602 74.6672 10.0819Z" fill="#00419E"/>
<path fill-rule="evenodd" clip-rule="evenodd" d="M74.6672 10.0819C78.0565 10.3225 78.5839 4.97139 75.6663 8.0412C75.0262 8.71495 74.5751 8.80602 74.6672 10.0819Z" fill="#00419E"/>
<path fill-rule="evenodd" clip-rule="evenodd" d="M74.6672 10.0819C78.0565 10.3225 78.5839 4.97139 75.6663 8.0412C75.0262 8.71495 74.5751 8.80602 74.6672 10.0819Z" fill="#00419E"/>
<path fill-rule="evenodd" clip-rule="evenodd" d="M74.6672 10.0819C78.0565 10.3225 78.5839 4.97139 75.6663 8.0412C75.0262 8.71495 74.5751 8.80602 74.6672 10.0819Z" fill="#00419E"/>
<path fill-rule="evenodd" clip-rule="evenodd" d="M72.8041 13.1159L72.2924 12.1279C71.1986 12.2948 69.3421 13.587 69.8758 15.1298C71.2886 15.2225 71.9571 13.8855 72.8041 13.1159Z" fill="#00419E"/>
<path fill-rule="evenodd" clip-rule="evenodd" d="M72.8041 13.1159L72.2924 12.1279C71.1986 12.2948 69.3421 13.587 69.8758 15.1298C71.2886 15.2225 71.9571 13.8855 72.8041 13.1159Z" fill="#00419E"/>
<path fill-rule="evenodd" clip-rule="evenodd" d="M72.8041 13.1159L72.2924 12.1279C71.1986 12.2948 69.3421 13.587 69.8758 15.1298C71.2886 15.2225 71.9571 13.8855 72.8041 13.1159Z" fill="#00419E"/>
<path fill-rule="evenodd" clip-rule="evenodd" d="M72.8041 13.1159L72.2924 12.1279C71.1986 12.2948 69.3421 13.587 69.8758 15.1298C71.2886 15.2225 71.9571 13.8855 72.8041 13.1159Z" fill="#00419E"/>
<path fill-rule="evenodd" clip-rule="evenodd" d="M72.8041 13.1159L72.2924 12.1279C71.1986 12.2948 69.3421 13.587 69.8758 15.1298C71.2886 15.2225 71.9571 13.8855 72.8041 13.1159Z" fill="#00419E"/>
<path fill-rule="evenodd" clip-rule="evenodd" d="M72.8041 13.1159L72.2924 12.1279C71.1986 12.2948 69.3421 13.587 69.8758 15.1298C71.2886 15.2225 71.9571 13.8855 72.8041 13.1159Z" fill="#00419E"/>
<path fill-rule="evenodd" clip-rule="evenodd" d="M74.7039 12.2995C74.5745 13.5017 74.9808 13.697 75.6272 14.295C78.8928 17.3142 77.649 11.8494 74.7039 12.2995Z" fill="#00419E"/>
<path fill-rule="evenodd" clip-rule="evenodd" d="M74.7039 12.2995C74.5745 13.5017 74.9808 13.697 75.6272 14.295C78.8928 17.3142 77.649 11.8494 74.7039 12.2995Z" fill="#00419E"/>
<path fill-rule="evenodd" clip-rule="evenodd" d="M74.7039 12.2995C74.5745 13.5017 74.9808 13.697 75.6272 14.295C78.8928 17.3142 77.649 11.8494 74.7039 12.2995Z" fill="#00419E"/>
<path fill-rule="evenodd" clip-rule="evenodd" d="M74.7039 12.2995C74.5745 13.5017 74.9808 13.697 75.6272 14.295C78.8928 17.3142 77.649 11.8494 74.7039 12.2995Z" fill="#00419E"/>
<path fill-rule="evenodd" clip-rule="evenodd" d="M74.7039 12.2995C74.5745 13.5017 74.9808 13.697 75.6272 14.295C78.8928 17.3142 77.649 11.8494 74.7039 12.2995Z" fill="#00419E"/>
<path fill-rule="evenodd" clip-rule="evenodd" d="M74.7039 12.2995C74.5745 13.5017 74.9808 13.697 75.6272 14.295C78.8928 17.3142 77.649 11.8494 74.7039 12.2995Z" fill="#00419E"/>
<path fill-rule="evenodd" clip-rule="evenodd" d="M72.5457 10.0831C72.6473 8.64242 71.3124 7.06013 69.8981 7.20173C69.2354 8.91138 71.2477 10.1726 72.5457 10.0831Z" fill="#00419E"/>
<path fill-rule="evenodd" clip-rule="evenodd" d="M72.5457 10.0831C72.6473 8.64242 71.3124 7.06013 69.8981 7.20173C69.2354 8.91138 71.2477 10.1726 72.5457 10.0831Z" fill="#00419E"/>
<path fill-rule="evenodd" clip-rule="evenodd" d="M72.5457 10.0831C72.6473 8.64242 71.3124 7.06013 69.8981 7.20173C69.2354 8.91138 71.2477 10.1726 72.5457 10.0831Z" fill="#00419E"/>
<path fill-rule="evenodd" clip-rule="evenodd" d="M72.5457 10.0831C72.6473 8.64242 71.3124 7.06013 69.8981 7.20173C69.2354 8.91138 71.2477 10.1726 72.5457 10.0831Z" fill="#00419E"/>
<path fill-rule="evenodd" clip-rule="evenodd" d="M72.5457 10.0831C72.6473 8.64242 71.3124 7.06013 69.8981 7.20173C69.2354 8.91138 71.2477 10.1726 72.5457 10.0831Z" fill="#00419E"/>
<path fill-rule="evenodd" clip-rule="evenodd" d="M72.5457 10.0831C72.6473 8.64242 71.3124 7.06013 69.8981 7.20173C69.2354 8.91138 71.2477 10.1726 72.5457 10.0831Z" fill="#00419E"/>
<path fill-rule="evenodd" clip-rule="evenodd" d="M68.4695 10.6215C68.1521 11.3621 68.1521 10.6152 68.3611 11.7785C69.0475 11.9043 69.3681 11.948 70.0797 11.9438C73.7059 11.9232 71.5014 9.44611 68.4695 10.6215Z" fill="#00419E"/>
<path fill-rule="evenodd" clip-rule="evenodd" d="M68.4695 10.6215C68.1521 11.3621 68.1521 10.6152 68.3611 11.7785C69.0475 11.9043 69.3681 11.948 70.0797 11.9438C73.7059 11.9232 71.5014 9.44611 68.4695 10.6215Z" fill="#00419E"/>
<path fill-rule="evenodd" clip-rule="evenodd" d="M68.4695 10.6215C68.1521 11.3621 68.1521 10.6152 68.3611 11.7785C69.0475 11.9043 69.3681 11.948 70.0797 11.9438C73.7059 11.9232 71.5014 9.44611 68.4695 10.6215Z" fill="#00419E"/>
<path fill-rule="evenodd" clip-rule="evenodd" d="M68.4695 10.6215C68.1521 11.3621 68.1521 10.6152 68.3611 11.7785C69.0475 11.9043 69.3681 11.948 70.0797 11.9438C73.7059 11.9232 71.5014 9.44611 68.4695 10.6215Z" fill="#00419E"/>
<path fill-rule="evenodd" clip-rule="evenodd" d="M68.4695 10.6215C68.1521 11.3621 68.1521 10.6152 68.3611 11.7785C69.0475 11.9043 69.3681 11.948 70.0797 11.9438C73.7059 11.9232 71.5014 9.44611 68.4695 10.6215Z" fill="#00419E"/>
<path fill-rule="evenodd" clip-rule="evenodd" d="M68.4695 10.6215C68.1521 11.3621 68.1521 10.6152 68.3611 11.7785C69.0475 11.9043 69.3681 11.948 70.0797 11.9438C73.7059 11.9232 71.5014 9.44611 68.4695 10.6215Z" fill="#00419E"/>
<path fill-rule="evenodd" clip-rule="evenodd" d="M72.8572 9.16435C73.8847 9.62756 73.0225 9.64545 74.1141 9.27962C74.55 8.30583 74.6053 6.8778 74.0362 5.85874L73.0235 5.78662L72.8577 9.16486L72.8572 9.16435Z" fill="#00419E"/>
<path fill-rule="evenodd" clip-rule="evenodd" d="M72.8572 9.16435C73.8847 9.62756 73.0225 9.64545 74.1141 9.27962C74.55 8.30583 74.6053 6.8778 74.0362 5.85874L73.0235 5.78662L72.8577 9.16486L72.8572 9.16435Z" fill="#00419E"/>
<path fill-rule="evenodd" clip-rule="evenodd" d="M72.8572 9.16435C73.8847 9.62756 73.0225 9.64545 74.1141 9.27962C74.55 8.30583 74.6053 6.8778 74.0362 5.85874L73.0235 5.78662L72.8577 9.16486L72.8572 9.16435Z" fill="#00419E"/>
<path fill-rule="evenodd" clip-rule="evenodd" d="M72.8572 9.16435C73.8847 9.62756 73.0225 9.64545 74.1141 9.27962C74.55 8.30583 74.6053 6.8778 74.0362 5.85874L73.0235 5.78662L72.8577 9.16486L72.8572 9.16435Z" fill="#00419E"/>
<path fill-rule="evenodd" clip-rule="evenodd" d="M72.8572 9.16435C73.8847 9.62756 73.0225 9.64545 74.1141 9.27962C74.55 8.30583 74.6053 6.8778 74.0362 5.85874L73.0235 5.78662L72.8577 9.16486L72.8572 9.16435Z" fill="#00419E"/>
<path fill-rule="evenodd" clip-rule="evenodd" d="M72.8572 9.16435C73.8847 9.62756 73.0225 9.64545 74.1141 9.27962C74.55 8.30583 74.6053 6.8778 74.0362 5.85874L73.0235 5.78662L72.8577 9.16486L72.8572 9.16435Z" fill="#00419E"/>
</g>
</svg>
