<svg width="94" height="92" viewBox="0 0 94 92" fill="none" xmlns="http://www.w3.org/2000/svg">
<path fill-rule="evenodd" clip-rule="evenodd" d="M56.7922 86.1619C54.5619 90.159 47.8855 87.1276 50.4769 82.4574C52.6595 78.5239 59.1989 81.85 56.7922 86.1619ZM29.8867 84.9603C29.2212 78.3316 39.1081 77.4675 39.6879 83.841C40.3015 90.5845 30.4747 90.81 29.8867 84.9603ZM79.875 76.1449C77.9283 82.7721 67.4554 79.9898 69.7148 72.7932C71.6185 66.7283 81.9649 69.0319 79.875 76.1449ZM13.1268 74.542C12.1099 69.6615 19.4995 68.4571 20.293 72.9675C21.1895 78.0632 13.9653 78.5661 13.1268 74.542ZM40.2717 73.3397C39.4969 69.3273 45.027 68.5989 45.842 71.8129C46.8976 75.9795 40.9047 76.6139 40.2717 73.3397ZM71.0603 66.5789C69.4076 69.0001 64.0518 67.0984 66.1493 63.2562C67.9756 59.9101 73.3777 63.1843 71.0603 66.5789ZM85.2121 59.3151C83.4148 64.0628 76.4064 61.6153 78.4139 56.6898C79.9386 52.9493 86.8987 54.8587 85.2121 59.3151ZM2.18624 58.1128C0.362008 51.5291 10.1743 49.1916 11.6616 55.392C13.2928 62.193 3.76074 63.7931 2.18624 58.1128ZM91.6415 44.0883C89.3815 50.1331 80.0735 46.6624 82.5902 40.4025C84.8268 34.8398 93.9915 37.802 91.6415 44.0883ZM74.3843 42.4854C72.2086 47.036 65.6581 43.7009 67.7937 39.2368C69.5591 35.5454 76.5828 37.8871 74.3843 42.4854ZM16.7822 41.6843C15.142 36.579 22.4832 35.1726 23.7201 39.3765C25.2171 44.4625 18.0578 45.6531 16.7822 41.6843ZM5.7856 32.7762C7.47286 32.1384 9.62016 32.9858 10.3064 34.7353C11.1116 36.7886 9.87059 38.9788 8.37011 39.5612C3.98558 41.2637 0.743183 34.6807 5.7856 32.7762ZM20.6181 34.4718C32.4373 8.59838 66.1493 15.4713 72.3982 35.3545C62.4185 34.8938 62.7104 49.0096 74.4431 45.889C74.4604 52.2665 72.7496 55.3346 70.6445 60.1273C68.1859 59.8118 66.5913 59.7053 65.0279 61.3019C62.9996 63.3731 63.93 64.8861 64.1369 67.5577C60.7471 70.1084 53.9497 74.0038 47.9692 73.6371C48.1325 70.3581 46.4805 67.9071 43.3813 67.7563C39.1088 67.5487 39.4782 70.1748 37.7979 72.4487C27.7442 68.9856 18.1526 59.6984 18.3214 45.9381C26.3821 47.0166 27.325 39.784 24.4077 36.6447C22.9598 35.0868 22.0183 35.3856 20.6175 34.4718H20.6181ZM80.1296 24.3102C84.8475 21.79 87.5648 28.8531 83.3837 30.8261C79.0144 32.8876 76.2535 26.3807 80.1296 24.3102ZM14.7573 13.6989C21.2027 10.6184 24.2645 20.2404 18.9406 22.8097C16.217 24.1241 13.1081 22.6222 12.1196 20.4853C10.7035 17.4248 11.9549 15.0382 14.7573 13.6989ZM71.4013 11.2313C76.3067 8.67585 79.0158 15.8995 74.7094 17.6801C70.125 19.5756 67.5695 13.2278 71.4013 11.2313ZM52.4935 2.18692C58.8018 0.596511 60.7132 10.5181 54.5917 11.6941C48.2224 12.9165 46.1802 3.77872 52.4935 2.18692ZM34.1564 2.23881C40.2053 0.730025 42.4612 9.7668 36.8536 11.5371C30.281 13.6124 27.5491 3.88664 34.1564 2.23881ZM35.9529 13.8753L36.8827 16.8299C35.8229 17.6594 31.9772 19.1308 30.3273 20.1795L24.5758 24.5122L22.643 22.8491C23.6398 18.879 25.242 16.3775 21.5887 13.0009C14.8175 6.74301 5.47292 16.538 11.3095 22.8941C12.3942 24.075 13.5834 25.0912 15.7784 25.3133C18.6991 25.6086 19.2373 24.5405 21.3362 24.1414L23.1854 26.3876C17.9389 33.2563 19.7721 33.7074 16.6272 36.1556C15.0583 37.3766 15.0154 37.6173 12.8432 36.5575C11.7405 33.4639 11.773 31.0343 7.68523 30.53C4.45944 30.1322 1.66879 32.3805 1.28415 35.3102C0.841411 38.6813 3.16374 41.4775 6.14948 41.8033C11.9722 42.4398 9.9446 37.8643 14.1576 39.142L14.9337 42.511C15.4886 44.0018 15.8946 43.4629 16.1721 45.3023C16.4647 47.2435 16.7711 50.9148 16.9226 52.8476L13.3814 53.738C6.5853 44.8133 -1.56668 52.2686 0.260326 58.7804C2.1399 65.481 13.7909 66.031 13.8926 55.8223C15.2118 55.3595 16.3187 54.896 17.5653 55.098C20.2418 59.5559 18.026 58.0097 23.6938 65.7273C22.9176 66.7214 21.5804 67.804 20.6486 68.9579C17.6393 68.4917 15.4298 66.7262 12.5976 69.7555C7.81944 74.8657 14.8411 82.595 20.2176 78.2064C23.0684 75.8792 22.3877 74.1366 21.7803 70.5359L24.9791 67.4547C26.5696 68.0849 28.566 70.2114 30.5529 71.3771C32.4518 72.4915 35.0986 73.4172 36.974 74.5427L36.1577 77.3693C25.222 77.5893 26.068 88.6315 32.2747 90.8951C38.1369 93.0334 46.861 86.1667 38.2241 78.1489L38.8543 75.7574C40.5305 76.6505 41.8808 78.3039 44.888 77.2745C47.3916 76.4174 46.4895 75.2511 51.0221 75.7602L51.5658 78.9355C49.0781 80.5536 46.8091 82.694 48.2757 86.4905C50.9051 93.2983 61.9585 89.4894 58.788 82.0209C56.5667 76.7889 53.5886 81.7691 53.2441 75.3451C55.2744 74.0349 57.0233 74.9266 64.6135 69.6746C65.2472 69.236 65.6872 68.2578 68.6349 70.136C64.5264 82.0354 74.9647 83.5663 79.0919 80.5875C84.7507 76.5032 82.7991 66.6377 72.9979 67.2886C74.9211 61.414 70.8811 63.7481 73.175 59.4535C73.9706 57.9641 73.6143 57.915 74.6631 57.3989C76.6983 57.2218 75.7277 58.9194 76.663 60.8862C77.2012 62.0172 78.3503 63.0639 79.6557 63.5288C83.3131 64.8314 86.3867 62.7173 87.192 59.8409C88.7416 54.308 82.6366 50.7875 78.7398 53.3706C77.076 54.474 77.2552 55.9503 75.4642 55.4709C75.4254 55.3851 75.3943 55.1464 75.3908 55.199C75.3874 55.2516 75.3355 54.9825 75.3334 54.9251L75.314 54.3481C75.3369 54.0707 75.5216 53.3886 75.5963 53.0815C75.8571 52.0106 76.0411 51.1341 76.2023 50.0591C76.551 47.7395 76.3683 45.6247 76.6181 43.346L80.2243 43.3522C82.2893 52.3267 94.2807 50.4105 93.995 42.0814C93.8698 38.4274 91.0978 35.5683 87.4292 35.4078C85.4362 35.3206 83.5297 36.2255 82.4885 37.0888C80.6927 38.5775 80.9465 39.9984 79.8722 41.3115C75.7478 41.3115 77.1099 41.2692 76.4237 39.1309C76.1691 38.3382 74.4867 35.2708 73.431 32.1004L77.029 30.6988C78.7197 32.3259 80.8538 34.332 84.4221 32.6448C86.6648 31.5843 88.4808 28.4609 87.1366 25.215C85.0495 20.1726 75.8433 20.1705 76.2445 28.8407L72.3767 30.3398C69.3619 25.8418 69.1378 26.3329 66.8314 23.3202C67.7189 21.9671 69.2222 20.4922 70.1623 19.2705C78.0155 22.3358 81.2869 13.9306 77.0248 10.0739C74.8291 8.08783 71.1336 8.26909 69.2111 10.1881C66.5035 12.8909 67.6892 14.9241 68.5885 18.1471C67.0133 19.4988 66.9116 20.3552 65.0466 21.8571C63.3095 20.8609 61.8602 19.6987 59.6576 18.6154C57.6092 17.6082 54.4671 16.9102 52.9729 16.0413C53.1099 12.6965 54.0714 14.3741 56.8178 13.0369C62.249 10.3936 61.3794 1.36715 54.8947 0.184895C48.0294 -1.06654 44.237 6.73263 48.1269 11.3005C50.645 14.2572 51.2296 11.5073 50.9363 15.5951C48.9183 15.8925 46.6929 15.4885 44.5954 15.5916C42.4965 15.6947 40.8148 16.2066 39.0009 16.2869L38.0497 13.1469C45.6919 9.5226 41.6795 -1.61789 33.6175 0.198736C26.6304 1.77324 25.6924 13.3689 35.9536 13.8753H35.9529Z" fill="#FEFEFE" fill-opacity="0.3"/>
</svg>
