<svg width="40" height="40" viewBox="0 0 40 40" fill="none" xmlns="http://www.w3.org/2000/svg">
<path d="M37.3288 25.7308L38.9755 12.7463L27.1623 8.26368L23.4216 10.0499C23.3061 10.6212 23.1311 11.1771 22.9021 11.712L25.7339 10.3599L24.5647 22.9442L24.6302 23.6184L16.002 24.9199L15.2939 26.3165L24.7547 24.8901L25.8454 36.0516L27.1151 35.9265L26.0176 24.7006L26.1282 24.6833L36.0201 25.9366L36.0441 25.7432L37.5388 38.2965L27.2372 35.9187L13.832 38.4726L13.7203 38.4514L14.9253 27.0012L14.9174 26.9316L14.8681 26.5026L13.2163 23.2419L13.4494 25.3047L13.1547 25.3489L3.599 23.8686L3.65571 23.3982L2.19154 11.8543L8.87744 14.6772L8.31935 13.577C8.1388 13.343 7.97525 13.0977 7.82017 12.8481L0.646484 9.81858L2.37022 23.403L2.33775 23.6732L2.31375 23.6694L2.11774 24.9294L2.1882 24.939L0.715564 37.3096L13.8337 39.7692L27.2134 37.2212L39.0212 39.9462L37.3288 25.7308ZM26.1139 23.3953L25.8937 23.4276L25.8455 22.948L27.0748 9.71899L27.22 9.6495L37.5832 13.5816L36.1759 24.6688L26.1139 23.3953ZM12.4626 38.2158L2.12254 36.2767L3.44994 25.1362L13.153 26.6397L13.5937 26.5734L13.643 27.0062L12.4626 38.2158ZM15.0344 26.8292L14.869 26.5031L14.8555 26.3828L15.2944 26.3165L15.0344 26.8292ZM9.31128 12.4868L14.9457 23.606L20.5187 12.6058C21.6134 11.3295 22.279 9.67529 22.279 7.86483C22.2789 3.83934 19.0037 0.564453 14.9781 0.564453C10.9527 0.564453 7.67876 3.83934 7.67876 7.86483C7.67876 9.61761 8.30015 11.2265 9.33292 12.4868H9.31128ZM14.9786 3.37792C17.4522 3.37792 19.4656 5.39107 19.4656 7.86483C19.4656 10.3384 17.4522 12.3519 14.9786 12.3519C12.5049 12.3519 10.4916 10.3384 10.4916 7.86483C10.4917 5.39107 12.5044 3.37792 14.9786 3.37792Z" fill="#FEFEFE"/>
</svg>
