<svg width="42" height="42" viewBox="0 0 42 42" fill="none" xmlns="http://www.w3.org/2000/svg">
<path d="M14.5833 18.7487C15.1359 18.7487 15.6658 18.5292 16.0565 18.1385C16.4472 17.7478 16.6667 17.2179 16.6667 16.6654C16.6667 16.1128 16.4472 15.5829 16.0565 15.1922C15.6658 14.8015 15.1359 14.582 14.5833 14.582C14.0308 14.582 13.5009 14.8015 13.1102 15.1922C12.7195 15.5829 12.5 16.1128 12.5 16.6654C12.5 17.2179 12.7195 17.7478 13.1102 18.1385C13.5009 18.5292 14.0308 18.7487 14.5833 18.7487ZM14.5833 27.082C14.0308 27.082 13.5009 27.3015 13.1102 27.6922C12.7195 28.0829 12.5 28.6128 12.5 29.1654C12.5 29.7179 12.7195 30.2478 13.1102 30.6385C13.5009 31.0292 14.0308 31.2487 14.5833 31.2487H27.0833C27.6359 31.2487 28.1658 31.0292 28.5565 30.6385C28.9472 30.2478 29.1667 29.7179 29.1667 29.1654C29.1667 28.6128 28.9472 28.0829 28.5565 27.6922C28.1658 27.3015 27.6359 27.082 27.0833 27.082H14.5833ZM29.1667 16.6654C29.1667 17.2179 28.9472 17.7478 28.5565 18.1385C28.1658 18.5292 27.6359 18.7487 27.0833 18.7487C26.5308 18.7487 26.0009 18.5292 25.6102 18.1385C25.2195 17.7478 25 17.2179 25 16.6654C25 16.1128 25.2195 15.5829 25.6102 15.1922C26.0009 14.8015 26.5308 14.582 27.0833 14.582C27.6359 14.582 28.1658 14.8015 28.5565 15.1922C28.9472 15.5829 29.1667 16.1128 29.1667 16.6654Z" fill="white"/>
<path fill-rule="evenodd" clip-rule="evenodd" d="M41.6667 20.8333C41.6667 32.3396 32.3396 41.6667 20.8333 41.6667C9.32708 41.6667 0 32.3396 0 20.8333C0 9.32708 9.32708 0 20.8333 0C32.3396 0 41.6667 9.32708 41.6667 20.8333ZM37.5 20.8333C37.5 25.2536 35.7441 29.4928 32.6185 32.6185C29.4928 35.7441 25.2536 37.5 20.8333 37.5C16.4131 37.5 12.1738 35.7441 9.04822 32.6185C5.92261 29.4928 4.16667 25.2536 4.16667 20.8333C4.16667 16.4131 5.92261 12.1738 9.04822 9.04822C12.1738 5.92261 16.4131 4.16667 20.8333 4.16667C25.2536 4.16667 29.4928 5.92261 32.6185 9.04822C35.7441 12.1738 37.5 16.4131 37.5 20.8333Z" fill="white"/>
</svg>
