<svg width="13" height="14" viewBox="0 0 13 14" fill="none" xmlns="http://www.w3.org/2000/svg">
<path d="M5.92 8.79L5.78 4H7.15L7 8.79H5.92ZM6.49 11.07C6.25 11.07 6.05333 10.9967 5.9 10.85C5.75333 10.7033 5.68 10.5267 5.68 10.32C5.68 10.1067 5.75333 9.92667 5.9 9.78C6.05333 9.63333 6.25 9.56 6.49 9.56C6.71667 9.56 6.90333 9.63333 7.05 9.78C7.20333 9.92667 7.28 10.1067 7.28 10.32C7.28 10.5267 7.20333 10.7033 7.05 10.85C6.90333 10.9967 6.71667 11.07 6.49 11.07Z" fill="#53719C"/>
<rect x="0.5" y="1.5" width="12" height="12" rx="0.5" stroke="#53719C"/>
</svg>
